<?xml version="1.0" encoding="utf-8"?>
<svg xmlns="http://www.w3.org/2000/svg" xmlns:xlink="http://www.w3.org/1999/xlink" width="600" height="200" viewBox="0 0 2400 800">
<defs>
  <clipPath id="clip520">
    <rect x="0" y="0" width="2400" height="800"/>
  </clipPath>
</defs>
<path clip-path="url(#clip520)" d="M0 800 L2400 800 L2400 0 L0 0  Z" fill="#ffffff" fill-rule="evenodd" fill-opacity="1"/>
<defs>
  <clipPath id="clip521">
    <rect x="480" y="0" width="1681" height="800"/>
  </clipPath>
</defs>
<path clip-path="url(#clip520)" d="M15.748 784.252 L784.252 784.252 L784.252 15.748 L15.748 15.748  Z" fill="#f2f2f2" fill-rule="evenodd" fill-opacity="1"/>
<defs>
  <clipPath id="clip522">
    <rect x="15" y="15" width="770" height="770"/>
  </clipPath>
</defs>
<polyline clip-path="url(#clip522)" style="stroke:#ff0000; stroke-linecap:round; stroke-linejoin:round; stroke-width:4; stroke-opacity:1; fill:none" points="400,54.1732 404.354,54.2006 408.708,54.2829 413.06,54.4199 417.411,54.6118 421.758,54.8584 426.102,55.1597 430.442,55.5157 434.777,55.9263 439.107,56.3915 443.43,56.9111 447.746,57.4851 452.055,58.1135 456.356,58.796 460.648,59.5327 464.93,60.3233 469.202,61.1677 473.462,62.0659 477.712,63.0177 481.948,64.0229 486.172,65.0814 490.383,66.1929 494.578,67.3574 498.759,68.5747 502.924,69.8444 507.073,71.1665 511.205,72.5408 515.32,73.967 519.416,75.4448 523.493,76.9741 527.55,78.5547 531.587,80.1862 535.604,81.8684 539.599,83.601 543.572,85.3838 547.522,87.2165 551.448,89.0988 555.351,91.0303 559.229,93.0109 563.082,95.0401 566.909,97.1177 570.709,99.2433 574.482,101.417 578.228,103.637 581.945,105.905 585.634,108.219 589.293,110.579 592.922,112.986 596.521,115.438 600.088,117.935 603.624,120.476 607.127,123.062 610.598,125.692 614.035,128.366 617.438,131.082 620.807,133.841 624.141,136.643 627.439,139.486 630.701,142.37 633.927,145.296 637.115,148.261 640.266,151.267 643.379,154.312 646.453,157.396 649.488,160.518 652.484,163.678 655.44,166.876 658.355,170.111 661.229,173.382 664.061,176.689 666.852,180.032 669.601,183.409 672.307,186.821 674.969,190.267 677.588,193.745 680.163,197.257 682.694,200.801 685.179,204.376 687.62,207.982 690.015,211.619 692.364,215.285 694.667,218.981 696.922,222.706 699.131,226.458 701.293,230.239 703.406,234.046 705.472,237.879 707.489,241.738 709.457,245.622 711.376,249.531 713.246,253.464 715.067,257.419 716.837,261.398 718.557,265.398 720.226,269.42 721.845,273.462 723.413,277.525 724.929,281.607 726.394,285.707 727.808,289.826 729.169,293.962 730.478,298.115 731.735,302.285 732.939,306.469 734.09,310.669 735.188,314.882 736.233,319.11 737.225,323.35 738.164,327.602 739.048,331.865 739.879,336.14 740.657,340.424 741.38,344.718 742.049,349.021 742.663,353.332 743.224,357.65 743.73,361.975 744.181,366.306 744.578,370.643 744.921,374.984 745.208,379.328 745.441,383.677 745.619,388.028 745.743,392.38 745.811,396.734 745.825,401.089 745.784,405.443 745.688,409.796 745.537,414.148 745.332,418.498 745.071,422.844 744.756,427.188 744.387,431.526 743.963,435.86 743.484,440.188 742.95,444.51 742.363,448.824 741.721,453.131 741.025,457.43 740.275,461.719 739.471,465.999 738.613,470.268 737.701,474.526 736.736,478.772 735.717,483.006 734.646,487.226 733.521,491.433 732.343,495.625 731.113,499.802 729.83,503.963 728.495,508.108 727.108,512.236 725.668,516.345 724.178,520.437 722.636,524.509 721.042,528.561 719.398,532.594 717.703,536.605 715.958,540.594 714.163,544.561 712.318,548.506 710.423,552.426 708.479,556.323 706.486,560.194 704.445,564.041 702.355,567.861 700.218,571.655 698.033,575.421 695.8,579.16 693.521,582.87 691.195,586.552 688.823,590.203 686.405,593.825 683.942,597.416 681.434,600.975 678.881,604.503 676.284,607.998 673.643,611.46 670.959,614.889 668.232,618.284 665.462,621.644 662.65,624.969 659.797,628.258 656.902,631.511 653.967,634.727 650.991,637.907 647.976,641.048 644.921,644.151 641.827,647.216 638.696,650.241 635.526,653.227 632.319,656.172 629.075,659.077 625.794,661.941 622.478,664.763 619.127,667.543 615.741,670.281 612.321,672.976 608.867,675.628 605.38,678.236 601.86,680.8 598.309,683.319 594.725,685.794 591.112,688.223 587.467,690.607 583.793,692.944 580.09,695.235 576.359,697.479 572.599,699.676 568.812,701.826 564.998,703.927 561.158,705.981 557.293,707.986 553.403,709.942 549.488,711.849 545.549,713.706 541.588,715.514 537.604,717.272 533.598,718.979 529.571,720.636 525.524,722.242 521.457,723.797 517.37,725.301 513.265,726.753 509.142,728.153 505.001,729.501 500.844,730.797 496.671,732.041 492.482,733.231 488.279,734.369 484.062,735.455 479.832,736.486 475.589,737.465 471.333,738.39 467.067,739.261 462.79,740.079 458.503,740.842 454.207,741.552 449.902,742.207 445.589,742.809 441.269,743.356 436.943,743.848 432.61,744.286 428.273,744.669 423.931,744.998 419.585,745.272 415.236,745.491 410.884,745.655 406.531,745.765 402.177,745.82 397.823,745.82 393.469,745.765 389.116,745.655 384.764,745.491 380.415,745.272 376.069,744.998 371.727,744.669 367.39,744.286 363.057,743.848 358.731,743.356 354.411,742.809 350.098,742.207 345.793,741.552 341.497,740.842 337.21,740.079 332.933,739.261 328.667,738.39 324.411,737.465 320.168,736.486 315.938,735.455 311.721,734.369 307.518,733.231 303.329,732.041 299.156,730.797 294.999,729.501 290.858,728.153 286.735,726.753 282.63,725.301 278.543,723.797 274.476,722.242 270.429,720.636 266.402,718.979 262.396,717.272 258.412,715.514 254.451,713.706 250.512,711.849 246.597,709.942 242.707,707.986 238.842,705.981 235.002,703.927 231.188,701.826 227.401,699.676 223.641,697.479 219.91,695.235 216.207,692.944 212.533,690.607 208.888,688.223 205.275,685.794 201.691,683.319 198.14,680.8 194.62,678.236 191.133,675.628 187.679,672.976 184.259,670.281 180.873,667.543 177.522,664.763 174.206,661.941 170.925,659.077 167.681,656.172 164.474,653.227 161.304,650.241 158.173,647.216 155.079,644.151 152.024,641.048 149.009,637.907 146.033,634.727 143.098,631.511 140.203,628.258 137.35,624.969 134.538,621.644 131.768,618.284 129.041,614.889 126.357,611.46 123.716,607.998 121.119,604.503 118.566,600.975 116.058,597.416 113.595,593.825 111.177,590.203 108.805,586.552 106.479,582.87 104.2,579.16 101.967,575.421 99.7821,571.655 97.6446,567.861 95.555,564.041 93.5136,560.194 91.5209,556.323 89.577,552.426 87.6824,548.506 85.8373,544.561 84.042,540.594 82.2968,536.605 80.602,532.594 78.9578,528.561 77.3645,524.509 75.8223,520.437 74.3316,516.345 72.8925,512.236 71.5052,508.108 70.1701,503.963 68.8872,499.802 67.6568,495.625 66.4791,491.433 65.3543,487.226 64.2825,483.006 63.264,478.772 62.2989,474.526 61.3873,470.268 60.5293,465.999 59.7253,461.719 58.9751,457.43 58.279,453.131 57.6371,448.824 57.0495,444.51 56.5163,440.188 56.0375,435.86 55.6132,431.526 55.2436,427.188 54.9286,422.844 54.6683,418.498 54.4628,414.148 54.312,409.796 54.2161,405.443 54.1749,401.089 54.1886,396.734 54.2572,392.38 54.3805,388.028 54.5587,383.677 54.7916,379.328 55.0792,374.984 55.4216,370.643 55.8185,366.306 56.2701,361.975 56.7761,357.65 57.3365,353.332 57.9513,349.021 58.6203,344.718 59.3434,340.424 60.1206,336.14 60.9516,331.865 61.8364,327.602 62.7748,323.35 63.7666,319.11 64.8118,314.882 65.9101,310.669 67.0614,306.469 68.2654,302.285 69.5221,298.115 70.8311,293.962 72.1924,289.826 73.6056,285.707 75.0705,281.607 76.587,277.525 78.1548,273.462 79.7735,269.42 81.4431,265.398 83.1631,261.398 84.9334,257.419 86.7537,253.464 88.6236,249.531 90.5428,245.622 92.5112,241.738 94.5282,237.879 96.5938,234.046 98.7074,230.239 100.869,226.458 103.078,222.706 105.333,218.981 107.636,215.285 109.985,211.619 112.38,207.982 114.821,204.376 117.306,200.801 119.837,197.257 122.412,193.745 125.031,190.267 127.693,186.821 130.399,183.409 133.148,180.032 135.939,176.689 138.771,173.382 141.645,170.111 144.56,166.876 147.516,163.678 150.512,160.518 153.547,157.396 156.621,154.312 159.734,151.267 162.885,148.261 166.073,145.296 169.299,142.37 172.561,139.486 175.859,136.643 179.193,133.841 182.562,131.082 185.965,128.366 189.402,125.692 192.873,123.062 196.376,120.476 199.912,117.935 203.479,115.438 207.078,112.986 210.707,110.579 214.366,108.219 218.055,105.905 221.772,103.637 225.518,101.417 229.291,99.2433 233.091,97.1177 236.918,95.0401 240.771,93.0109 244.649,91.0303 248.552,89.0988 252.478,87.2165 256.428,85.3838 260.401,83.601 264.396,81.8684 268.413,80.1862 272.45,78.5547 276.507,76.9741 280.584,75.4448 284.68,73.967 288.795,72.5408 292.927,71.1665 297.076,69.8444 301.241,68.5747 305.422,67.3574 309.617,66.1929 313.828,65.0814 318.052,64.0229 322.288,63.0177 326.538,62.0659 330.798,61.1677 335.07,60.3233 339.352,59.5327 343.644,58.796 347.945,58.1135 352.254,57.4851 356.57,56.9111 360.893,56.3915 365.223,55.9263 369.558,55.5157 373.898,55.1597 378.242,54.8584 382.589,54.6118 386.94,54.4199 391.292,54.2829 395.646,54.2006 400,54.1732 "/>
<circle clip-path="url(#clip522)" cx="307.78" cy="438.425" r="18" fill="#009af9" fill-rule="evenodd" fill-opacity="1" stroke="none"/>
<circle clip-path="url(#clip522)" cx="353.89" cy="507.591" r="18" fill="#009af9" fill-rule="evenodd" fill-opacity="1" stroke="none"/>
<circle clip-path="url(#clip522)" cx="561.386" cy="238.614" r="18" fill="#009af9" fill-rule="evenodd" fill-opacity="1" stroke="none"/>
<circle clip-path="url(#clip522)" cx="507.591" cy="184.819" r="18" fill="#009af9" fill-rule="evenodd" fill-opacity="1" stroke="none"/>
<circle clip-path="url(#clip522)" cx="369.26" cy="230.929" r="18" fill="#009af9" fill-rule="evenodd" fill-opacity="1" stroke="none"/>
<circle clip-path="url(#clip522)" cx="446.11" cy="269.354" r="18" fill="#009af9" fill-rule="evenodd" fill-opacity="1" stroke="none"/>
<circle clip-path="url(#clip522)" cx="645.921" cy="592.126" r="18" fill="#009af9" fill-rule="evenodd" fill-opacity="1" stroke="none"/>
<circle clip-path="url(#clip522)" cx="569.071" cy="668.976" r="18" fill="#009af9" fill-rule="evenodd" fill-opacity="1" stroke="none"/>
<circle clip-path="url(#clip522)" cx="400" cy="400" r="18" fill="#ff0000" fill-rule="evenodd" fill-opacity="1" stroke="none"/>
<path clip-path="url(#clip520)" d="M348.35 379.924 L358.853 379.924 L358.853 343.671 L347.427 345.963 L347.427 340.106 L358.79 337.815 L365.219 337.815 L365.219 379.924 L375.723 379.924 L375.723 385.335 L348.35 385.335 L348.35 379.924 Z" fill="#000000" fill-rule="nonzero" fill-opacity="1" /><path clip-path="url(#clip520)" d="M254.317 464.459 L276.756 464.459 L276.756 469.87 L246.583 469.87 L246.583 464.459 Q250.243 460.672 256.545 454.306 Q262.879 447.909 264.502 446.062 Q267.589 442.593 268.799 440.206 Q270.04 437.787 270.04 435.464 Q270.04 431.676 267.367 429.289 Q264.725 426.902 260.46 426.902 Q257.436 426.902 254.062 427.952 Q250.72 429.002 246.901 431.135 L246.901 424.642 Q250.784 423.082 254.158 422.287 Q257.532 421.491 260.332 421.491 Q267.717 421.491 272.109 425.183 Q276.501 428.875 276.501 435.05 Q276.501 437.978 275.387 440.62 Q274.305 443.23 271.409 446.795 Q270.613 447.718 266.348 452.142 Q262.083 456.534 254.317 464.459 Z" fill="#000000" fill-rule="nonzero" fill-opacity="1" /><path clip-path="url(#clip520)" d="M321.305 544.154 Q325.92 545.14 328.498 548.26 Q331.108 551.379 331.108 555.962 Q331.108 562.996 326.27 566.848 Q321.432 570.699 312.52 570.699 Q309.529 570.699 306.346 570.094 Q303.195 569.521 299.821 568.343 L299.821 562.137 Q302.494 563.696 305.677 564.492 Q308.86 565.288 312.329 565.288 Q318.377 565.288 321.528 562.901 Q324.711 560.514 324.711 555.962 Q324.711 551.761 321.751 549.405 Q318.822 547.018 313.571 547.018 L308.033 547.018 L308.033 541.735 L313.825 541.735 Q318.568 541.735 321.082 539.857 Q323.597 537.947 323.597 534.382 Q323.597 530.722 320.987 528.781 Q318.409 526.807 313.571 526.807 Q310.929 526.807 307.905 527.38 Q304.882 527.953 301.253 529.163 L301.253 523.433 Q304.913 522.415 308.096 521.906 Q311.311 521.396 314.144 521.396 Q321.464 521.396 325.729 524.738 Q329.994 528.049 329.994 533.714 Q329.994 537.661 327.734 540.398 Q325.475 543.103 321.305 544.154 Z" fill="#000000" fill-rule="nonzero" fill-opacity="1" /><path clip-path="url(#clip520)" d="M603.949 182.031 L587.716 207.398 L603.949 207.398 L603.949 182.031 M602.262 176.429 L610.346 176.429 L610.346 207.398 L617.126 207.398 L617.126 212.745 L610.346 212.745 L610.346 223.949 L603.949 223.949 L603.949 212.745 L582.496 212.745 L582.496 206.539 L602.262 176.429 Z" fill="#000000" fill-rule="nonzero" fill-opacity="1" /><path clip-path="url(#clip520)" d="M501.908 107.264 L527.148 107.264 L527.148 112.674 L507.796 112.674 L507.796 124.324 Q509.196 123.846 510.597 123.623 Q511.997 123.369 513.398 123.369 Q521.355 123.369 526.002 127.729 Q530.649 132.09 530.649 139.538 Q530.649 147.208 525.874 151.473 Q521.1 155.707 512.411 155.707 Q509.419 155.707 506.3 155.197 Q503.213 154.688 499.902 153.67 L499.902 147.208 Q502.767 148.768 505.823 149.532 Q508.878 150.296 512.284 150.296 Q517.79 150.296 521.005 147.399 Q524.219 144.503 524.219 139.538 Q524.219 134.573 521.005 131.676 Q517.79 128.78 512.284 128.78 Q509.706 128.78 507.127 129.353 Q504.581 129.926 501.908 131.135 L501.908 107.264 Z" fill="#000000" fill-rule="nonzero" fill-opacity="1" /><path clip-path="url(#clip520)" d="M331.392 189.942 Q327.063 189.942 324.517 192.902 Q322.002 195.862 322.002 201.018 Q322.002 206.142 324.517 209.134 Q327.063 212.094 331.392 212.094 Q335.72 212.094 338.235 209.134 Q340.781 206.142 340.781 201.018 Q340.781 195.862 338.235 192.902 Q335.72 189.942 331.392 189.942 M344.155 169.794 L344.155 175.651 Q341.736 174.505 339.253 173.9 Q336.802 173.295 334.384 173.295 Q328.018 173.295 324.644 177.592 Q321.302 181.889 320.825 190.578 Q322.702 187.809 325.535 186.345 Q328.368 184.849 331.774 184.849 Q338.935 184.849 343.073 189.21 Q347.242 193.538 347.242 201.018 Q347.242 208.339 342.914 212.763 Q338.585 217.187 331.392 217.187 Q323.148 217.187 318.788 210.885 Q314.427 204.551 314.427 192.552 Q314.427 181.284 319.774 174.6 Q325.121 167.885 334.129 167.885 Q336.548 167.885 338.999 168.362 Q341.481 168.839 344.155 169.794 Z" fill="#000000" fill-rule="nonzero" fill-opacity="1" /><path clip-path="url(#clip520)" d="M423.148 191.799 L453.703 191.799 L453.703 194.536 L436.452 239.319 L429.736 239.319 L445.969 197.21 L423.148 197.21 L423.148 191.799 Z" fill="#000000" fill-rule="nonzero" fill-opacity="1" /><path clip-path="url(#clip520)" d="M653.606 539.524 Q649.023 539.524 646.381 541.975 Q643.771 544.426 643.771 548.723 Q643.771 553.02 646.381 555.47 Q649.023 557.921 653.606 557.921 Q658.19 557.921 660.831 555.47 Q663.473 552.988 663.473 548.723 Q663.473 544.426 660.831 541.975 Q658.221 539.524 653.606 539.524 M647.177 536.787 Q643.039 535.769 640.716 532.936 Q638.424 530.103 638.424 526.029 Q638.424 520.332 642.466 517.022 Q646.54 513.711 653.606 513.711 Q660.704 513.711 664.746 517.022 Q668.789 520.332 668.789 526.029 Q668.789 530.103 666.465 532.936 Q664.173 535.769 660.067 536.787 Q664.714 537.869 667.293 541.02 Q669.903 544.171 669.903 548.723 Q669.903 555.63 665.669 559.322 Q661.468 563.014 653.606 563.014 Q645.745 563.014 641.511 559.322 Q637.31 555.63 637.31 548.723 Q637.31 544.171 639.92 541.02 Q642.53 537.869 647.177 536.787 M644.822 526.634 Q644.822 530.326 647.113 532.395 Q649.437 534.464 653.606 534.464 Q657.744 534.464 660.067 532.395 Q662.423 530.326 662.423 526.634 Q662.423 522.942 660.067 520.873 Q657.744 518.804 653.606 518.804 Q649.437 518.804 647.113 520.873 Q644.822 522.942 644.822 526.634 Z" fill="#000000" fill-rule="nonzero" fill-opacity="1" /><path clip-path="url(#clip520)" d="M509.624 707.12 L509.624 701.263 Q512.043 702.409 514.526 703.014 Q517.009 703.619 519.396 703.619 Q525.762 703.619 529.104 699.354 Q532.477 695.057 532.955 686.336 Q531.109 689.073 528.276 690.537 Q525.443 692.001 522.006 692.001 Q514.876 692.001 510.707 687.704 Q506.569 683.376 506.569 675.896 Q506.569 668.575 510.898 664.151 Q515.226 659.727 522.42 659.727 Q530.663 659.727 534.992 666.061 Q539.352 672.363 539.352 684.394 Q539.352 695.63 534.005 702.345 Q528.69 709.029 519.682 709.029 Q517.263 709.029 514.781 708.552 Q512.298 708.075 509.624 707.12 M522.42 686.972 Q526.748 686.972 529.263 684.012 Q531.809 681.052 531.809 675.896 Q531.809 670.772 529.263 667.812 Q526.748 664.82 522.42 664.82 Q518.091 664.82 515.545 667.812 Q513.03 670.772 513.03 675.896 Q513.03 681.052 515.545 684.012 Q518.091 686.972 522.42 686.972 Z" fill="#000000" fill-rule="nonzero" fill-opacity="1" /><path clip-path="url(#clip520)" d="M815.748 784.252 L1584.25 784.252 L1584.25 15.748 L815.748 15.748  Z" fill="#f2f2f2" fill-rule="evenodd" fill-opacity="1"/>
<defs>
  <clipPath id="clip523">
    <rect x="815" y="15" width="770" height="770"/>
  </clipPath>
</defs>
<polyline clip-path="url(#clip523)" style="stroke:#ff0000; stroke-linecap:round; stroke-linejoin:round; stroke-width:4; stroke-opacity:1; fill:none" points="1200,54.1732 1204.35,54.2006 1208.71,54.2829 1213.06,54.4199 1217.41,54.6118 1221.76,54.8584 1226.1,55.1597 1230.44,55.5157 1234.78,55.9263 1239.11,56.3915 1243.43,56.9111 1247.75,57.4851 1252.06,58.1135 1256.36,58.796 1260.65,59.5327 1264.93,60.3233 1269.2,61.1677 1273.46,62.0659 1277.71,63.0177 1281.95,64.0229 1286.17,65.0814 1290.38,66.1929 1294.58,67.3574 1298.76,68.5747 1302.92,69.8444 1307.07,71.1665 1311.21,72.5408 1315.32,73.967 1319.42,75.4448 1323.49,76.9741 1327.55,78.5547 1331.59,80.1862 1335.6,81.8684 1339.6,83.601 1343.57,85.3838 1347.52,87.2165 1351.45,89.0988 1355.35,91.0303 1359.23,93.0109 1363.08,95.0401 1366.91,97.1177 1370.71,99.2433 1374.48,101.417 1378.23,103.637 1381.95,105.905 1385.63,108.219 1389.29,110.579 1392.92,112.986 1396.52,115.438 1400.09,117.935 1403.62,120.476 1407.13,123.062 1410.6,125.692 1414.04,128.366 1417.44,131.082 1420.81,133.841 1424.14,136.643 1427.44,139.486 1430.7,142.37 1433.93,145.296 1437.12,148.261 1440.27,151.267 1443.38,154.312 1446.45,157.396 1449.49,160.518 1452.48,163.678 1455.44,166.876 1458.35,170.111 1461.23,173.382 1464.06,176.689 1466.85,180.032 1469.6,183.409 1472.31,186.821 1474.97,190.267 1477.59,193.745 1480.16,197.257 1482.69,200.801 1485.18,204.376 1487.62,207.982 1490.01,211.619 1492.36,215.285 1494.67,218.981 1496.92,222.706 1499.13,226.458 1501.29,230.239 1503.41,234.046 1505.47,237.879 1507.49,241.738 1509.46,245.622 1511.38,249.531 1513.25,253.464 1515.07,257.419 1516.84,261.398 1518.56,265.398 1520.23,269.42 1521.85,273.462 1523.41,277.525 1524.93,281.607 1526.39,285.707 1527.81,289.826 1529.17,293.962 1530.48,298.115 1531.73,302.285 1532.94,306.469 1534.09,310.669 1535.19,314.882 1536.23,319.11 1537.23,323.35 1538.16,327.602 1539.05,331.865 1539.88,336.14 1540.66,340.424 1541.38,344.718 1542.05,349.021 1542.66,353.332 1543.22,357.65 1543.73,361.975 1544.18,366.306 1544.58,370.643 1544.92,374.984 1545.21,379.328 1545.44,383.677 1545.62,388.028 1545.74,392.38 1545.81,396.734 1545.83,401.089 1545.78,405.443 1545.69,409.796 1545.54,414.148 1545.33,418.498 1545.07,422.844 1544.76,427.188 1544.39,431.526 1543.96,435.86 1543.48,440.188 1542.95,444.51 1542.36,448.824 1541.72,453.131 1541.02,457.43 1540.27,461.719 1539.47,465.999 1538.61,470.268 1537.7,474.526 1536.74,478.772 1535.72,483.006 1534.65,487.226 1533.52,491.433 1532.34,495.625 1531.11,499.802 1529.83,503.963 1528.49,508.108 1527.11,512.236 1525.67,516.345 1524.18,520.437 1522.64,524.509 1521.04,528.561 1519.4,532.594 1517.7,536.605 1515.96,540.594 1514.16,544.561 1512.32,548.506 1510.42,552.426 1508.48,556.323 1506.49,560.194 1504.45,564.041 1502.36,567.861 1500.22,571.655 1498.03,575.421 1495.8,579.16 1493.52,582.87 1491.2,586.552 1488.82,590.203 1486.41,593.825 1483.94,597.416 1481.43,600.975 1478.88,604.503 1476.28,607.998 1473.64,611.46 1470.96,614.889 1468.23,618.284 1465.46,621.644 1462.65,624.969 1459.8,628.258 1456.9,631.511 1453.97,634.727 1450.99,637.907 1447.98,641.048 1444.92,644.151 1441.83,647.216 1438.7,650.241 1435.53,653.227 1432.32,656.172 1429.07,659.077 1425.79,661.941 1422.48,664.763 1419.13,667.543 1415.74,670.281 1412.32,672.976 1408.87,675.628 1405.38,678.236 1401.86,680.8 1398.31,683.319 1394.73,685.794 1391.11,688.223 1387.47,690.607 1383.79,692.944 1380.09,695.235 1376.36,697.479 1372.6,699.676 1368.81,701.826 1365,703.927 1361.16,705.981 1357.29,707.986 1353.4,709.942 1349.49,711.849 1345.55,713.706 1341.59,715.514 1337.6,717.272 1333.6,718.979 1329.57,720.636 1325.52,722.242 1321.46,723.797 1317.37,725.301 1313.26,726.753 1309.14,728.153 1305,729.501 1300.84,730.797 1296.67,732.041 1292.48,733.231 1288.28,734.369 1284.06,735.455 1279.83,736.486 1275.59,737.465 1271.33,738.39 1267.07,739.261 1262.79,740.079 1258.5,740.842 1254.21,741.552 1249.9,742.207 1245.59,742.809 1241.27,743.356 1236.94,743.848 1232.61,744.286 1228.27,744.669 1223.93,744.998 1219.58,745.272 1215.24,745.491 1210.88,745.655 1206.53,745.765 1202.18,745.82 1197.82,745.82 1193.47,745.765 1189.12,745.655 1184.76,745.491 1180.42,745.272 1176.07,744.998 1171.73,744.669 1167.39,744.286 1163.06,743.848 1158.73,743.356 1154.41,742.809 1150.1,742.207 1145.79,741.552 1141.5,740.842 1137.21,740.079 1132.93,739.261 1128.67,738.39 1124.41,737.465 1120.17,736.486 1115.94,735.455 1111.72,734.369 1107.52,733.231 1103.33,732.041 1099.16,730.797 1095,729.501 1090.86,728.153 1086.74,726.753 1082.63,725.301 1078.54,723.797 1074.48,722.242 1070.43,720.636 1066.4,718.979 1062.4,717.272 1058.41,715.514 1054.45,713.706 1050.51,711.849 1046.6,709.942 1042.71,707.986 1038.84,705.981 1035,703.927 1031.19,701.826 1027.4,699.676 1023.64,697.479 1019.91,695.235 1016.21,692.944 1012.53,690.607 1008.89,688.223 1005.27,685.794 1001.69,683.319 998.14,680.8 994.62,678.236 991.133,675.628 987.679,672.976 984.259,670.281 980.873,667.543 977.522,664.763 974.206,661.941 970.925,659.077 967.681,656.172 964.474,653.227 961.304,650.241 958.173,647.216 955.079,644.151 952.024,641.048 949.009,637.907 946.033,634.727 943.098,631.511 940.203,628.258 937.35,624.969 934.538,621.644 931.768,618.284 929.041,614.889 926.357,611.46 923.716,607.998 921.119,604.503 918.566,600.975 916.058,597.416 913.595,593.825 911.177,590.203 908.805,586.552 906.479,582.87 904.2,579.16 901.967,575.421 899.782,571.655 897.645,567.861 895.555,564.041 893.514,560.194 891.521,556.323 889.577,552.426 887.682,548.506 885.837,544.561 884.042,540.594 882.297,536.605 880.602,532.594 878.958,528.561 877.364,524.509 875.822,520.437 874.332,516.345 872.892,512.236 871.505,508.108 870.17,503.963 868.887,499.802 867.657,495.625 866.479,491.433 865.354,487.226 864.283,483.006 863.264,478.772 862.299,474.526 861.387,470.268 860.529,465.999 859.725,461.719 858.975,457.43 858.279,453.131 857.637,448.824 857.05,444.51 856.516,440.188 856.037,435.86 855.613,431.526 855.244,427.188 854.929,422.844 854.668,418.498 854.463,414.148 854.312,409.796 854.216,405.443 854.175,401.089 854.189,396.734 854.257,392.38 854.381,388.028 854.559,383.677 854.792,379.328 855.079,374.984 855.422,370.643 855.819,366.306 856.27,361.975 856.776,357.65 857.337,353.332 857.951,349.021 858.62,344.718 859.343,340.424 860.121,336.14 860.952,331.865 861.836,327.602 862.775,323.35 863.767,319.11 864.812,314.882 865.91,310.669 867.061,306.469 868.265,302.285 869.522,298.115 870.831,293.962 872.192,289.826 873.606,285.707 875.071,281.607 876.587,277.525 878.155,273.462 879.774,269.42 881.443,265.398 883.163,261.398 884.933,257.419 886.754,253.464 888.624,249.531 890.543,245.622 892.511,241.738 894.528,237.879 896.594,234.046 898.707,230.239 900.869,226.458 903.078,222.706 905.333,218.981 907.636,215.285 909.985,211.619 912.38,207.982 914.821,204.376 917.306,200.801 919.837,197.257 922.412,193.745 925.031,190.267 927.693,186.821 930.399,183.409 933.148,180.032 935.939,176.689 938.771,173.382 941.645,170.111 944.56,166.876 947.516,163.678 950.512,160.518 953.547,157.396 956.621,154.312 959.734,151.267 962.885,148.261 966.073,145.296 969.299,142.37 972.561,139.486 975.859,136.643 979.193,133.841 982.562,131.082 985.965,128.366 989.402,125.692 992.873,123.062 996.376,120.476 999.912,117.935 1003.48,115.438 1007.08,112.986 1010.71,110.579 1014.37,108.219 1018.05,105.905 1021.77,103.637 1025.52,101.417 1029.29,99.2433 1033.09,97.1177 1036.92,95.0401 1040.77,93.0109 1044.65,91.0303 1048.55,89.0988 1052.48,87.2165 1056.43,85.3838 1060.4,83.601 1064.4,81.8684 1068.41,80.1862 1072.45,78.5547 1076.51,76.9741 1080.58,75.4448 1084.68,73.967 1088.79,72.5408 1092.93,71.1665 1097.08,69.8444 1101.24,68.5747 1105.42,67.3574 1109.62,66.1929 1113.83,65.0814 1118.05,64.0229 1122.29,63.0177 1126.54,62.0659 1130.8,61.1677 1135.07,60.3233 1139.35,59.5327 1143.64,58.796 1147.94,58.1135 1152.25,57.4851 1156.57,56.9111 1160.89,56.3915 1165.22,55.9263 1169.56,55.5157 1173.9,55.1597 1178.24,54.8584 1182.59,54.6118 1186.94,54.4199 1191.29,54.2829 1195.65,54.2006 1200,54.1732 "/>
<circle clip-path="url(#clip523)" cx="1107.78" cy="438.425" r="18" fill="#009af9" fill-rule="evenodd" fill-opacity="1" stroke="none"/>
<circle clip-path="url(#clip523)" cx="1153.89" cy="507.591" r="18" fill="#009af9" fill-rule="evenodd" fill-opacity="1" stroke="none"/>
<circle clip-path="url(#clip523)" cx="1361.39" cy="238.614" r="18" fill="#009af9" fill-rule="evenodd" fill-opacity="1" stroke="none"/>
<circle clip-path="url(#clip523)" cx="1307.59" cy="184.819" r="18" fill="#009af9" fill-rule="evenodd" fill-opacity="1" stroke="none"/>
<circle clip-path="url(#clip523)" cx="1169.26" cy="230.929" r="18" fill="#009af9" fill-rule="evenodd" fill-opacity="1" stroke="none"/>
<circle clip-path="url(#clip523)" cx="1246.11" cy="269.354" r="18" fill="#009af9" fill-rule="evenodd" fill-opacity="1" stroke="none"/>
<circle clip-path="url(#clip523)" cx="1445.92" cy="592.126" r="18" fill="#009af9" fill-rule="evenodd" fill-opacity="1" stroke="none"/>
<circle clip-path="url(#clip523)" cx="1369.07" cy="668.976" r="18" fill="#009af9" fill-rule="evenodd" fill-opacity="1" stroke="none"/>
<circle clip-path="url(#clip523)" cx="1200" cy="400" r="18" fill="#ff0000" fill-rule="evenodd" fill-opacity="1" stroke="none"/>
<path clip-path="url(#clip523)" d="M1353.7 672.034 L1356.04 677.683 L1360.36 682.007 L1366.01 684.346 L1372.13 684.346 L1377.78 682.007 L1456.99 602.79 L1459.17 600.446 L1461.29 595.033 L1461.29 589.069 L1458.95 583.42 L1454.63 579.096 L1448.98 576.756 L1443.01 576.756 L1437.6 578.88 L1435.26 581.053 L1356.04 660.27 L1353.7 665.919 L1353.7 672.034 L1353.7 672.034  Z" fill="#0000ff" fill-rule="evenodd" fill-opacity="0.1"/>
<polyline clip-path="url(#clip523)" style="stroke:#000000; stroke-linecap:round; stroke-linejoin:round; stroke-width:4; stroke-opacity:0.1; fill:none" points="1353.7,672.034 1356.04,677.683 1360.36,682.007 1366.01,684.346 1372.13,684.346 1377.78,682.007 1456.99,602.79 1459.17,600.446 1461.29,595.033 1461.29,589.069 1458.95,583.42 1454.63,579.096 1448.98,576.756 1443.01,576.756 1437.6,578.88 1435.26,581.053 1356.04,660.27 1353.7,665.919 1353.7,672.034 "/>
<path clip-path="url(#clip523)" d="M1092.41 442.846 L1095 446.978 L1141.28 516.378 L1143.63 519.613 L1150.2 522.961 L1156.95 522.961 L1162.6 520.621 L1166.92 516.297 L1169.26 510.648 L1169.26 503.169 L1166.67 499.037 L1120.39 429.638 L1118.04 426.402 L1111.47 423.055 L1104.72 423.055 L1099.07 425.395 L1094.75 429.719 L1092.41 435.368 L1092.41 442.846 L1092.41 442.846  Z" fill="#0000ff" fill-rule="evenodd" fill-opacity="0.1"/>
<polyline clip-path="url(#clip523)" style="stroke:#000000; stroke-linecap:round; stroke-linejoin:round; stroke-width:4; stroke-opacity:0.1; fill:none" points="1092.41,442.846 1095,446.978 1141.28,516.378 1143.63,519.613 1150.2,522.961 1156.95,522.961 1162.6,520.621 1166.92,516.297 1169.26,510.648 1169.26,503.169 1166.67,499.037 1120.39,429.638 1118.04,426.402 1111.47,423.055 1104.72,423.055 1099.07,425.395 1094.75,429.719 1092.41,435.368 1092.41,442.846 "/>
<path clip-path="url(#clip523)" d="M1153.89 235.029 L1157.97 242.14 L1161.94 244.454 L1237.83 282.428 L1242.62 284.724 L1248.09 284.724 L1360.73 255.144 L1371.11 251.481 L1376.76 243.502 L1376.76 235.763 L1374.71 230.44 L1372.54 228.027 L1316.3 171.789 L1310.65 169.449 L1305.14 169.449 L1174.69 212.204 L1159.18 218.409 L1153.89 226.215 L1153.89 235.029 L1153.89 235.029  Z" fill="#0000ff" fill-rule="evenodd" fill-opacity="0.1"/>
<polyline clip-path="url(#clip523)" style="stroke:#000000; stroke-linecap:round; stroke-linejoin:round; stroke-width:4; stroke-opacity:0.1; fill:none" points="1153.89,235.029 1157.97,242.14 1161.94,244.454 1237.83,282.428 1242.62,284.724 1248.09,284.724 1360.73,255.144 1371.11,251.481 1376.76,243.502 1376.76,235.763 1374.71,230.44 1372.54,228.027 1316.3,171.789 1310.65,169.449 1305.14,169.449 1174.69,212.204 1159.18,218.409 1153.89,226.215 1153.89,235.029 "/>
<path clip-path="url(#clip520)" d="M1148.35 379.924 L1158.85 379.924 L1158.85 343.671 L1147.43 345.963 L1147.43 340.106 L1158.79 337.815 L1165.22 337.815 L1165.22 379.924 L1175.72 379.924 L1175.72 385.335 L1148.35 385.335 L1148.35 379.924 Z" fill="#000000" fill-rule="nonzero" fill-opacity="1" /><path clip-path="url(#clip520)" d="M1054.32 464.459 L1076.76 464.459 L1076.76 469.87 L1046.58 469.87 L1046.58 464.459 Q1050.24 460.672 1056.54 454.306 Q1062.88 447.909 1064.5 446.062 Q1067.59 442.593 1068.8 440.206 Q1070.04 437.787 1070.04 435.464 Q1070.04 431.676 1067.37 429.289 Q1064.72 426.902 1060.46 426.902 Q1057.44 426.902 1054.06 427.952 Q1050.72 429.002 1046.9 431.135 L1046.9 424.642 Q1050.78 423.082 1054.16 422.287 Q1057.53 421.491 1060.33 421.491 Q1067.72 421.491 1072.11 425.183 Q1076.5 428.875 1076.5 435.05 Q1076.5 437.978 1075.39 440.62 Q1074.31 443.23 1071.41 446.795 Q1070.61 447.718 1066.35 452.142 Q1062.08 456.534 1054.32 464.459 Z" fill="#000000" fill-rule="nonzero" fill-opacity="1" /><path clip-path="url(#clip520)" d="M1121.31 544.154 Q1125.92 545.14 1128.5 548.26 Q1131.11 551.379 1131.11 555.962 Q1131.11 562.996 1126.27 566.848 Q1121.43 570.699 1112.52 570.699 Q1109.53 570.699 1106.35 570.094 Q1103.19 569.521 1099.82 568.343 L1099.82 562.137 Q1102.49 563.696 1105.68 564.492 Q1108.86 565.288 1112.33 565.288 Q1118.38 565.288 1121.53 562.901 Q1124.71 560.514 1124.71 555.962 Q1124.71 551.761 1121.75 549.405 Q1118.82 547.018 1113.57 547.018 L1108.03 547.018 L1108.03 541.735 L1113.83 541.735 Q1118.57 541.735 1121.08 539.857 Q1123.6 537.947 1123.6 534.382 Q1123.6 530.722 1120.99 528.781 Q1118.41 526.807 1113.57 526.807 Q1110.93 526.807 1107.91 527.38 Q1104.88 527.953 1101.25 529.163 L1101.25 523.433 Q1104.91 522.415 1108.1 521.906 Q1111.31 521.396 1114.14 521.396 Q1121.46 521.396 1125.73 524.738 Q1129.99 528.049 1129.99 533.714 Q1129.99 537.661 1127.73 540.398 Q1125.47 543.103 1121.31 544.154 Z" fill="#000000" fill-rule="nonzero" fill-opacity="1" /><path clip-path="url(#clip520)" d="M1403.95 182.031 L1387.72 207.398 L1403.95 207.398 L1403.95 182.031 M1402.26 176.429 L1410.35 176.429 L1410.35 207.398 L1417.13 207.398 L1417.13 212.745 L1410.35 212.745 L1410.35 223.949 L1403.95 223.949 L1403.95 212.745 L1382.5 212.745 L1382.5 206.539 L1402.26 176.429 Z" fill="#000000" fill-rule="nonzero" fill-opacity="1" /><path clip-path="url(#clip520)" d="M1301.91 107.264 L1327.15 107.264 L1327.15 112.674 L1307.8 112.674 L1307.8 124.324 Q1309.2 123.846 1310.6 123.623 Q1312 123.369 1313.4 123.369 Q1321.35 123.369 1326 127.729 Q1330.65 132.09 1330.65 139.538 Q1330.65 147.208 1325.87 151.473 Q1321.1 155.707 1312.41 155.707 Q1309.42 155.707 1306.3 155.197 Q1303.21 154.688 1299.9 153.67 L1299.9 147.208 Q1302.77 148.768 1305.82 149.532 Q1308.88 150.296 1312.28 150.296 Q1317.79 150.296 1321 147.399 Q1324.22 144.503 1324.22 139.538 Q1324.22 134.573 1321 131.676 Q1317.79 128.78 1312.28 128.78 Q1309.71 128.78 1307.13 129.353 Q1304.58 129.926 1301.91 131.135 L1301.91 107.264 Z" fill="#000000" fill-rule="nonzero" fill-opacity="1" /><path clip-path="url(#clip520)" d="M1131.39 189.942 Q1127.06 189.942 1124.52 192.902 Q1122 195.862 1122 201.018 Q1122 206.142 1124.52 209.134 Q1127.06 212.094 1131.39 212.094 Q1135.72 212.094 1138.23 209.134 Q1140.78 206.142 1140.78 201.018 Q1140.78 195.862 1138.23 192.902 Q1135.72 189.942 1131.39 189.942 M1144.15 169.794 L1144.15 175.651 Q1141.74 174.505 1139.25 173.9 Q1136.8 173.295 1134.38 173.295 Q1128.02 173.295 1124.64 177.592 Q1121.3 181.889 1120.82 190.578 Q1122.7 187.809 1125.54 186.345 Q1128.37 184.849 1131.77 184.849 Q1138.94 184.849 1143.07 189.21 Q1147.24 193.538 1147.24 201.018 Q1147.24 208.339 1142.91 212.763 Q1138.58 217.187 1131.39 217.187 Q1123.15 217.187 1118.79 210.885 Q1114.43 204.551 1114.43 192.552 Q1114.43 181.284 1119.77 174.6 Q1125.12 167.885 1134.13 167.885 Q1136.55 167.885 1139 168.362 Q1141.48 168.839 1144.15 169.794 Z" fill="#000000" fill-rule="nonzero" fill-opacity="1" /><path clip-path="url(#clip520)" d="M1223.15 191.799 L1253.7 191.799 L1253.7 194.536 L1236.45 239.319 L1229.74 239.319 L1245.97 197.21 L1223.15 197.21 L1223.15 191.799 Z" fill="#000000" fill-rule="nonzero" fill-opacity="1" /><path clip-path="url(#clip520)" d="M1453.61 539.524 Q1449.02 539.524 1446.38 541.975 Q1443.77 544.426 1443.77 548.723 Q1443.77 553.02 1446.38 555.47 Q1449.02 557.921 1453.61 557.921 Q1458.19 557.921 1460.83 555.47 Q1463.47 552.988 1463.47 548.723 Q1463.47 544.426 1460.83 541.975 Q1458.22 539.524 1453.61 539.524 M1447.18 536.787 Q1443.04 535.769 1440.72 532.936 Q1438.42 530.103 1438.42 526.029 Q1438.42 520.332 1442.47 517.022 Q1446.54 513.711 1453.61 513.711 Q1460.7 513.711 1464.75 517.022 Q1468.79 520.332 1468.79 526.029 Q1468.79 530.103 1466.47 532.936 Q1464.17 535.769 1460.07 536.787 Q1464.71 537.869 1467.29 541.02 Q1469.9 544.171 1469.9 548.723 Q1469.9 555.63 1465.67 559.322 Q1461.47 563.014 1453.61 563.014 Q1445.74 563.014 1441.51 559.322 Q1437.31 555.63 1437.31 548.723 Q1437.31 544.171 1439.92 541.02 Q1442.53 537.869 1447.18 536.787 M1444.82 526.634 Q1444.82 530.326 1447.11 532.395 Q1449.44 534.464 1453.61 534.464 Q1457.74 534.464 1460.07 532.395 Q1462.42 530.326 1462.42 526.634 Q1462.42 522.942 1460.07 520.873 Q1457.74 518.804 1453.61 518.804 Q1449.44 518.804 1447.11 520.873 Q1444.82 522.942 1444.82 526.634 Z" fill="#000000" fill-rule="nonzero" fill-opacity="1" /><path clip-path="url(#clip520)" d="M1309.62 707.12 L1309.62 701.263 Q1312.04 702.409 1314.53 703.014 Q1317.01 703.619 1319.4 703.619 Q1325.76 703.619 1329.1 699.354 Q1332.48 695.057 1332.95 686.336 Q1331.11 689.073 1328.28 690.537 Q1325.44 692.001 1322.01 692.001 Q1314.88 692.001 1310.71 687.704 Q1306.57 683.376 1306.57 675.896 Q1306.57 668.575 1310.9 664.151 Q1315.23 659.727 1322.42 659.727 Q1330.66 659.727 1334.99 666.061 Q1339.35 672.363 1339.35 684.394 Q1339.35 695.63 1334.01 702.345 Q1328.69 709.029 1319.68 709.029 Q1317.26 709.029 1314.78 708.552 Q1312.3 708.075 1309.62 707.12 M1322.42 686.972 Q1326.75 686.972 1329.26 684.012 Q1331.81 681.052 1331.81 675.896 Q1331.81 670.772 1329.26 667.812 Q1326.75 664.82 1322.42 664.82 Q1318.09 664.82 1315.54 667.812 Q1313.03 670.772 1313.03 675.896 Q1313.03 681.052 1315.54 684.012 Q1318.09 686.972 1322.42 686.972 Z" fill="#000000" fill-rule="nonzero" fill-opacity="1" /><path clip-path="url(#clip520)" d="M1615.75 784.252 L2384.25 784.252 L2384.25 15.748 L1615.75 15.748  Z" fill="#f2f2f2" fill-rule="evenodd" fill-opacity="1"/>
<defs>
  <clipPath id="clip524">
    <rect x="1615" y="15" width="770" height="770"/>
  </clipPath>
</defs>
<polyline clip-path="url(#clip524)" style="stroke:#ff0000; stroke-linecap:round; stroke-linejoin:round; stroke-width:4; stroke-opacity:1; fill:none" points="2000,54.1732 2004.35,54.2006 2008.71,54.2829 2013.06,54.4199 2017.41,54.6118 2021.76,54.8584 2026.1,55.1597 2030.44,55.5157 2034.78,55.9263 2039.11,56.3915 2043.43,56.9111 2047.75,57.4851 2052.06,58.1135 2056.36,58.796 2060.65,59.5327 2064.93,60.3233 2069.2,61.1677 2073.46,62.0659 2077.71,63.0177 2081.95,64.0229 2086.17,65.0814 2090.38,66.1929 2094.58,67.3574 2098.76,68.5747 2102.92,69.8444 2107.07,71.1665 2111.21,72.5408 2115.32,73.967 2119.42,75.4448 2123.49,76.9741 2127.55,78.5547 2131.59,80.1862 2135.6,81.8684 2139.6,83.601 2143.57,85.3838 2147.52,87.2165 2151.45,89.0988 2155.35,91.0303 2159.23,93.0109 2163.08,95.0401 2166.91,97.1177 2170.71,99.2433 2174.48,101.417 2178.23,103.637 2181.95,105.905 2185.63,108.219 2189.29,110.579 2192.92,112.986 2196.52,115.438 2200.09,117.935 2203.62,120.476 2207.13,123.062 2210.6,125.692 2214.04,128.366 2217.44,131.082 2220.81,133.841 2224.14,136.643 2227.44,139.486 2230.7,142.37 2233.93,145.296 2237.12,148.261 2240.27,151.267 2243.38,154.312 2246.45,157.396 2249.49,160.518 2252.48,163.678 2255.44,166.876 2258.35,170.111 2261.23,173.382 2264.06,176.689 2266.85,180.032 2269.6,183.409 2272.31,186.821 2274.97,190.267 2277.59,193.745 2280.16,197.257 2282.69,200.801 2285.18,204.376 2287.62,207.982 2290.01,211.619 2292.36,215.285 2294.67,218.981 2296.92,222.706 2299.13,226.458 2301.29,230.239 2303.41,234.046 2305.47,237.879 2307.49,241.738 2309.46,245.622 2311.38,249.531 2313.25,253.464 2315.07,257.419 2316.84,261.398 2318.56,265.398 2320.23,269.42 2321.85,273.462 2323.41,277.525 2324.93,281.607 2326.39,285.707 2327.81,289.826 2329.17,293.962 2330.48,298.115 2331.73,302.285 2332.94,306.469 2334.09,310.669 2335.19,314.882 2336.23,319.11 2337.23,323.35 2338.16,327.602 2339.05,331.865 2339.88,336.14 2340.66,340.424 2341.38,344.718 2342.05,349.021 2342.66,353.332 2343.22,357.65 2343.73,361.975 2344.18,366.306 2344.58,370.643 2344.92,374.984 2345.21,379.328 2345.44,383.677 2345.62,388.028 2345.74,392.38 2345.81,396.734 2345.83,401.089 2345.78,405.443 2345.69,409.796 2345.54,414.148 2345.33,418.498 2345.07,422.844 2344.76,427.188 2344.39,431.526 2343.96,435.86 2343.48,440.188 2342.95,444.51 2342.36,448.824 2341.72,453.131 2341.02,457.43 2340.27,461.719 2339.47,465.999 2338.61,470.268 2337.7,474.526 2336.74,478.772 2335.72,483.006 2334.65,487.226 2333.52,491.433 2332.34,495.625 2331.11,499.802 2329.83,503.963 2328.49,508.108 2327.11,512.236 2325.67,516.345 2324.18,520.437 2322.64,524.509 2321.04,528.561 2319.4,532.594 2317.7,536.605 2315.96,540.594 2314.16,544.561 2312.32,548.506 2310.42,552.426 2308.48,556.323 2306.49,560.194 2304.45,564.041 2302.36,567.861 2300.22,571.655 2298.03,575.421 2295.8,579.16 2293.52,582.87 2291.2,586.552 2288.82,590.203 2286.41,593.825 2283.94,597.416 2281.43,600.975 2278.88,604.503 2276.28,607.998 2273.64,611.46 2270.96,614.889 2268.23,618.284 2265.46,621.644 2262.65,624.969 2259.8,628.258 2256.9,631.511 2253.97,634.727 2250.99,637.907 2247.98,641.048 2244.92,644.151 2241.83,647.216 2238.7,650.241 2235.53,653.227 2232.32,656.172 2229.07,659.077 2225.79,661.941 2222.48,664.763 2219.13,667.543 2215.74,670.281 2212.32,672.976 2208.87,675.628 2205.38,678.236 2201.86,680.8 2198.31,683.319 2194.73,685.794 2191.11,688.223 2187.47,690.607 2183.79,692.944 2180.09,695.235 2176.36,697.479 2172.6,699.676 2168.81,701.826 2165,703.927 2161.16,705.981 2157.29,707.986 2153.4,709.942 2149.49,711.849 2145.55,713.706 2141.59,715.514 2137.6,717.272 2133.6,718.979 2129.57,720.636 2125.52,722.242 2121.46,723.797 2117.37,725.301 2113.26,726.753 2109.14,728.153 2105,729.501 2100.84,730.797 2096.67,732.041 2092.48,733.231 2088.28,734.369 2084.06,735.455 2079.83,736.486 2075.59,737.465 2071.33,738.39 2067.07,739.261 2062.79,740.079 2058.5,740.842 2054.21,741.552 2049.9,742.207 2045.59,742.809 2041.27,743.356 2036.94,743.848 2032.61,744.286 2028.27,744.669 2023.93,744.998 2019.58,745.272 2015.24,745.491 2010.88,745.655 2006.53,745.765 2002.18,745.82 1997.82,745.82 1993.47,745.765 1989.12,745.655 1984.76,745.491 1980.42,745.272 1976.07,744.998 1971.73,744.669 1967.39,744.286 1963.06,743.848 1958.73,743.356 1954.41,742.809 1950.1,742.207 1945.79,741.552 1941.5,740.842 1937.21,740.079 1932.93,739.261 1928.67,738.39 1924.41,737.465 1920.17,736.486 1915.94,735.455 1911.72,734.369 1907.52,733.231 1903.33,732.041 1899.16,730.797 1895,729.501 1890.86,728.153 1886.74,726.753 1882.63,725.301 1878.54,723.797 1874.48,722.242 1870.43,720.636 1866.4,718.979 1862.4,717.272 1858.41,715.514 1854.45,713.706 1850.51,711.849 1846.6,709.942 1842.71,707.986 1838.84,705.981 1835,703.927 1831.19,701.826 1827.4,699.676 1823.64,697.479 1819.91,695.235 1816.21,692.944 1812.53,690.607 1808.89,688.223 1805.27,685.794 1801.69,683.319 1798.14,680.8 1794.62,678.236 1791.13,675.628 1787.68,672.976 1784.26,670.281 1780.87,667.543 1777.52,664.763 1774.21,661.941 1770.93,659.077 1767.68,656.172 1764.47,653.227 1761.3,650.241 1758.17,647.216 1755.08,644.151 1752.02,641.048 1749.01,637.907 1746.03,634.727 1743.1,631.511 1740.2,628.258 1737.35,624.969 1734.54,621.644 1731.77,618.284 1729.04,614.889 1726.36,611.46 1723.72,607.998 1721.12,604.503 1718.57,600.975 1716.06,597.416 1713.59,593.825 1711.18,590.203 1708.8,586.552 1706.48,582.87 1704.2,579.16 1701.97,575.421 1699.78,571.655 1697.64,567.861 1695.55,564.041 1693.51,560.194 1691.52,556.323 1689.58,552.426 1687.68,548.506 1685.84,544.561 1684.04,540.594 1682.3,536.605 1680.6,532.594 1678.96,528.561 1677.36,524.509 1675.82,520.437 1674.33,516.345 1672.89,512.236 1671.51,508.108 1670.17,503.963 1668.89,499.802 1667.66,495.625 1666.48,491.433 1665.35,487.226 1664.28,483.006 1663.26,478.772 1662.3,474.526 1661.39,470.268 1660.53,465.999 1659.73,461.719 1658.98,457.43 1658.28,453.131 1657.64,448.824 1657.05,444.51 1656.52,440.188 1656.04,435.86 1655.61,431.526 1655.24,427.188 1654.93,422.844 1654.67,418.498 1654.46,414.148 1654.31,409.796 1654.22,405.443 1654.17,401.089 1654.19,396.734 1654.26,392.38 1654.38,388.028 1654.56,383.677 1654.79,379.328 1655.08,374.984 1655.42,370.643 1655.82,366.306 1656.27,361.975 1656.78,357.65 1657.34,353.332 1657.95,349.021 1658.62,344.718 1659.34,340.424 1660.12,336.14 1660.95,331.865 1661.84,327.602 1662.77,323.35 1663.77,319.11 1664.81,314.882 1665.91,310.669 1667.06,306.469 1668.27,302.285 1669.52,298.115 1670.83,293.962 1672.19,289.826 1673.61,285.707 1675.07,281.607 1676.59,277.525 1678.15,273.462 1679.77,269.42 1681.44,265.398 1683.16,261.398 1684.93,257.419 1686.75,253.464 1688.62,249.531 1690.54,245.622 1692.51,241.738 1694.53,237.879 1696.59,234.046 1698.71,230.239 1700.87,226.458 1703.08,222.706 1705.33,218.981 1707.64,215.285 1709.99,211.619 1712.38,207.982 1714.82,204.376 1717.31,200.801 1719.84,197.257 1722.41,193.745 1725.03,190.267 1727.69,186.821 1730.4,183.409 1733.15,180.032 1735.94,176.689 1738.77,173.382 1741.65,170.111 1744.56,166.876 1747.52,163.678 1750.51,160.518 1753.55,157.396 1756.62,154.312 1759.73,151.267 1762.88,148.261 1766.07,145.296 1769.3,142.37 1772.56,139.486 1775.86,136.643 1779.19,133.841 1782.56,131.082 1785.96,128.366 1789.4,125.692 1792.87,123.062 1796.38,120.476 1799.91,117.935 1803.48,115.438 1807.08,112.986 1810.71,110.579 1814.37,108.219 1818.05,105.905 1821.77,103.637 1825.52,101.417 1829.29,99.2433 1833.09,97.1177 1836.92,95.0401 1840.77,93.0109 1844.65,91.0303 1848.55,89.0988 1852.48,87.2165 1856.43,85.3838 1860.4,83.601 1864.4,81.8684 1868.41,80.1862 1872.45,78.5547 1876.51,76.9741 1880.58,75.4448 1884.68,73.967 1888.79,72.5408 1892.93,71.1665 1897.08,69.8444 1901.24,68.5747 1905.42,67.3574 1909.62,66.1929 1913.83,65.0814 1918.05,64.0229 1922.29,63.0177 1926.54,62.0659 1930.8,61.1677 1935.07,60.3233 1939.35,59.5327 1943.64,58.796 1947.94,58.1135 1952.25,57.4851 1956.57,56.9111 1960.89,56.3915 1965.22,55.9263 1969.56,55.5157 1973.9,55.1597 1978.24,54.8584 1982.59,54.6118 1986.94,54.4199 1991.29,54.2829 1995.65,54.2006 2000,54.1732 "/>
<path clip-path="url(#clip524)" d="M1984.63 404.369 L1987.04 408.269 L2156.12 677.249 L2158.3 680.617 L2165.17 684.346 L2172.13 684.346 L2177.78 682.007 L2256.99 602.79 L2259.17 600.446 L2261.29 595.033 L2261.29 588.61 L2258.23 582.276 L2255.4 580.028 L2009.4 387.84 L2007.33 386.254 L2002.53 384.63 L1996.94 384.63 L1991.29 386.97 L1986.97 391.294 L1984.63 396.943 L1984.63 404.369 L1984.63 404.369  Z" fill="#0000ff" fill-rule="evenodd" fill-opacity="0.1"/>
<polyline clip-path="url(#clip524)" style="stroke:#000000; stroke-linecap:round; stroke-linejoin:round; stroke-width:4; stroke-opacity:0.1; fill:none" points="1984.63,404.369 1987.04,408.269 2156.12,677.249 2158.3,680.617 2165.17,684.346 2172.13,684.346 2177.78,682.007 2256.99,602.79 2259.17,600.446 2261.29,595.033 2261.29,588.61 2258.23,582.276 2255.4,580.028 2009.4,387.84 2007.33,386.254 2002.53,384.63 1996.94,384.63 1991.29,386.97 1986.97,391.294 1984.63,396.943 1984.63,404.369 "/>
<path clip-path="url(#clip524)" d="M1892.41 442.846 L1895 446.978 L1941.28 516.378 L1943.63 519.613 L1950.2 522.961 L1958.26 522.961 L1965.68 518.37 L1967.84 514.062 L2013.18 408.339 L2015.37 403.076 L2015.37 396.943 L2013.03 391.294 L2008.71 386.97 L2003.06 384.63 L1997.01 384.63 L1991.22 386.97 L1901.38 424.442 L1897 426.63 L1892.41 434.059 L1892.41 442.846 L1892.41 442.846  Z" fill="#0000ff" fill-rule="evenodd" fill-opacity="0.1"/>
<polyline clip-path="url(#clip524)" style="stroke:#000000; stroke-linecap:round; stroke-linejoin:round; stroke-width:4; stroke-opacity:0.1; fill:none" points="1892.41,442.846 1895,446.978 1941.28,516.378 1943.63,519.613 1950.2,522.961 1958.26,522.961 1965.68,518.37 1967.84,514.062 2013.18,408.339 2015.37,403.076 2015.37,396.943 2013.03,391.294 2008.71,386.97 2003.06,384.63 1997.01,384.63 1991.22,386.97 1901.38,424.442 1897,426.63 1892.41,434.059 1892.41,442.846 "/>
<path clip-path="url(#clip524)" d="M1953.89 226.215 L1953.89 232.306 L1984.19 400.149 L1985.71 406.222 L1988.51 410.533 L1992.57 413.697 L1997.43 415.37 L2003.06 415.37 L2008.71 413.03 L2172.36 249.38 L2174.53 247.128 L2176.76 241.596 L2176.76 235.763 L2174.71 230.44 L2172.54 228.027 L2116.3 171.789 L2110.65 169.449 L2105.14 169.449 L1974.69 212.204 L1959.18 218.409 L1953.89 226.215 L1953.89 226.215  Z" fill="#0000ff" fill-rule="evenodd" fill-opacity="0.1"/>
<polyline clip-path="url(#clip524)" style="stroke:#000000; stroke-linecap:round; stroke-linejoin:round; stroke-width:4; stroke-opacity:0.1; fill:none" points="1953.89,226.215 1953.89,232.306 1984.19,400.149 1985.71,406.222 1988.51,410.533 1992.57,413.697 1997.43,415.37 2003.06,415.37 2008.71,413.03 2172.36,249.38 2174.53,247.128 2176.76,241.596 2176.76,235.763 2174.71,230.44 2172.54,228.027 2116.3,171.789 2110.65,169.449 2105.14,169.449 1974.69,212.204 1959.18,218.409 1953.89,226.215 "/>
<circle clip-path="url(#clip524)" cx="1907.78" cy="438.425" r="18" fill="#009af9" fill-rule="evenodd" fill-opacity="1" stroke="none"/>
<circle clip-path="url(#clip524)" cx="1953.89" cy="507.591" r="18" fill="#009af9" fill-rule="evenodd" fill-opacity="1" stroke="none"/>
<circle clip-path="url(#clip524)" cx="2161.39" cy="238.614" r="18" fill="#009af9" fill-rule="evenodd" fill-opacity="1" stroke="none"/>
<circle clip-path="url(#clip524)" cx="2107.59" cy="184.819" r="18" fill="#009af9" fill-rule="evenodd" fill-opacity="1" stroke="none"/>
<circle clip-path="url(#clip524)" cx="1969.26" cy="230.929" r="18" fill="#009af9" fill-rule="evenodd" fill-opacity="1" stroke="none"/>
<circle clip-path="url(#clip524)" cx="2046.11" cy="269.354" r="18" fill="#009af9" fill-rule="evenodd" fill-opacity="1" stroke="none"/>
<circle clip-path="url(#clip524)" cx="2245.92" cy="592.126" r="18" fill="#009af9" fill-rule="evenodd" fill-opacity="1" stroke="none"/>
<circle clip-path="url(#clip524)" cx="2169.07" cy="668.976" r="18" fill="#009af9" fill-rule="evenodd" fill-opacity="1" stroke="none"/>
<circle clip-path="url(#clip524)" cx="2000" cy="400" r="18" fill="#ff0000" fill-rule="evenodd" fill-opacity="1" stroke="none"/>
<path clip-path="url(#clip520)" d="M1948.35 379.924 L1958.85 379.924 L1958.85 343.671 L1947.43 345.963 L1947.43 340.106 L1958.79 337.815 L1965.22 337.815 L1965.22 379.924 L1975.72 379.924 L1975.72 385.335 L1948.35 385.335 L1948.35 379.924 Z" fill="#000000" fill-rule="nonzero" fill-opacity="1" /><path clip-path="url(#clip520)" d="M1854.32 464.459 L1876.76 464.459 L1876.76 469.87 L1846.58 469.87 L1846.58 464.459 Q1850.24 460.672 1856.54 454.306 Q1862.88 447.909 1864.5 446.062 Q1867.59 442.593 1868.8 440.206 Q1870.04 437.787 1870.04 435.464 Q1870.04 431.676 1867.37 429.289 Q1864.72 426.902 1860.46 426.902 Q1857.44 426.902 1854.06 427.952 Q1850.72 429.002 1846.9 431.135 L1846.9 424.642 Q1850.78 423.082 1854.16 422.287 Q1857.53 421.491 1860.33 421.491 Q1867.72 421.491 1872.11 425.183 Q1876.5 428.875 1876.5 435.05 Q1876.5 437.978 1875.39 440.62 Q1874.31 443.23 1871.41 446.795 Q1870.61 447.718 1866.35 452.142 Q1862.08 456.534 1854.32 464.459 Z" fill="#000000" fill-rule="nonzero" fill-opacity="1" /><path clip-path="url(#clip520)" d="M1921.31 544.154 Q1925.92 545.14 1928.5 548.26 Q1931.11 551.379 1931.11 555.962 Q1931.11 562.996 1926.27 566.848 Q1921.43 570.699 1912.52 570.699 Q1909.53 570.699 1906.35 570.094 Q1903.19 569.521 1899.82 568.343 L1899.82 562.137 Q1902.49 563.696 1905.68 564.492 Q1908.86 565.288 1912.33 565.288 Q1918.38 565.288 1921.53 562.901 Q1924.71 560.514 1924.71 555.962 Q1924.71 551.761 1921.75 549.405 Q1918.82 547.018 1913.57 547.018 L1908.03 547.018 L1908.03 541.735 L1913.83 541.735 Q1918.57 541.735 1921.08 539.857 Q1923.6 537.947 1923.6 534.382 Q1923.6 530.722 1920.99 528.781 Q1918.41 526.807 1913.57 526.807 Q1910.93 526.807 1907.91 527.38 Q1904.88 527.953 1901.25 529.163 L1901.25 523.433 Q1904.91 522.415 1908.1 521.906 Q1911.31 521.396 1914.14 521.396 Q1921.46 521.396 1925.73 524.738 Q1929.99 528.049 1929.99 533.714 Q1929.99 537.661 1927.73 540.398 Q1925.47 543.103 1921.31 544.154 Z" fill="#000000" fill-rule="nonzero" fill-opacity="1" /><path clip-path="url(#clip520)" d="M2203.95 182.031 L2187.72 207.398 L2203.95 207.398 L2203.95 182.031 M2202.26 176.429 L2210.35 176.429 L2210.35 207.398 L2217.13 207.398 L2217.13 212.745 L2210.35 212.745 L2210.35 223.949 L2203.95 223.949 L2203.95 212.745 L2182.5 212.745 L2182.5 206.539 L2202.26 176.429 Z" fill="#000000" fill-rule="nonzero" fill-opacity="1" /><path clip-path="url(#clip520)" d="M2101.91 107.264 L2127.15 107.264 L2127.15 112.674 L2107.8 112.674 L2107.8 124.324 Q2109.2 123.846 2110.6 123.623 Q2112 123.369 2113.4 123.369 Q2121.35 123.369 2126 127.729 Q2130.65 132.09 2130.65 139.538 Q2130.65 147.208 2125.87 151.473 Q2121.1 155.707 2112.41 155.707 Q2109.42 155.707 2106.3 155.197 Q2103.21 154.688 2099.9 153.67 L2099.9 147.208 Q2102.77 148.768 2105.82 149.532 Q2108.88 150.296 2112.28 150.296 Q2117.79 150.296 2121 147.399 Q2124.22 144.503 2124.22 139.538 Q2124.22 134.573 2121 131.676 Q2117.79 128.78 2112.28 128.78 Q2109.71 128.78 2107.13 129.353 Q2104.58 129.926 2101.91 131.135 L2101.91 107.264 Z" fill="#000000" fill-rule="nonzero" fill-opacity="1" /><path clip-path="url(#clip520)" d="M1931.39 189.942 Q1927.06 189.942 1924.52 192.902 Q1922 195.862 1922 201.018 Q1922 206.142 1924.52 209.134 Q1927.06 212.094 1931.39 212.094 Q1935.72 212.094 1938.23 209.134 Q1940.78 206.142 1940.78 201.018 Q1940.78 195.862 1938.23 192.902 Q1935.72 189.942 1931.39 189.942 M1944.15 169.794 L1944.15 175.651 Q1941.74 174.505 1939.25 173.9 Q1936.8 173.295 1934.38 173.295 Q1928.02 173.295 1924.64 177.592 Q1921.3 181.889 1920.82 190.578 Q1922.7 187.809 1925.54 186.345 Q1928.37 184.849 1931.77 184.849 Q1938.94 184.849 1943.07 189.21 Q1947.24 193.538 1947.24 201.018 Q1947.24 208.339 1942.91 212.763 Q1938.58 217.187 1931.39 217.187 Q1923.15 217.187 1918.79 210.885 Q1914.43 204.551 1914.43 192.552 Q1914.43 181.284 1919.77 174.6 Q1925.12 167.885 1934.13 167.885 Q1936.55 167.885 1939 168.362 Q1941.48 168.839 1944.15 169.794 Z" fill="#000000" fill-rule="nonzero" fill-opacity="1" /><path clip-path="url(#clip520)" d="M2023.15 191.799 L2053.7 191.799 L2053.7 194.536 L2036.45 239.319 L2029.74 239.319 L2045.97 197.21 L2023.15 197.21 L2023.15 191.799 Z" fill="#000000" fill-rule="nonzero" fill-opacity="1" /><path clip-path="url(#clip520)" d="M2253.61 539.524 Q2249.02 539.524 2246.38 541.975 Q2243.77 544.426 2243.77 548.723 Q2243.77 553.02 2246.38 555.47 Q2249.02 557.921 2253.61 557.921 Q2258.19 557.921 2260.83 555.47 Q2263.47 552.988 2263.47 548.723 Q2263.47 544.426 2260.83 541.975 Q2258.22 539.524 2253.61 539.524 M2247.18 536.787 Q2243.04 535.769 2240.72 532.936 Q2238.42 530.103 2238.42 526.029 Q2238.42 520.332 2242.47 517.022 Q2246.54 513.711 2253.61 513.711 Q2260.7 513.711 2264.75 517.022 Q2268.79 520.332 2268.79 526.029 Q2268.79 530.103 2266.47 532.936 Q2264.17 535.769 2260.07 536.787 Q2264.71 537.869 2267.29 541.02 Q2269.9 544.171 2269.9 548.723 Q2269.9 555.63 2265.67 559.322 Q2261.47 563.014 2253.61 563.014 Q2245.74 563.014 2241.51 559.322 Q2237.31 555.63 2237.31 548.723 Q2237.31 544.171 2239.92 541.02 Q2242.53 537.869 2247.18 536.787 M2244.82 526.634 Q2244.82 530.326 2247.11 532.395 Q2249.44 534.464 2253.61 534.464 Q2257.74 534.464 2260.07 532.395 Q2262.42 530.326 2262.42 526.634 Q2262.42 522.942 2260.07 520.873 Q2257.74 518.804 2253.61 518.804 Q2249.44 518.804 2247.11 520.873 Q2244.82 522.942 2244.82 526.634 Z" fill="#000000" fill-rule="nonzero" fill-opacity="1" /><path clip-path="url(#clip520)" d="M2109.62 707.12 L2109.62 701.263 Q2112.04 702.409 2114.53 703.014 Q2117.01 703.619 2119.4 703.619 Q2125.76 703.619 2129.1 699.354 Q2132.48 695.057 2132.95 686.336 Q2131.11 689.073 2128.28 690.537 Q2125.44 692.001 2122.01 692.001 Q2114.88 692.001 2110.71 687.704 Q2106.57 683.376 2106.57 675.896 Q2106.57 668.575 2110.9 664.151 Q2115.23 659.727 2122.42 659.727 Q2130.66 659.727 2134.99 666.061 Q2139.35 672.363 2139.35 684.394 Q2139.35 695.63 2134.01 702.345 Q2128.69 709.029 2119.68 709.029 Q2117.26 709.029 2114.78 708.552 Q2112.3 708.075 2109.62 707.12 M2122.42 686.972 Q2126.75 686.972 2129.26 684.012 Q2131.81 681.052 2131.81 675.896 Q2131.81 670.772 2129.26 667.812 Q2126.75 664.82 2122.42 664.82 Q2118.09 664.82 2115.54 667.812 Q2113.03 670.772 2113.03 675.896 Q2113.03 681.052 2115.54 684.012 Q2118.09 686.972 2122.42 686.972 Z" fill="#000000" fill-rule="nonzero" fill-opacity="1" /></svg>
