<?xml version="1.0" encoding="utf-8"?>
<svg xmlns="http://www.w3.org/2000/svg" xmlns:xlink="http://www.w3.org/1999/xlink" width="1400" height="400" viewBox="0 0 5600 1600">
<defs>
  <clipPath id="clip300">
    <rect x="0" y="0" width="5600" height="1600"/>
  </clipPath>
</defs>
<path clip-path="url(#clip300)" d="M0 1600 L5600 1600 L5600 0 L0 0  Z" fill="#ffffff" fill-rule="evenodd" fill-opacity="1"/>
<defs>
  <clipPath id="clip301">
    <rect x="1120" y="0" width="3921" height="1600"/>
  </clipPath>
</defs>
<path clip-path="url(#clip300)" d="M444.158 1270.93 L1999.45 1270.93 L1999.45 130.417 L444.158 130.417  Z" fill="#fafafa" fill-rule="evenodd" fill-opacity="1"/>
<defs>
  <clipPath id="clip302">
    <rect x="444" y="130" width="1556" height="1142"/>
  </clipPath>
</defs>
<polyline clip-path="url(#clip302)" style="stroke:#000000; stroke-linecap:round; stroke-linejoin:round; stroke-width:2; stroke-opacity:0.1; fill:none" points="488.176,1270.93 488.176,130.417 "/>
<polyline clip-path="url(#clip302)" style="stroke:#000000; stroke-linecap:round; stroke-linejoin:round; stroke-width:2; stroke-opacity:0.1; fill:none" points="854.991,1270.93 854.991,130.417 "/>
<polyline clip-path="url(#clip302)" style="stroke:#000000; stroke-linecap:round; stroke-linejoin:round; stroke-width:2; stroke-opacity:0.1; fill:none" points="1221.81,1270.93 1221.81,130.417 "/>
<polyline clip-path="url(#clip302)" style="stroke:#000000; stroke-linecap:round; stroke-linejoin:round; stroke-width:2; stroke-opacity:0.1; fill:none" points="1588.62,1270.93 1588.62,130.417 "/>
<polyline clip-path="url(#clip302)" style="stroke:#000000; stroke-linecap:round; stroke-linejoin:round; stroke-width:2; stroke-opacity:0.1; fill:none" points="1955.44,1270.93 1955.44,130.417 "/>
<polyline clip-path="url(#clip300)" style="stroke:#000000; stroke-linecap:round; stroke-linejoin:round; stroke-width:4; stroke-opacity:0; fill:none" points="488.176,1270.93 488.176,1252.04 "/>
<polyline clip-path="url(#clip300)" style="stroke:#000000; stroke-linecap:round; stroke-linejoin:round; stroke-width:4; stroke-opacity:0; fill:none" points="854.991,1270.93 854.991,1252.04 "/>
<polyline clip-path="url(#clip300)" style="stroke:#000000; stroke-linecap:round; stroke-linejoin:round; stroke-width:4; stroke-opacity:0; fill:none" points="1221.81,1270.93 1221.81,1252.04 "/>
<polyline clip-path="url(#clip300)" style="stroke:#000000; stroke-linecap:round; stroke-linejoin:round; stroke-width:4; stroke-opacity:0; fill:none" points="1588.62,1270.93 1588.62,1252.04 "/>
<polyline clip-path="url(#clip300)" style="stroke:#000000; stroke-linecap:round; stroke-linejoin:round; stroke-width:4; stroke-opacity:0; fill:none" points="1955.44,1270.93 1955.44,1252.04 "/>
<path clip-path="url(#clip300)" d="M445.772 1337.71 Q439.001 1337.71 435.572 1344.39 Q432.187 1351.03 432.187 1364.4 Q432.187 1377.72 435.572 1384.41 Q439.001 1391.05 445.772 1391.05 Q452.586 1391.05 455.971 1384.41 Q459.4 1377.72 459.4 1364.4 Q459.4 1351.03 455.971 1344.39 Q452.586 1337.71 445.772 1337.71 M445.772 1330.76 Q456.666 1330.76 462.395 1339.4 Q468.167 1347.99 468.167 1364.4 Q468.167 1380.76 462.395 1389.4 Q456.666 1397.99 445.772 1397.99 Q434.878 1397.99 429.105 1389.4 Q423.376 1380.76 423.376 1364.4 Q423.376 1347.99 429.105 1339.4 Q434.878 1330.76 445.772 1330.76 Z" fill="#000000" fill-rule="nonzero" fill-opacity="1" /><path clip-path="url(#clip300)" d="M483.575 1385.71 L492.733 1385.71 L492.733 1396.73 L483.575 1396.73 L483.575 1385.71 Z" fill="#000000" fill-rule="nonzero" fill-opacity="1" /><path clip-path="url(#clip300)" d="M530.58 1337.71 Q523.81 1337.71 520.381 1344.39 Q516.995 1351.03 516.995 1364.4 Q516.995 1377.72 520.381 1384.41 Q523.81 1391.05 530.58 1391.05 Q537.395 1391.05 540.78 1384.41 Q544.209 1377.72 544.209 1364.4 Q544.209 1351.03 540.78 1344.39 Q537.395 1337.71 530.58 1337.71 M530.58 1330.76 Q541.474 1330.76 547.204 1339.4 Q552.976 1347.99 552.976 1364.4 Q552.976 1380.76 547.204 1389.4 Q541.474 1397.99 530.58 1397.99 Q519.686 1397.99 513.914 1389.4 Q508.185 1380.76 508.185 1364.4 Q508.185 1347.99 513.914 1339.4 Q519.686 1330.76 530.58 1330.76 Z" fill="#000000" fill-rule="nonzero" fill-opacity="1" /><path clip-path="url(#clip300)" d="M813.52 1337.71 Q806.749 1337.71 803.321 1344.39 Q799.935 1351.03 799.935 1364.4 Q799.935 1377.72 803.321 1384.41 Q806.749 1391.05 813.52 1391.05 Q820.334 1391.05 823.72 1384.41 Q827.149 1377.72 827.149 1364.4 Q827.149 1351.03 823.72 1344.39 Q820.334 1337.71 813.52 1337.71 M813.52 1330.76 Q824.414 1330.76 830.143 1339.4 Q835.916 1347.99 835.916 1364.4 Q835.916 1380.76 830.143 1389.4 Q824.414 1397.99 813.52 1397.99 Q802.626 1397.99 796.854 1389.4 Q791.124 1380.76 791.124 1364.4 Q791.124 1347.99 796.854 1339.4 Q802.626 1330.76 813.52 1330.76 Z" fill="#000000" fill-rule="nonzero" fill-opacity="1" /><path clip-path="url(#clip300)" d="M851.324 1385.71 L860.482 1385.71 L860.482 1396.73 L851.324 1396.73 L851.324 1385.71 Z" fill="#000000" fill-rule="nonzero" fill-opacity="1" /><path clip-path="url(#clip300)" d="M879.666 1331.93 L914.084 1331.93 L914.084 1339.31 L887.695 1339.31 L887.695 1355.2 Q889.605 1354.55 891.514 1354.24 Q893.424 1353.9 895.334 1353.9 Q906.185 1353.9 912.521 1359.84 Q918.858 1365.79 918.858 1375.94 Q918.858 1386.4 912.348 1392.22 Q905.837 1397.99 893.988 1397.99 Q889.909 1397.99 885.655 1397.3 Q881.445 1396.6 876.931 1395.22 L876.931 1386.4 Q880.837 1388.53 885.004 1389.57 Q889.171 1390.61 893.815 1390.61 Q901.323 1390.61 905.707 1386.66 Q910.091 1382.72 910.091 1375.94 Q910.091 1369.17 905.707 1365.22 Q901.323 1361.27 893.815 1361.27 Q890.299 1361.27 886.784 1362.06 Q883.311 1362.84 879.666 1364.49 L879.666 1331.93 Z" fill="#000000" fill-rule="nonzero" fill-opacity="1" /><path clip-path="url(#clip300)" d="M1160.22 1389.36 L1174.54 1389.36 L1174.54 1339.92 L1158.96 1343.05 L1158.96 1335.06 L1174.45 1331.93 L1183.22 1331.93 L1183.22 1389.36 L1197.54 1389.36 L1197.54 1396.73 L1160.22 1396.73 L1160.22 1389.36 Z" fill="#000000" fill-rule="nonzero" fill-opacity="1" /><path clip-path="url(#clip300)" d="M1215.25 1385.71 L1224.41 1385.71 L1224.41 1396.73 L1215.25 1396.73 L1215.25 1385.71 Z" fill="#000000" fill-rule="nonzero" fill-opacity="1" /><path clip-path="url(#clip300)" d="M1262.26 1337.71 Q1255.49 1337.71 1252.06 1344.39 Q1248.67 1351.03 1248.67 1364.4 Q1248.67 1377.72 1252.06 1384.41 Q1255.49 1391.05 1262.26 1391.05 Q1269.07 1391.05 1272.46 1384.41 Q1275.89 1377.72 1275.89 1364.4 Q1275.89 1351.03 1272.46 1344.39 Q1269.07 1337.71 1262.26 1337.71 M1262.26 1330.76 Q1273.15 1330.76 1278.88 1339.4 Q1284.65 1347.99 1284.65 1364.4 Q1284.65 1380.76 1278.88 1389.4 Q1273.15 1397.99 1262.26 1397.99 Q1251.36 1397.99 1245.59 1389.4 Q1239.86 1380.76 1239.86 1364.4 Q1239.86 1347.99 1245.59 1339.4 Q1251.36 1330.76 1262.26 1330.76 Z" fill="#000000" fill-rule="nonzero" fill-opacity="1" /><path clip-path="url(#clip300)" d="M1527.97 1389.36 L1542.29 1389.36 L1542.29 1339.92 L1526.71 1343.05 L1526.71 1335.06 L1542.2 1331.93 L1550.97 1331.93 L1550.97 1389.36 L1565.29 1389.36 L1565.29 1396.73 L1527.97 1396.73 L1527.97 1389.36 Z" fill="#000000" fill-rule="nonzero" fill-opacity="1" /><path clip-path="url(#clip300)" d="M1583 1385.71 L1592.16 1385.71 L1592.16 1396.73 L1583 1396.73 L1583 1385.71 Z" fill="#000000" fill-rule="nonzero" fill-opacity="1" /><path clip-path="url(#clip300)" d="M1611.34 1331.93 L1645.76 1331.93 L1645.76 1339.31 L1619.37 1339.31 L1619.37 1355.2 Q1621.28 1354.55 1623.19 1354.24 Q1625.1 1353.9 1627.01 1353.9 Q1637.86 1353.9 1644.2 1359.84 Q1650.54 1365.79 1650.54 1375.94 Q1650.54 1386.4 1644.02 1392.22 Q1637.51 1397.99 1625.67 1397.99 Q1621.59 1397.99 1617.33 1397.3 Q1613.12 1396.6 1608.61 1395.22 L1608.61 1386.4 Q1612.51 1388.53 1616.68 1389.57 Q1620.85 1390.61 1625.49 1390.61 Q1633 1390.61 1637.38 1386.66 Q1641.77 1382.72 1641.77 1375.94 Q1641.77 1369.17 1637.38 1365.22 Q1633 1361.27 1625.49 1361.27 Q1621.98 1361.27 1618.46 1362.06 Q1614.99 1362.84 1611.34 1364.49 L1611.34 1331.93 Z" fill="#000000" fill-rule="nonzero" fill-opacity="1" /><path clip-path="url(#clip300)" d="M1901.51 1389.36 L1932.11 1389.36 L1932.11 1396.73 L1890.96 1396.73 L1890.96 1389.36 Q1895.95 1384.19 1904.55 1375.51 Q1913.18 1366.79 1915.4 1364.27 Q1919.61 1359.54 1921.26 1356.28 Q1922.95 1352.98 1922.95 1349.82 Q1922.95 1344.65 1919.3 1341.4 Q1915.7 1338.14 1909.89 1338.14 Q1905.76 1338.14 1901.16 1339.57 Q1896.6 1341.01 1891.4 1343.91 L1891.4 1335.06 Q1896.69 1332.93 1901.29 1331.85 Q1905.89 1330.76 1909.71 1330.76 Q1919.78 1330.76 1925.77 1335.8 Q1931.76 1340.83 1931.76 1349.25 Q1931.76 1353.25 1930.24 1356.85 Q1928.77 1360.41 1924.82 1365.27 Q1923.73 1366.53 1917.92 1372.56 Q1912.1 1378.55 1901.51 1389.36 Z" fill="#000000" fill-rule="nonzero" fill-opacity="1" /><path clip-path="url(#clip300)" d="M1950.51 1385.71 L1959.67 1385.71 L1959.67 1396.73 L1950.51 1396.73 L1950.51 1385.71 Z" fill="#000000" fill-rule="nonzero" fill-opacity="1" /><path clip-path="url(#clip300)" d="M1997.52 1337.71 Q1990.74 1337.71 1987.32 1344.39 Q1983.93 1351.03 1983.93 1364.4 Q1983.93 1377.72 1987.32 1384.41 Q1990.74 1391.05 1997.52 1391.05 Q2004.33 1391.05 2007.72 1384.41 Q2011.14 1377.72 2011.14 1364.4 Q2011.14 1351.03 2007.72 1344.39 Q2004.33 1337.71 1997.52 1337.71 M1997.52 1330.76 Q2008.41 1330.76 2014.14 1339.4 Q2019.91 1347.99 2019.91 1364.4 Q2019.91 1380.76 2014.14 1389.4 Q2008.41 1397.99 1997.52 1397.99 Q1986.62 1397.99 1980.85 1389.4 Q1975.12 1380.76 1975.12 1364.4 Q1975.12 1347.99 1980.85 1339.4 Q1986.62 1330.76 1997.52 1330.76 Z" fill="#000000" fill-rule="nonzero" fill-opacity="1" /><path clip-path="url(#clip300)" d="M1230.32 1518.31 L1228.03 1506.28 Q1225.69 1493.94 1216.42 1493.94 Q1209.44 1493.94 1206.26 1499.67 Q1202.25 1506.85 1202.25 1516.33 Q1202.25 1527.79 1206.16 1533.26 Q1210.11 1538.83 1216.42 1538.83 Q1223.39 1538.83 1227.14 1527.74 L1230.32 1518.31 M1235.69 1502.37 L1240.84 1487.11 L1249.38 1487.11 L1238.71 1518.73 L1240.79 1530.13 Q1241.26 1532.69 1243.08 1534.82 Q1245.22 1537.32 1246.88 1537.32 L1251.47 1537.32 L1251.47 1545.45 L1245.74 1545.45 Q1240.84 1545.45 1236.47 1541.07 Q1234.33 1538.88 1233.45 1534.3 Q1231.05 1540.08 1226.16 1544.61 Q1223.86 1546.75 1216.42 1546.75 Q1204.18 1546.75 1198.24 1538.83 Q1192.15 1530.65 1192.15 1516.33 Q1192.15 1501.02 1198.76 1493.83 Q1206.1 1485.81 1216.42 1485.81 Q1232.61 1485.81 1235.69 1502.37 Z" fill="#000000" fill-rule="nonzero" fill-opacity="1" /><polyline clip-path="url(#clip302)" style="stroke:#000000; stroke-linecap:round; stroke-linejoin:round; stroke-width:2; stroke-opacity:0.1; fill:none" points="444.158,1074.14 1999.45,1074.14 "/>
<polyline clip-path="url(#clip302)" style="stroke:#000000; stroke-linecap:round; stroke-linejoin:round; stroke-width:2; stroke-opacity:0.1; fill:none" points="444.158,831.482 1999.45,831.482 "/>
<polyline clip-path="url(#clip302)" style="stroke:#000000; stroke-linecap:round; stroke-linejoin:round; stroke-width:2; stroke-opacity:0.1; fill:none" points="444.158,588.827 1999.45,588.827 "/>
<polyline clip-path="url(#clip302)" style="stroke:#000000; stroke-linecap:round; stroke-linejoin:round; stroke-width:2; stroke-opacity:0.1; fill:none" points="444.158,346.172 1999.45,346.172 "/>
<polyline clip-path="url(#clip300)" style="stroke:#000000; stroke-linecap:round; stroke-linejoin:round; stroke-width:4; stroke-opacity:0; fill:none" points="444.158,1074.14 463.056,1074.14 "/>
<polyline clip-path="url(#clip300)" style="stroke:#000000; stroke-linecap:round; stroke-linejoin:round; stroke-width:4; stroke-opacity:0; fill:none" points="444.158,831.482 463.056,831.482 "/>
<polyline clip-path="url(#clip300)" style="stroke:#000000; stroke-linecap:round; stroke-linejoin:round; stroke-width:4; stroke-opacity:0; fill:none" points="444.158,588.827 463.056,588.827 "/>
<polyline clip-path="url(#clip300)" style="stroke:#000000; stroke-linecap:round; stroke-linejoin:round; stroke-width:4; stroke-opacity:0; fill:none" points="444.158,346.172 463.056,346.172 "/>
<path clip-path="url(#clip300)" d="M263.978 1099.16 L278.301 1099.16 L278.301 1049.72 L262.72 1052.85 L262.72 1044.86 L278.214 1041.74 L286.982 1041.74 L286.982 1099.16 L301.304 1099.16 L301.304 1106.54 L263.978 1106.54 L263.978 1099.16 Z" fill="#000000" fill-rule="nonzero" fill-opacity="1" /><path clip-path="url(#clip300)" d="M337.763 1047.51 Q330.992 1047.51 327.563 1054.19 Q324.178 1060.83 324.178 1074.2 Q324.178 1087.53 327.563 1094.21 Q330.992 1100.85 337.763 1100.85 Q344.577 1100.85 347.962 1094.21 Q351.391 1087.53 351.391 1074.2 Q351.391 1060.83 347.962 1054.19 Q344.577 1047.51 337.763 1047.51 M337.763 1040.56 Q348.657 1040.56 354.386 1049.2 Q360.158 1057.8 360.158 1074.2 Q360.158 1090.56 354.386 1099.2 Q348.657 1107.8 337.763 1107.8 Q326.868 1107.8 321.096 1099.2 Q315.367 1090.56 315.367 1074.2 Q315.367 1057.8 321.096 1049.2 Q326.868 1040.56 337.763 1040.56 Z" fill="#000000" fill-rule="nonzero" fill-opacity="1" /><path clip-path="url(#clip300)" d="M270.011 856.503 L300.61 856.503 L300.61 863.882 L259.464 863.882 L259.464 856.503 Q264.456 851.338 273.049 842.658 Q281.686 833.934 283.9 831.417 Q288.11 826.686 289.759 823.431 Q291.452 820.132 291.452 816.964 Q291.452 811.799 287.806 808.544 Q284.204 805.288 278.388 805.288 Q274.265 805.288 269.664 806.721 Q265.107 808.153 259.898 811.061 L259.898 802.207 Q265.193 800.08 269.794 798.995 Q274.395 797.91 278.214 797.91 Q288.284 797.91 294.273 802.945 Q300.263 807.979 300.263 816.399 Q300.263 820.392 298.744 823.995 Q297.268 827.554 293.318 832.415 Q292.233 833.674 286.417 839.707 Q280.601 845.696 270.011 856.503 Z" fill="#000000" fill-rule="nonzero" fill-opacity="1" /><path clip-path="url(#clip300)" d="M337.763 804.854 Q330.992 804.854 327.563 811.538 Q324.178 818.179 324.178 831.547 Q324.178 844.871 327.563 851.555 Q330.992 858.196 337.763 858.196 Q344.577 858.196 347.962 851.555 Q351.391 844.871 351.391 831.547 Q351.391 818.179 347.962 811.538 Q344.577 804.854 337.763 804.854 M337.763 797.91 Q348.657 797.91 354.386 806.547 Q360.158 815.141 360.158 831.547 Q360.158 847.91 354.386 856.547 Q348.657 865.14 337.763 865.14 Q326.868 865.14 321.096 856.547 Q315.367 847.91 315.367 831.547 Q315.367 815.141 321.096 806.547 Q326.868 797.91 337.763 797.91 Z" fill="#000000" fill-rule="nonzero" fill-opacity="1" /><path clip-path="url(#clip300)" d="M289.021 586.288 Q295.315 587.633 298.83 591.887 Q302.389 596.14 302.389 602.39 Q302.389 611.982 295.792 617.234 Q289.195 622.486 277.042 622.486 Q272.963 622.486 268.622 621.661 Q264.325 620.88 259.725 619.274 L259.725 610.81 Q263.371 612.937 267.711 614.022 Q272.051 615.107 276.782 615.107 Q285.028 615.107 289.325 611.852 Q293.666 608.597 293.666 602.39 Q293.666 596.661 289.629 593.449 Q285.636 590.194 278.475 590.194 L270.923 590.194 L270.923 582.989 L278.822 582.989 Q285.289 582.989 288.718 580.429 Q292.146 577.824 292.146 572.963 Q292.146 567.972 288.587 565.325 Q285.072 562.634 278.475 562.634 Q274.872 562.634 270.749 563.415 Q266.626 564.196 261.678 565.845 L261.678 558.033 Q266.669 556.644 271.009 555.95 Q275.393 555.255 279.256 555.255 Q289.238 555.255 295.054 559.812 Q300.87 564.326 300.87 572.052 Q300.87 577.434 297.789 581.166 Q294.707 584.856 289.021 586.288 Z" fill="#000000" fill-rule="nonzero" fill-opacity="1" /><path clip-path="url(#clip300)" d="M337.763 562.2 Q330.992 562.2 327.563 568.884 Q324.178 575.524 324.178 588.892 Q324.178 602.217 327.563 608.901 Q330.992 615.541 337.763 615.541 Q344.577 615.541 347.962 608.901 Q351.391 602.217 351.391 588.892 Q351.391 575.524 347.962 568.884 Q344.577 562.2 337.763 562.2 M337.763 555.255 Q348.657 555.255 354.386 563.892 Q360.158 572.486 360.158 588.892 Q360.158 605.255 354.386 613.892 Q348.657 622.486 337.763 622.486 Q326.868 622.486 321.096 613.892 Q315.367 605.255 315.367 588.892 Q315.367 572.486 321.096 563.892 Q326.868 555.255 337.763 555.255 Z" fill="#000000" fill-rule="nonzero" fill-opacity="1" /><path clip-path="url(#clip300)" d="M286.548 321.411 L264.412 356.003 L286.548 356.003 L286.548 321.411 M284.247 313.772 L295.271 313.772 L295.271 356.003 L304.516 356.003 L304.516 363.295 L295.271 363.295 L295.271 378.572 L286.548 378.572 L286.548 363.295 L257.294 363.295 L257.294 354.831 L284.247 313.772 Z" fill="#000000" fill-rule="nonzero" fill-opacity="1" /><path clip-path="url(#clip300)" d="M337.763 319.545 Q330.992 319.545 327.563 326.229 Q324.178 332.869 324.178 346.237 Q324.178 359.562 327.563 366.246 Q330.992 372.887 337.763 372.887 Q344.577 372.887 347.962 366.246 Q351.391 359.562 351.391 346.237 Q351.391 332.869 347.962 326.229 Q344.577 319.545 337.763 319.545 M337.763 312.6 Q348.657 312.6 354.386 321.238 Q360.158 329.831 360.158 346.237 Q360.158 362.6 354.386 371.237 Q348.657 379.831 337.763 379.831 Q326.868 379.831 321.096 371.237 Q315.367 362.6 315.367 346.237 Q315.367 329.831 321.096 321.238 Q326.868 312.6 337.763 312.6 Z" fill="#000000" fill-rule="nonzero" fill-opacity="1" /><path clip-path="url(#clip300)" d="M72.2062 1284.45 L72.2062 1273.82 L137.935 1257.47 L72.2062 1241.17 L72.2062 1229.34 L137.935 1212.99 L72.2062 1196.69 L72.2062 1186.01 L149.966 1205.54 L149.966 1218.77 L82.4666 1235.18 L149.966 1251.74 L149.966 1264.97 L72.2062 1284.45 Z" fill="#000000" fill-rule="nonzero" fill-opacity="1" /><path clip-path="url(#clip300)" d="M118.404 1128.82 L123.091 1128.82 L123.091 1172.89 Q132.987 1172.26 138.195 1166.95 Q143.352 1161.58 143.352 1152.05 Q143.352 1146.53 141.998 1141.38 Q140.643 1136.17 137.935 1131.06 L146.997 1131.06 Q149.185 1136.22 150.331 1141.64 Q151.477 1147.05 151.477 1152.63 Q151.477 1166.58 143.352 1174.76 Q135.227 1182.89 121.373 1182.89 Q107.05 1182.89 98.6644 1175.18 Q90.227 1167.42 90.227 1154.29 Q90.227 1142.52 97.8311 1135.7 Q105.383 1128.82 118.404 1128.82 M115.591 1138.41 Q107.727 1138.51 103.039 1142.83 Q98.3519 1147.11 98.3519 1154.19 Q98.3519 1162.21 102.883 1167.05 Q107.414 1171.84 115.643 1172.57 L115.591 1138.41 Z" fill="#000000" fill-rule="nonzero" fill-opacity="1" /><path clip-path="url(#clip300)" d="M91.6332 1113.1 L91.6332 1103.51 L149.966 1103.51 L149.966 1113.1 L91.6332 1113.1 M68.925 1113.1 L68.925 1103.51 L81.0603 1103.51 L81.0603 1113.1 L68.925 1113.1 Z" fill="#000000" fill-rule="nonzero" fill-opacity="1" /><path clip-path="url(#clip300)" d="M120.123 1045.07 Q109.706 1045.07 103.977 1049.4 Q98.2477 1053.67 98.2477 1061.43 Q98.2477 1069.14 103.977 1073.46 Q109.706 1077.73 120.123 1077.73 Q130.487 1077.73 136.216 1073.46 Q141.945 1069.14 141.945 1061.43 Q141.945 1053.67 136.216 1049.4 Q130.487 1045.07 120.123 1045.07 M142.727 1035.49 Q157.622 1035.49 164.862 1042.11 Q172.154 1048.72 172.154 1062.37 Q172.154 1067.42 171.372 1071.9 Q170.643 1076.38 169.081 1080.6 L159.758 1080.6 Q162.049 1076.38 163.143 1072.26 Q164.237 1068.15 164.237 1063.88 Q164.237 1054.45 159.289 1049.76 Q154.393 1045.07 144.445 1045.07 L139.706 1045.07 Q144.862 1048.04 147.414 1052.68 Q149.966 1057.31 149.966 1063.77 Q149.966 1074.5 141.789 1081.06 Q133.612 1087.63 120.123 1087.63 Q106.581 1087.63 98.404 1081.06 Q90.227 1074.5 90.227 1063.77 Q90.227 1057.31 92.779 1052.68 Q95.3311 1048.04 100.487 1045.07 L91.6332 1045.07 L91.6332 1035.49 L142.727 1035.49 Z" fill="#000000" fill-rule="nonzero" fill-opacity="1" /><path clip-path="url(#clip300)" d="M114.758 967.263 L149.966 967.263 L149.966 976.846 L115.071 976.846 Q106.789 976.846 102.675 980.075 Q98.5602 983.304 98.5602 989.762 Q98.5602 997.523 103.508 1002 Q108.456 1006.48 116.998 1006.48 L149.966 1006.48 L149.966 1016.12 L68.925 1016.12 L68.925 1006.48 L100.696 1006.48 Q95.4353 1003.04 92.8311 998.408 Q90.227 993.721 90.227 987.627 Q90.227 977.575 96.4769 972.419 Q102.675 967.263 114.758 967.263 Z" fill="#000000" fill-rule="nonzero" fill-opacity="1" /><path clip-path="url(#clip300)" d="M75.0708 938.669 L91.6332 938.669 L91.6332 918.929 L99.0811 918.929 L99.0811 938.669 L130.748 938.669 Q137.883 938.669 139.914 936.742 Q141.945 934.763 141.945 928.773 L141.945 918.929 L149.966 918.929 L149.966 928.773 Q149.966 939.867 145.852 944.086 Q141.685 948.304 130.748 948.304 L99.0811 948.304 L99.0811 955.336 L91.6332 955.336 L91.6332 948.304 L75.0708 948.304 L75.0708 938.669 Z" fill="#000000" fill-rule="nonzero" fill-opacity="1" /><path clip-path="url(#clip300)" d="M118.404 856.43 L123.091 856.43 L123.091 900.492 Q132.987 899.867 138.195 894.555 Q143.352 889.19 143.352 879.659 Q143.352 874.138 141.998 868.982 Q140.643 863.774 137.935 858.669 L146.997 858.669 Q149.185 863.826 150.331 869.242 Q151.477 874.659 151.477 880.232 Q151.477 894.19 143.352 902.367 Q135.227 910.492 121.373 910.492 Q107.05 910.492 98.6644 902.784 Q90.227 895.023 90.227 881.898 Q90.227 870.128 97.8311 863.305 Q105.383 856.43 118.404 856.43 M115.591 866.013 Q107.727 866.117 103.039 870.44 Q98.3519 874.711 98.3519 881.794 Q98.3519 889.815 102.883 894.659 Q107.414 899.45 115.643 900.18 L115.591 866.013 Z" fill="#000000" fill-rule="nonzero" fill-opacity="1" /><path clip-path="url(#clip300)" d="M100.487 802.316 L68.925 802.316 L68.925 792.732 L149.966 792.732 L149.966 802.316 L141.216 802.316 Q146.425 805.336 148.977 809.972 Q151.477 814.555 151.477 821.013 Q151.477 831.586 143.039 838.253 Q134.602 844.867 120.852 844.867 Q107.102 844.867 98.6644 838.253 Q90.227 831.586 90.227 821.013 Q90.227 814.555 92.779 809.972 Q95.279 805.336 100.487 802.316 M120.852 834.972 Q131.425 834.972 137.466 830.649 Q143.456 826.274 143.456 818.67 Q143.456 811.065 137.466 806.691 Q131.425 802.316 120.852 802.316 Q110.279 802.316 104.289 806.691 Q98.2477 811.065 98.2477 818.67 Q98.2477 826.274 104.289 830.649 Q110.279 834.972 120.852 834.972 Z" fill="#000000" fill-rule="nonzero" fill-opacity="1" /><path clip-path="url(#clip300)" d="M80.852 728.149 L110.071 728.149 L110.071 714.92 Q110.071 707.576 106.269 703.566 Q102.466 699.556 95.4353 699.556 Q88.4561 699.556 84.6541 703.566 Q80.852 707.576 80.852 714.92 L80.852 728.149 M72.2062 738.67 L72.2062 714.92 Q72.2062 701.847 78.1437 695.181 Q84.0291 688.462 95.4353 688.462 Q106.946 688.462 112.831 695.181 Q118.716 701.847 118.716 714.92 L118.716 728.149 L149.966 728.149 L149.966 738.67 L72.2062 738.67 Z" fill="#000000" fill-rule="nonzero" fill-opacity="1" /><path clip-path="url(#clip300)" d="M100.591 642.837 Q99.654 644.452 99.2373 646.379 Q98.7686 648.254 98.7686 650.546 Q98.7686 658.67 104.081 663.045 Q109.341 667.368 119.237 667.368 L149.966 667.368 L149.966 677.004 L91.6332 677.004 L91.6332 667.368 L100.696 667.368 Q95.3832 664.348 92.8311 659.504 Q90.227 654.66 90.227 647.733 Q90.227 646.743 90.3832 645.546 Q90.4874 644.348 90.7478 642.889 L100.591 642.837 Z" fill="#000000" fill-rule="nonzero" fill-opacity="1" /><path clip-path="url(#clip300)" d="M98.3519 612.525 Q98.3519 620.233 104.394 624.712 Q110.383 629.191 120.852 629.191 Q131.32 629.191 137.362 624.764 Q143.352 620.285 143.352 612.525 Q143.352 604.869 137.31 600.39 Q131.268 595.91 120.852 595.91 Q110.487 595.91 104.446 600.39 Q98.3519 604.869 98.3519 612.525 M90.227 612.525 Q90.227 600.025 98.3519 592.89 Q106.477 585.754 120.852 585.754 Q135.175 585.754 143.352 592.89 Q151.477 600.025 151.477 612.525 Q151.477 625.077 143.352 632.212 Q135.175 639.296 120.852 639.296 Q106.477 639.296 98.3519 632.212 Q90.227 625.077 90.227 612.525 Z" fill="#000000" fill-rule="nonzero" fill-opacity="1" /><path clip-path="url(#clip300)" d="M91.6332 569.869 L91.6332 560.286 L151.008 560.286 Q162.154 560.286 167.154 564.556 Q172.154 568.775 172.154 578.202 L172.154 581.848 L164.029 581.848 L164.029 579.296 Q164.029 573.827 161.477 571.848 Q158.977 569.869 151.008 569.869 L91.6332 569.869 M68.925 569.869 L68.925 560.286 L81.0603 560.286 L81.0603 569.869 L68.925 569.869 Z" fill="#000000" fill-rule="nonzero" fill-opacity="1" /><path clip-path="url(#clip300)" d="M118.404 490.338 L123.091 490.338 L123.091 534.4 Q132.987 533.775 138.195 528.463 Q143.352 523.098 143.352 513.567 Q143.352 508.046 141.998 502.89 Q140.643 497.682 137.935 492.578 L146.997 492.578 Q149.185 497.734 150.331 503.15 Q151.477 508.567 151.477 514.14 Q151.477 528.098 143.352 536.275 Q135.227 544.4 121.373 544.4 Q107.05 544.4 98.6644 536.692 Q90.227 528.932 90.227 515.807 Q90.227 504.036 97.8311 497.213 Q105.383 490.338 118.404 490.338 M115.591 499.921 Q107.727 500.025 103.039 504.348 Q98.3519 508.619 98.3519 515.702 Q98.3519 523.723 102.883 528.567 Q107.414 533.359 115.643 534.088 L115.591 499.921 Z" fill="#000000" fill-rule="nonzero" fill-opacity="1" /><path clip-path="url(#clip300)" d="M93.8728 432.63 L102.831 432.63 Q100.591 436.692 99.4977 440.807 Q98.3519 444.87 98.3519 449.036 Q98.3519 458.359 104.289 463.515 Q110.175 468.671 120.852 468.671 Q131.529 468.671 137.466 463.515 Q143.352 458.359 143.352 449.036 Q143.352 444.87 142.258 440.807 Q141.112 436.692 138.873 432.63 L147.727 432.63 Q149.602 436.64 150.539 440.963 Q151.477 445.234 151.477 450.078 Q151.477 463.255 143.195 471.015 Q134.914 478.776 120.852 478.776 Q106.581 478.776 98.404 470.963 Q90.227 463.099 90.227 449.453 Q90.227 445.026 91.1644 440.807 Q92.0499 436.588 93.8728 432.63 Z" fill="#000000" fill-rule="nonzero" fill-opacity="1" /><path clip-path="url(#clip300)" d="M75.0708 406.484 L91.6332 406.484 L91.6332 386.745 L99.0811 386.745 L99.0811 406.484 L130.748 406.484 Q137.883 406.484 139.914 404.557 Q141.945 402.578 141.945 396.589 L141.945 386.745 L149.966 386.745 L149.966 396.589 Q149.966 407.682 145.852 411.901 Q141.685 416.12 130.748 416.12 L99.0811 416.12 L99.0811 423.151 L91.6332 423.151 L91.6332 416.12 L75.0708 416.12 L75.0708 406.484 Z" fill="#000000" fill-rule="nonzero" fill-opacity="1" /><path clip-path="url(#clip300)" d="M118.404 324.245 L123.091 324.245 L123.091 368.307 Q132.987 367.682 138.195 362.37 Q143.352 357.005 143.352 347.474 Q143.352 341.953 141.998 336.797 Q140.643 331.589 137.935 326.485 L146.997 326.485 Q149.185 331.641 150.331 337.058 Q151.477 342.474 151.477 348.047 Q151.477 362.005 143.352 370.182 Q135.227 378.307 121.373 378.307 Q107.05 378.307 98.6644 370.599 Q90.227 362.839 90.227 349.714 Q90.227 337.943 97.8311 331.12 Q105.383 324.245 118.404 324.245 M115.591 333.828 Q107.727 333.933 103.039 338.256 Q98.3519 342.526 98.3519 349.61 Q98.3519 357.63 102.883 362.474 Q107.414 367.266 115.643 367.995 L115.591 333.828 Z" fill="#000000" fill-rule="nonzero" fill-opacity="1" /><path clip-path="url(#clip300)" d="M100.487 270.131 L68.925 270.131 L68.925 260.548 L149.966 260.548 L149.966 270.131 L141.216 270.131 Q146.425 273.152 148.977 277.787 Q151.477 282.37 151.477 288.829 Q151.477 299.402 143.039 306.068 Q134.602 312.683 120.852 312.683 Q107.102 312.683 98.6644 306.068 Q90.227 299.402 90.227 288.829 Q90.227 282.37 92.779 277.787 Q95.279 273.152 100.487 270.131 M120.852 302.787 Q131.425 302.787 137.466 298.464 Q143.456 294.089 143.456 286.485 Q143.456 278.881 137.466 274.506 Q131.425 270.131 120.852 270.131 Q110.279 270.131 104.289 274.506 Q98.2477 278.881 98.2477 286.485 Q98.2477 294.089 104.289 298.464 Q110.279 302.787 120.852 302.787 Z" fill="#000000" fill-rule="nonzero" fill-opacity="1" /><path clip-path="url(#clip300)" d="M78.0395 183.933 L149.966 157.006 L149.966 167.163 L106.841 183.517 L149.966 203.621 L149.966 213.777 L94.029 188.204 L83.7166 192.058 Q77.1541 194.506 77.1541 200.079 L77.1541 205.079 L68.925 205.079 L69.0292 198.985 Q69.1854 187.215 78.0395 183.933 Z" fill="#000000" fill-rule="nonzero" fill-opacity="1" /><path clip-path="url(#clip300)" d="M144.237 145.704 L144.237 135.08 L112.414 135.08 L114.55 146.694 L108.508 146.694 L106.477 134.715 L106.477 127.58 L144.237 127.58 L144.237 116.903 L149.966 116.903 L149.966 145.704 L144.237 145.704 Z" fill="#000000" fill-rule="nonzero" fill-opacity="1" /><g clip-path="url(#clip300)">
<text style="fill:#000000; fill-opacity:1; font-family:Arial,Helvetica Neue,Helvetica,sans-serif; font-size:118px; font-weight:bold; text-anchor:middle;" transform="rotate(0, 1221.81, 103.2)" x="1221.81" y="103.2">g(m)=m</text>
</g>
<path clip-path="url(#clip302)" d="M488.176 806.294 L549.312 807.03 L610.448 807.266 L671.584 813.887 L732.72 823.205 L793.855 831.945 L854.991 836.117 L916.127 846.66 L977.263 864.468 L1038.4 877.269 L1099.53 888.483 L1160.67 902.362 L1221.81 918.489 L1282.94 981.135 L1344.08 1016.73 L1405.21 1040.04 L1466.35 1060.04 L1527.49 1069.88 L1588.62 1079.47 L1649.76 1083.17 L1710.89 1086.99 L1772.03 1090.75 L1833.17 1093.28 L1894.3 1097.2 L1955.44 1102.57 L1955.44 1073.8 L1894.3 1069.81 L1833.17 1068.24 L1772.03 1066.94 L1710.89 1062.51 L1649.76 1056.2 L1588.62 1046.53 L1527.49 1033.86 L1466.35 1022.41 L1405.21 1004.62 L1344.08 983.38 L1282.94 938.286 L1221.81 822.761 L1160.67 800.051 L1099.53 774.138 L1038.4 734.756 L977.263 695.974 L916.127 651.334 L854.991 615.876 L793.855 580.083 L732.72 545.998 L671.584 529.547 L610.448 514.117 L549.312 499.131 L488.176 497.189  Z" fill="#cccccc" fill-rule="evenodd" fill-opacity="0.5"/>
<polyline clip-path="url(#clip302)" style="stroke:#cccccc; stroke-linecap:round; stroke-linejoin:round; stroke-width:0; stroke-opacity:0; fill:none" points="488.176,651.742 549.312,653.081 610.448,660.692 671.584,671.717 732.72,684.601 793.855,706.014 854.991,725.997 916.127,748.997 977.263,780.221 1038.4,806.012 1099.53,831.31 1160.67,851.207 1221.81,870.625 1282.94,959.711 1344.08,1000.05 1405.21,1022.33 1466.35,1041.23 1527.49,1051.87 1588.62,1063 1649.76,1069.68 1710.89,1074.75 1772.03,1078.85 1833.17,1080.76 1894.3,1083.51 1955.44,1088.19 "/>
<polyline clip-path="url(#clip302)" style="stroke:#808080; stroke-linecap:round; stroke-linejoin:round; stroke-width:6; stroke-opacity:1; fill:none" points="488.176,788.389 549.312,788.624 610.448,790.175 671.584,793.394 732.72,802.818 793.855,814.501 854.991,828.611 916.127,838.253 977.263,849.101 1038.4,863.119 1099.53,880.864 1160.67,894.029 1221.81,906.417 1282.94,978.338 1344.08,1010.81 1405.21,1037.02 1466.35,1056.7 1527.49,1067.75 1588.62,1074.74 1649.76,1080.97 1710.89,1085.14 1772.03,1087.47 1833.17,1090.16 1894.3,1093.55 1955.44,1098.92 "/>
<polyline clip-path="url(#clip302)" style="stroke:#000000; stroke-linecap:round; stroke-linejoin:round; stroke-width:12; stroke-opacity:1; fill:none" points="488.176,754.942 549.312,755.821 610.448,762.82 671.584,768.914 732.72,775.375 793.855,782.404 854.991,795.333 916.127,808.315 977.263,822.497 1038.4,839.901 1099.53,855.77 1160.67,870.731 1221.81,891.627 1282.94,968.039 1344.08,1006.18 1405.21,1031.75 1466.35,1046.87 1527.49,1059.7 1588.62,1068.37 1649.76,1075.34 1710.89,1079.29 1772.03,1082.15 1833.17,1083.35 1894.3,1086.1 1955.44,1090.7 "/>
<polyline clip-path="url(#clip302)" style="stroke:#808080; stroke-linecap:round; stroke-linejoin:round; stroke-width:6; stroke-opacity:1; fill:none" points="488.176,687.376 549.312,688.838 610.448,691.892 671.584,699.138 732.72,704.899 793.855,718.478 854.991,732.571 916.127,747.559 977.263,764.901 1038.4,780.558 1099.53,802.439 1160.67,830.824 1221.81,865.601 1282.94,952.152 1344.08,987.053 1405.21,1018.5 1466.35,1035.5 1527.49,1044.98 1588.62,1055.13 1649.76,1061.42 1710.89,1065.03 1772.03,1068.97 1833.17,1071.52 1894.3,1073.16 1955.44,1079.31 "/>
<path clip-path="url(#clip300)" d="M2165.69 1270.93 L3720.99 1270.93 L3720.99 130.417 L2165.69 130.417  Z" fill="#fafafa" fill-rule="evenodd" fill-opacity="1"/>
<defs>
  <clipPath id="clip303">
    <rect x="2165" y="130" width="1556" height="1142"/>
  </clipPath>
</defs>
<polyline clip-path="url(#clip303)" style="stroke:#000000; stroke-linecap:round; stroke-linejoin:round; stroke-width:2; stroke-opacity:0.1; fill:none" points="2209.71,1270.93 2209.71,130.417 "/>
<polyline clip-path="url(#clip303)" style="stroke:#000000; stroke-linecap:round; stroke-linejoin:round; stroke-width:2; stroke-opacity:0.1; fill:none" points="2576.52,1270.93 2576.52,130.417 "/>
<polyline clip-path="url(#clip303)" style="stroke:#000000; stroke-linecap:round; stroke-linejoin:round; stroke-width:2; stroke-opacity:0.1; fill:none" points="2943.34,1270.93 2943.34,130.417 "/>
<polyline clip-path="url(#clip303)" style="stroke:#000000; stroke-linecap:round; stroke-linejoin:round; stroke-width:2; stroke-opacity:0.1; fill:none" points="3310.15,1270.93 3310.15,130.417 "/>
<polyline clip-path="url(#clip303)" style="stroke:#000000; stroke-linecap:round; stroke-linejoin:round; stroke-width:2; stroke-opacity:0.1; fill:none" points="3676.97,1270.93 3676.97,130.417 "/>
<polyline clip-path="url(#clip300)" style="stroke:#000000; stroke-linecap:round; stroke-linejoin:round; stroke-width:4; stroke-opacity:0; fill:none" points="2209.71,1270.93 2209.71,1252.04 "/>
<polyline clip-path="url(#clip300)" style="stroke:#000000; stroke-linecap:round; stroke-linejoin:round; stroke-width:4; stroke-opacity:0; fill:none" points="2576.52,1270.93 2576.52,1252.04 "/>
<polyline clip-path="url(#clip300)" style="stroke:#000000; stroke-linecap:round; stroke-linejoin:round; stroke-width:4; stroke-opacity:0; fill:none" points="2943.34,1270.93 2943.34,1252.04 "/>
<polyline clip-path="url(#clip300)" style="stroke:#000000; stroke-linecap:round; stroke-linejoin:round; stroke-width:4; stroke-opacity:0; fill:none" points="3310.15,1270.93 3310.15,1252.04 "/>
<polyline clip-path="url(#clip300)" style="stroke:#000000; stroke-linecap:round; stroke-linejoin:round; stroke-width:4; stroke-opacity:0; fill:none" points="3676.97,1270.93 3676.97,1252.04 "/>
<path clip-path="url(#clip300)" d="M2167.3 1337.71 Q2160.53 1337.71 2157.1 1344.39 Q2153.72 1351.03 2153.72 1364.4 Q2153.72 1377.72 2157.1 1384.41 Q2160.53 1391.05 2167.3 1391.05 Q2174.12 1391.05 2177.5 1384.41 Q2180.93 1377.72 2180.93 1364.4 Q2180.93 1351.03 2177.5 1344.39 Q2174.12 1337.71 2167.3 1337.71 M2167.3 1330.76 Q2178.2 1330.76 2183.93 1339.4 Q2189.7 1347.99 2189.7 1364.4 Q2189.7 1380.76 2183.93 1389.4 Q2178.2 1397.99 2167.3 1397.99 Q2156.41 1397.99 2150.64 1389.4 Q2144.91 1380.76 2144.91 1364.4 Q2144.91 1347.99 2150.64 1339.4 Q2156.41 1330.76 2167.3 1330.76 Z" fill="#000000" fill-rule="nonzero" fill-opacity="1" /><path clip-path="url(#clip300)" d="M2205.11 1385.71 L2214.27 1385.71 L2214.27 1396.73 L2205.11 1396.73 L2205.11 1385.71 Z" fill="#000000" fill-rule="nonzero" fill-opacity="1" /><path clip-path="url(#clip300)" d="M2252.11 1337.71 Q2245.34 1337.71 2241.91 1344.39 Q2238.53 1351.03 2238.53 1364.4 Q2238.53 1377.72 2241.91 1384.41 Q2245.34 1391.05 2252.11 1391.05 Q2258.93 1391.05 2262.31 1384.41 Q2265.74 1377.72 2265.74 1364.4 Q2265.74 1351.03 2262.31 1344.39 Q2258.93 1337.71 2252.11 1337.71 M2252.11 1330.76 Q2263.01 1330.76 2268.74 1339.4 Q2274.51 1347.99 2274.51 1364.4 Q2274.51 1380.76 2268.74 1389.4 Q2263.01 1397.99 2252.11 1397.99 Q2241.22 1397.99 2235.45 1389.4 Q2229.72 1380.76 2229.72 1364.4 Q2229.72 1347.99 2235.45 1339.4 Q2241.22 1330.76 2252.11 1330.76 Z" fill="#000000" fill-rule="nonzero" fill-opacity="1" /><path clip-path="url(#clip300)" d="M2535.05 1337.71 Q2528.28 1337.71 2524.85 1344.39 Q2521.47 1351.03 2521.47 1364.4 Q2521.47 1377.72 2524.85 1384.41 Q2528.28 1391.05 2535.05 1391.05 Q2541.87 1391.05 2545.25 1384.41 Q2548.68 1377.72 2548.68 1364.4 Q2548.68 1351.03 2545.25 1344.39 Q2541.87 1337.71 2535.05 1337.71 M2535.05 1330.76 Q2545.95 1330.76 2551.68 1339.4 Q2557.45 1347.99 2557.45 1364.4 Q2557.45 1380.76 2551.68 1389.4 Q2545.95 1397.99 2535.05 1397.99 Q2524.16 1397.99 2518.39 1389.4 Q2512.66 1380.76 2512.66 1364.4 Q2512.66 1347.99 2518.39 1339.4 Q2524.16 1330.76 2535.05 1330.76 Z" fill="#000000" fill-rule="nonzero" fill-opacity="1" /><path clip-path="url(#clip300)" d="M2572.86 1385.71 L2582.01 1385.71 L2582.01 1396.73 L2572.86 1396.73 L2572.86 1385.71 Z" fill="#000000" fill-rule="nonzero" fill-opacity="1" /><path clip-path="url(#clip300)" d="M2601.2 1331.93 L2635.62 1331.93 L2635.62 1339.31 L2609.23 1339.31 L2609.23 1355.2 Q2611.14 1354.55 2613.05 1354.24 Q2614.96 1353.9 2616.87 1353.9 Q2627.72 1353.9 2634.05 1359.84 Q2640.39 1365.79 2640.39 1375.94 Q2640.39 1386.4 2633.88 1392.22 Q2627.37 1397.99 2615.52 1397.99 Q2611.44 1397.99 2607.19 1397.3 Q2602.98 1396.6 2598.46 1395.22 L2598.46 1386.4 Q2602.37 1388.53 2606.54 1389.57 Q2610.7 1390.61 2615.35 1390.61 Q2622.86 1390.61 2627.24 1386.66 Q2631.62 1382.72 2631.62 1375.94 Q2631.62 1369.17 2627.24 1365.22 Q2622.86 1361.27 2615.35 1361.27 Q2611.83 1361.27 2608.32 1362.06 Q2604.84 1362.84 2601.2 1364.49 L2601.2 1331.93 Z" fill="#000000" fill-rule="nonzero" fill-opacity="1" /><path clip-path="url(#clip300)" d="M2881.75 1389.36 L2896.07 1389.36 L2896.07 1339.92 L2880.49 1343.05 L2880.49 1335.06 L2895.99 1331.93 L2904.75 1331.93 L2904.75 1389.36 L2919.08 1389.36 L2919.08 1396.73 L2881.75 1396.73 L2881.75 1389.36 Z" fill="#000000" fill-rule="nonzero" fill-opacity="1" /><path clip-path="url(#clip300)" d="M2936.79 1385.71 L2945.94 1385.71 L2945.94 1396.73 L2936.79 1396.73 L2936.79 1385.71 Z" fill="#000000" fill-rule="nonzero" fill-opacity="1" /><path clip-path="url(#clip300)" d="M2983.79 1337.71 Q2977.02 1337.71 2973.59 1344.39 Q2970.21 1351.03 2970.21 1364.4 Q2970.21 1377.72 2973.59 1384.41 Q2977.02 1391.05 2983.79 1391.05 Q2990.6 1391.05 2993.99 1384.41 Q2997.42 1377.72 2997.42 1364.4 Q2997.42 1351.03 2993.99 1344.39 Q2990.6 1337.71 2983.79 1337.71 M2983.79 1330.76 Q2994.68 1330.76 3000.41 1339.4 Q3006.19 1347.99 3006.19 1364.4 Q3006.19 1380.76 3000.41 1389.4 Q2994.68 1397.99 2983.79 1397.99 Q2972.9 1397.99 2967.12 1389.4 Q2961.39 1380.76 2961.39 1364.4 Q2961.39 1347.99 2967.12 1339.4 Q2972.9 1330.76 2983.79 1330.76 Z" fill="#000000" fill-rule="nonzero" fill-opacity="1" /><path clip-path="url(#clip300)" d="M3249.5 1389.36 L3263.82 1389.36 L3263.82 1339.92 L3248.24 1343.05 L3248.24 1335.06 L3263.74 1331.93 L3272.5 1331.93 L3272.5 1389.36 L3286.83 1389.36 L3286.83 1396.73 L3249.5 1396.73 L3249.5 1389.36 Z" fill="#000000" fill-rule="nonzero" fill-opacity="1" /><path clip-path="url(#clip300)" d="M3304.53 1385.71 L3313.69 1385.71 L3313.69 1396.73 L3304.53 1396.73 L3304.53 1385.71 Z" fill="#000000" fill-rule="nonzero" fill-opacity="1" /><path clip-path="url(#clip300)" d="M3332.88 1331.93 L3367.29 1331.93 L3367.29 1339.31 L3340.9 1339.31 L3340.9 1355.2 Q3342.81 1354.55 3344.72 1354.24 Q3346.63 1353.9 3348.54 1353.9 Q3359.39 1353.9 3365.73 1359.84 Q3372.07 1365.79 3372.07 1375.94 Q3372.07 1386.4 3365.56 1392.22 Q3359.05 1397.99 3347.2 1397.99 Q3343.12 1397.99 3338.86 1397.3 Q3334.65 1396.6 3330.14 1395.22 L3330.14 1386.4 Q3334.05 1388.53 3338.21 1389.57 Q3342.38 1390.61 3347.02 1390.61 Q3354.53 1390.61 3358.92 1386.66 Q3363.3 1382.72 3363.3 1375.94 Q3363.3 1369.17 3358.92 1365.22 Q3354.53 1361.27 3347.02 1361.27 Q3343.51 1361.27 3339.99 1362.06 Q3336.52 1362.84 3332.88 1364.49 L3332.88 1331.93 Z" fill="#000000" fill-rule="nonzero" fill-opacity="1" /><path clip-path="url(#clip300)" d="M3623.04 1389.36 L3653.64 1389.36 L3653.64 1396.73 L3612.49 1396.73 L3612.49 1389.36 Q3617.49 1384.19 3626.08 1375.51 Q3634.72 1366.79 3636.93 1364.27 Q3641.14 1359.54 3642.79 1356.28 Q3644.48 1352.98 3644.48 1349.82 Q3644.48 1344.65 3640.84 1341.4 Q3637.23 1338.14 3631.42 1338.14 Q3627.3 1338.14 3622.69 1339.57 Q3618.14 1341.01 3612.93 1343.91 L3612.93 1335.06 Q3618.22 1332.93 3622.82 1331.85 Q3627.43 1330.76 3631.24 1330.76 Q3641.31 1330.76 3647.3 1335.8 Q3653.29 1340.83 3653.29 1349.25 Q3653.29 1353.25 3651.77 1356.85 Q3650.3 1360.41 3646.35 1365.27 Q3645.26 1366.53 3639.45 1372.56 Q3633.63 1378.55 3623.04 1389.36 Z" fill="#000000" fill-rule="nonzero" fill-opacity="1" /><path clip-path="url(#clip300)" d="M3672.04 1385.71 L3681.2 1385.71 L3681.2 1396.73 L3672.04 1396.73 L3672.04 1385.71 Z" fill="#000000" fill-rule="nonzero" fill-opacity="1" /><path clip-path="url(#clip300)" d="M3719.05 1337.71 Q3712.28 1337.71 3708.85 1344.39 Q3705.46 1351.03 3705.46 1364.4 Q3705.46 1377.72 3708.85 1384.41 Q3712.28 1391.05 3719.05 1391.05 Q3725.86 1391.05 3729.25 1384.41 Q3732.68 1377.72 3732.68 1364.4 Q3732.68 1351.03 3729.25 1344.39 Q3725.86 1337.71 3719.05 1337.71 M3719.05 1330.76 Q3729.94 1330.76 3735.67 1339.4 Q3741.44 1347.99 3741.44 1364.4 Q3741.44 1380.76 3735.67 1389.4 Q3729.94 1397.99 3719.05 1397.99 Q3708.15 1397.99 3702.38 1389.4 Q3696.65 1380.76 3696.65 1364.4 Q3696.65 1347.99 3702.38 1339.4 Q3708.15 1330.76 3719.05 1330.76 Z" fill="#000000" fill-rule="nonzero" fill-opacity="1" /><path clip-path="url(#clip300)" d="M2951.85 1518.31 L2949.56 1506.28 Q2947.22 1493.94 2937.95 1493.94 Q2930.97 1493.94 2927.79 1499.67 Q2923.78 1506.85 2923.78 1516.33 Q2923.78 1527.79 2927.69 1533.26 Q2931.65 1538.83 2937.95 1538.83 Q2944.93 1538.83 2948.68 1527.74 L2951.85 1518.31 M2957.22 1502.37 L2962.38 1487.11 L2970.92 1487.11 L2960.24 1518.73 L2962.32 1530.13 Q2962.79 1532.69 2964.61 1534.82 Q2966.75 1537.32 2968.42 1537.32 L2973 1537.32 L2973 1545.45 L2967.27 1545.45 Q2962.38 1545.45 2958 1541.07 Q2955.86 1538.88 2954.98 1534.3 Q2952.58 1540.08 2947.69 1544.61 Q2945.4 1546.75 2937.95 1546.75 Q2925.71 1546.75 2919.77 1538.83 Q2913.68 1530.65 2913.68 1516.33 Q2913.68 1501.02 2920.29 1493.83 Q2927.64 1485.81 2937.95 1485.81 Q2954.15 1485.81 2957.22 1502.37 Z" fill="#000000" fill-rule="nonzero" fill-opacity="1" /><polyline clip-path="url(#clip303)" style="stroke:#000000; stroke-linecap:round; stroke-linejoin:round; stroke-width:2; stroke-opacity:0.1; fill:none" points="2165.69,831.482 3720.99,831.482 "/>
<polyline clip-path="url(#clip303)" style="stroke:#000000; stroke-linecap:round; stroke-linejoin:round; stroke-width:2; stroke-opacity:0.1; fill:none" points="2165.69,710.154 3720.99,710.154 "/>
<polyline clip-path="url(#clip303)" style="stroke:#000000; stroke-linecap:round; stroke-linejoin:round; stroke-width:2; stroke-opacity:0.1; fill:none" points="2165.69,588.827 3720.99,588.827 "/>
<polyline clip-path="url(#clip303)" style="stroke:#000000; stroke-linecap:round; stroke-linejoin:round; stroke-width:2; stroke-opacity:0.1; fill:none" points="2165.69,467.5 3720.99,467.5 "/>
<polyline clip-path="url(#clip303)" style="stroke:#000000; stroke-linecap:round; stroke-linejoin:round; stroke-width:2; stroke-opacity:0.1; fill:none" points="2165.69,346.172 3720.99,346.172 "/>
<polyline clip-path="url(#clip303)" style="stroke:#000000; stroke-linecap:round; stroke-linejoin:round; stroke-width:2; stroke-opacity:0.1; fill:none" points="2165.69,224.845 3720.99,224.845 "/>
<polyline clip-path="url(#clip300)" style="stroke:#000000; stroke-linecap:round; stroke-linejoin:round; stroke-width:4; stroke-opacity:0; fill:none" points="2165.69,831.482 2184.59,831.482 "/>
<polyline clip-path="url(#clip300)" style="stroke:#000000; stroke-linecap:round; stroke-linejoin:round; stroke-width:4; stroke-opacity:0; fill:none" points="2165.69,710.154 2184.59,710.154 "/>
<polyline clip-path="url(#clip300)" style="stroke:#000000; stroke-linecap:round; stroke-linejoin:round; stroke-width:4; stroke-opacity:0; fill:none" points="2165.69,588.827 2184.59,588.827 "/>
<polyline clip-path="url(#clip300)" style="stroke:#000000; stroke-linecap:round; stroke-linejoin:round; stroke-width:4; stroke-opacity:0; fill:none" points="2165.69,467.5 2184.59,467.5 "/>
<polyline clip-path="url(#clip300)" style="stroke:#000000; stroke-linecap:round; stroke-linejoin:round; stroke-width:4; stroke-opacity:0; fill:none" points="2165.69,346.172 2184.59,346.172 "/>
<polyline clip-path="url(#clip300)" style="stroke:#000000; stroke-linecap:round; stroke-linejoin:round; stroke-width:4; stroke-opacity:0; fill:none" points="2165.69,224.845 2184.59,224.845 "/>
<g clip-path="url(#clip300)">
<text style="fill:#000000; fill-opacity:1; font-family:Arial,Helvetica Neue,Helvetica,sans-serif; font-size:118px; font-weight:bold; text-anchor:middle;" transform="rotate(0, 2943.34, 103.2)" x="2943.34" y="103.2">g(m)=sqrt(m)</text>
</g>
<path clip-path="url(#clip303)" d="M2209.71 806.294 L2270.84 806.655 L2331.98 806.79 L2393.12 809.931 L2454.25 811.225 L2515.39 813.077 L2576.52 805.185 L2637.66 808.105 L2698.8 808.96 L2759.93 810.426 L2821.07 797.044 L2882.2 788.832 L2943.34 783.68 L3004.47 704.273 L3065.61 617.103 L3126.75 553.077 L3187.88 515.065 L3249.02 501.383 L3310.15 491.036 L3371.29 491.685 L3432.43 487.539 L3493.56 485.862 L3554.7 483.44 L3615.83 481.562 L3676.97 480.755 L3676.97 162.695 L3615.83 165.839 L3554.7 168.081 L3493.56 170.673 L3432.43 175.345 L3371.29 180.238 L3310.15 191.033 L3249.02 203.709 L3187.88 225.941 L3126.75 253.526 L3065.61 308.918 L3004.47 352.337 L2943.34 610.916 L2882.2 642.91 L2821.07 659.12 L2759.93 632.005 L2698.8 608.178 L2637.66 581.253 L2576.52 558.467 L2515.39 536.506 L2454.25 515.596 L2393.12 511.163 L2331.98 506.891 L2270.84 498.265 L2209.71 497.189  Z" fill="#cccccc" fill-rule="evenodd" fill-opacity="0.5"/>
<polyline clip-path="url(#clip303)" style="stroke:#cccccc; stroke-linecap:round; stroke-linejoin:round; stroke-width:0; stroke-opacity:0; fill:none" points="2209.71,651.742 2270.84,652.46 2331.98,656.841 2393.12,660.547 2454.25,663.41 2515.39,674.792 2576.52,681.826 2637.66,694.679 2698.8,708.569 2759.93,721.216 2821.07,728.082 2882.2,715.871 2943.34,697.298 3004.47,528.305 3065.61,463.01 3126.75,403.301 3187.88,370.503 3249.02,352.546 3310.15,341.035 3371.29,335.961 3432.43,331.442 3493.56,328.268 3554.7,325.761 3615.83,323.701 3676.97,321.725 "/>
<polyline clip-path="url(#clip303)" style="stroke:#808080; stroke-linecap:round; stroke-linejoin:round; stroke-width:6; stroke-opacity:1; fill:none" points="2209.71,788.389 2270.84,788.427 2331.98,788.937 2393.12,789.74 2454.25,793.606 2515.39,797.106 2576.52,800.407 2637.66,801.223 2698.8,792.439 2759.93,793.354 2821.07,789.957 2882.2,781.162 2943.34,772.577 3004.47,692.273 3065.61,596.349 3126.75,533.956 3187.88,499.472 3249.02,473.395 3310.15,455.466 3371.29,444.248 3432.43,439.728 3493.56,437.654 3554.7,435.377 3615.83,431.643 3676.97,427.808 "/>
<polyline clip-path="url(#clip303)" style="stroke:#000000; stroke-linecap:round; stroke-linejoin:round; stroke-width:12; stroke-opacity:1; fill:none" points="2209.71,754.942 2270.84,755.408 2331.98,754.739 2393.12,756.105 2454.25,760.799 2515.39,761.174 2576.52,762.226 2637.66,769.927 2698.8,770.294 2759.93,768.781 2821.07,764.405 2882.2,753.635 2943.34,737.316 3004.47,642.441 3065.61,533.356 3126.75,472.285 3187.88,448.519 3249.02,435.241 3310.15,419.056 3371.29,411.906 3432.43,408.542 3493.56,404.261 3554.7,402.947 3615.83,402.367 3676.97,400.435 "/>
<polyline clip-path="url(#clip303)" style="stroke:#808080; stroke-linecap:round; stroke-linejoin:round; stroke-width:6; stroke-opacity:1; fill:none" points="2209.71,687.376 2270.84,688.159 2331.98,689.711 2393.12,692.826 2454.25,695.707 2515.39,701.1 2576.52,707.432 2637.66,710.3 2698.8,716.576 2759.93,716.228 2821.07,721.251 2882.2,695.728 2943.34,696.763 3004.47,548.395 3065.61,467.554 3126.75,400.076 3187.88,364.605 3249.02,346.222 3310.15,332.959 3371.29,321.743 3432.43,318.808 3493.56,316.71 3554.7,313.638 3615.83,312.172 3676.97,310.002 "/>
<path clip-path="url(#clip300)" d="M3887.22 1270.93 L5442.52 1270.93 L5442.52 130.417 L3887.22 130.417  Z" fill="#fafafa" fill-rule="evenodd" fill-opacity="1"/>
<defs>
  <clipPath id="clip304">
    <rect x="3887" y="130" width="1556" height="1142"/>
  </clipPath>
</defs>
<polyline clip-path="url(#clip304)" style="stroke:#000000; stroke-linecap:round; stroke-linejoin:round; stroke-width:2; stroke-opacity:0.1; fill:none" points="3931.24,1270.93 3931.24,130.417 "/>
<polyline clip-path="url(#clip304)" style="stroke:#000000; stroke-linecap:round; stroke-linejoin:round; stroke-width:2; stroke-opacity:0.1; fill:none" points="4298.06,1270.93 4298.06,130.417 "/>
<polyline clip-path="url(#clip304)" style="stroke:#000000; stroke-linecap:round; stroke-linejoin:round; stroke-width:2; stroke-opacity:0.1; fill:none" points="4664.87,1270.93 4664.87,130.417 "/>
<polyline clip-path="url(#clip304)" style="stroke:#000000; stroke-linecap:round; stroke-linejoin:round; stroke-width:2; stroke-opacity:0.1; fill:none" points="5031.69,1270.93 5031.69,130.417 "/>
<polyline clip-path="url(#clip304)" style="stroke:#000000; stroke-linecap:round; stroke-linejoin:round; stroke-width:2; stroke-opacity:0.1; fill:none" points="5398.5,1270.93 5398.5,130.417 "/>
<polyline clip-path="url(#clip300)" style="stroke:#000000; stroke-linecap:round; stroke-linejoin:round; stroke-width:4; stroke-opacity:0; fill:none" points="3931.24,1270.93 3931.24,1252.04 "/>
<polyline clip-path="url(#clip300)" style="stroke:#000000; stroke-linecap:round; stroke-linejoin:round; stroke-width:4; stroke-opacity:0; fill:none" points="4298.06,1270.93 4298.06,1252.04 "/>
<polyline clip-path="url(#clip300)" style="stroke:#000000; stroke-linecap:round; stroke-linejoin:round; stroke-width:4; stroke-opacity:0; fill:none" points="4664.87,1270.93 4664.87,1252.04 "/>
<polyline clip-path="url(#clip300)" style="stroke:#000000; stroke-linecap:round; stroke-linejoin:round; stroke-width:4; stroke-opacity:0; fill:none" points="5031.69,1270.93 5031.69,1252.04 "/>
<polyline clip-path="url(#clip300)" style="stroke:#000000; stroke-linecap:round; stroke-linejoin:round; stroke-width:4; stroke-opacity:0; fill:none" points="5398.5,1270.93 5398.5,1252.04 "/>
<path clip-path="url(#clip300)" d="M3888.84 1337.71 Q3882.07 1337.71 3878.64 1344.39 Q3875.25 1351.03 3875.25 1364.4 Q3875.25 1377.72 3878.64 1384.41 Q3882.07 1391.05 3888.84 1391.05 Q3895.65 1391.05 3899.04 1384.41 Q3902.47 1377.72 3902.47 1364.4 Q3902.47 1351.03 3899.04 1344.39 Q3895.65 1337.71 3888.84 1337.71 M3888.84 1330.76 Q3899.73 1330.76 3905.46 1339.4 Q3911.23 1347.99 3911.23 1364.4 Q3911.23 1380.76 3905.46 1389.4 Q3899.73 1397.99 3888.84 1397.99 Q3877.94 1397.99 3872.17 1389.4 Q3866.44 1380.76 3866.44 1364.4 Q3866.44 1347.99 3872.17 1339.4 Q3877.94 1330.76 3888.84 1330.76 Z" fill="#000000" fill-rule="nonzero" fill-opacity="1" /><path clip-path="url(#clip300)" d="M3926.64 1385.71 L3935.8 1385.71 L3935.8 1396.73 L3926.64 1396.73 L3926.64 1385.71 Z" fill="#000000" fill-rule="nonzero" fill-opacity="1" /><path clip-path="url(#clip300)" d="M3973.65 1337.71 Q3966.87 1337.71 3963.45 1344.39 Q3960.06 1351.03 3960.06 1364.4 Q3960.06 1377.72 3963.45 1384.41 Q3966.87 1391.05 3973.65 1391.05 Q3980.46 1391.05 3983.85 1384.41 Q3987.27 1377.72 3987.27 1364.4 Q3987.27 1351.03 3983.85 1344.39 Q3980.46 1337.71 3973.65 1337.71 M3973.65 1330.76 Q3984.54 1330.76 3990.27 1339.4 Q3996.04 1347.99 3996.04 1364.4 Q3996.04 1380.76 3990.27 1389.4 Q3984.54 1397.99 3973.65 1397.99 Q3962.75 1397.99 3956.98 1389.4 Q3951.25 1380.76 3951.25 1364.4 Q3951.25 1347.99 3956.98 1339.4 Q3962.75 1330.76 3973.65 1330.76 Z" fill="#000000" fill-rule="nonzero" fill-opacity="1" /><path clip-path="url(#clip300)" d="M4256.59 1337.71 Q4249.81 1337.71 4246.39 1344.39 Q4243 1351.03 4243 1364.4 Q4243 1377.72 4246.39 1384.41 Q4249.81 1391.05 4256.59 1391.05 Q4263.4 1391.05 4266.78 1384.41 Q4270.21 1377.72 4270.21 1364.4 Q4270.21 1351.03 4266.78 1344.39 Q4263.4 1337.71 4256.59 1337.71 M4256.59 1330.76 Q4267.48 1330.76 4273.21 1339.4 Q4278.98 1347.99 4278.98 1364.4 Q4278.98 1380.76 4273.21 1389.4 Q4267.48 1397.99 4256.59 1397.99 Q4245.69 1397.99 4239.92 1389.4 Q4234.19 1380.76 4234.19 1364.4 Q4234.19 1347.99 4239.92 1339.4 Q4245.69 1330.76 4256.59 1330.76 Z" fill="#000000" fill-rule="nonzero" fill-opacity="1" /><path clip-path="url(#clip300)" d="M4294.39 1385.71 L4303.55 1385.71 L4303.55 1396.73 L4294.39 1396.73 L4294.39 1385.71 Z" fill="#000000" fill-rule="nonzero" fill-opacity="1" /><path clip-path="url(#clip300)" d="M4322.73 1331.93 L4357.15 1331.93 L4357.15 1339.31 L4330.76 1339.31 L4330.76 1355.2 Q4332.67 1354.55 4334.58 1354.24 Q4336.49 1353.9 4338.4 1353.9 Q4349.25 1353.9 4355.59 1359.84 Q4361.92 1365.79 4361.92 1375.94 Q4361.92 1386.4 4355.41 1392.22 Q4348.9 1397.99 4337.05 1397.99 Q4332.97 1397.99 4328.72 1397.3 Q4324.51 1396.6 4320 1395.22 L4320 1386.4 Q4323.9 1388.53 4328.07 1389.57 Q4332.24 1390.61 4336.88 1390.61 Q4344.39 1390.61 4348.77 1386.66 Q4353.16 1382.72 4353.16 1375.94 Q4353.16 1369.17 4348.77 1365.22 Q4344.39 1361.27 4336.88 1361.27 Q4333.36 1361.27 4329.85 1362.06 Q4326.38 1362.84 4322.73 1364.49 L4322.73 1331.93 Z" fill="#000000" fill-rule="nonzero" fill-opacity="1" /><path clip-path="url(#clip300)" d="M4603.28 1389.36 L4617.61 1389.36 L4617.61 1339.92 L4602.02 1343.05 L4602.02 1335.06 L4617.52 1331.93 L4626.29 1331.93 L4626.29 1389.36 L4640.61 1389.36 L4640.61 1396.73 L4603.28 1396.73 L4603.28 1389.36 Z" fill="#000000" fill-rule="nonzero" fill-opacity="1" /><path clip-path="url(#clip300)" d="M4658.32 1385.71 L4667.48 1385.71 L4667.48 1396.73 L4658.32 1396.73 L4658.32 1385.71 Z" fill="#000000" fill-rule="nonzero" fill-opacity="1" /><path clip-path="url(#clip300)" d="M4705.32 1337.71 Q4698.55 1337.71 4695.12 1344.39 Q4691.74 1351.03 4691.74 1364.4 Q4691.74 1377.72 4695.12 1384.41 Q4698.55 1391.05 4705.32 1391.05 Q4712.14 1391.05 4715.52 1384.41 Q4718.95 1377.72 4718.95 1364.4 Q4718.95 1351.03 4715.52 1344.39 Q4712.14 1337.71 4705.32 1337.71 M4705.32 1330.76 Q4716.22 1330.76 4721.95 1339.4 Q4727.72 1347.99 4727.72 1364.4 Q4727.72 1380.76 4721.95 1389.4 Q4716.22 1397.99 4705.32 1397.99 Q4694.43 1397.99 4688.66 1389.4 Q4682.93 1380.76 4682.93 1364.4 Q4682.93 1347.99 4688.66 1339.4 Q4694.43 1330.76 4705.32 1330.76 Z" fill="#000000" fill-rule="nonzero" fill-opacity="1" /><path clip-path="url(#clip300)" d="M4971.03 1389.36 L4985.35 1389.36 L4985.35 1339.92 L4969.77 1343.05 L4969.77 1335.06 L4985.27 1331.93 L4994.03 1331.93 L4994.03 1389.36 L5008.36 1389.36 L5008.36 1396.73 L4971.03 1396.73 L4971.03 1389.36 Z" fill="#000000" fill-rule="nonzero" fill-opacity="1" /><path clip-path="url(#clip300)" d="M5026.07 1385.71 L5035.22 1385.71 L5035.22 1396.73 L5026.07 1396.73 L5026.07 1385.71 Z" fill="#000000" fill-rule="nonzero" fill-opacity="1" /><path clip-path="url(#clip300)" d="M5054.41 1331.93 L5088.83 1331.93 L5088.83 1339.31 L5062.44 1339.31 L5062.44 1355.2 Q5064.35 1354.55 5066.26 1354.24 Q5068.17 1353.9 5070.08 1353.9 Q5080.93 1353.9 5087.26 1359.84 Q5093.6 1365.79 5093.6 1375.94 Q5093.6 1386.4 5087.09 1392.22 Q5080.58 1397.99 5068.73 1397.99 Q5064.65 1397.99 5060.4 1397.3 Q5056.19 1396.6 5051.67 1395.22 L5051.67 1386.4 Q5055.58 1388.53 5059.75 1389.57 Q5063.91 1390.61 5068.56 1390.61 Q5076.07 1390.61 5080.45 1386.66 Q5084.83 1382.72 5084.83 1375.94 Q5084.83 1369.17 5080.45 1365.22 Q5076.07 1361.27 5068.56 1361.27 Q5065.04 1361.27 5061.53 1362.06 Q5058.05 1362.84 5054.41 1364.49 L5054.41 1331.93 Z" fill="#000000" fill-rule="nonzero" fill-opacity="1" /><path clip-path="url(#clip300)" d="M5344.57 1389.36 L5375.17 1389.36 L5375.17 1396.73 L5334.03 1396.73 L5334.03 1389.36 Q5339.02 1384.19 5347.61 1375.51 Q5356.25 1366.79 5358.46 1364.27 Q5362.67 1359.54 5364.32 1356.28 Q5366.02 1352.98 5366.02 1349.82 Q5366.02 1344.65 5362.37 1341.4 Q5358.77 1338.14 5352.95 1338.14 Q5348.83 1338.14 5344.23 1339.57 Q5339.67 1341.01 5334.46 1343.91 L5334.46 1335.06 Q5339.76 1332.93 5344.36 1331.85 Q5348.96 1330.76 5352.78 1330.76 Q5362.85 1330.76 5368.84 1335.8 Q5374.83 1340.83 5374.83 1349.25 Q5374.83 1353.25 5373.31 1356.85 Q5371.83 1360.41 5367.88 1365.27 Q5366.8 1366.53 5360.98 1372.56 Q5355.16 1378.55 5344.57 1389.36 Z" fill="#000000" fill-rule="nonzero" fill-opacity="1" /><path clip-path="url(#clip300)" d="M5393.58 1385.71 L5402.73 1385.71 L5402.73 1396.73 L5393.58 1396.73 L5393.58 1385.71 Z" fill="#000000" fill-rule="nonzero" fill-opacity="1" /><path clip-path="url(#clip300)" d="M5440.58 1337.71 Q5433.81 1337.71 5430.38 1344.39 Q5427 1351.03 5427 1364.4 Q5427 1377.72 5430.38 1384.41 Q5433.81 1391.05 5440.58 1391.05 Q5447.39 1391.05 5450.78 1384.41 Q5454.21 1377.72 5454.21 1364.4 Q5454.21 1351.03 5450.78 1344.39 Q5447.39 1337.71 5440.58 1337.71 M5440.58 1330.76 Q5451.47 1330.76 5457.2 1339.4 Q5462.98 1347.99 5462.98 1364.4 Q5462.98 1380.76 5457.2 1389.4 Q5451.47 1397.99 5440.58 1397.99 Q5429.69 1397.99 5423.91 1389.4 Q5418.18 1380.76 5418.18 1364.4 Q5418.18 1347.99 5423.91 1339.4 Q5429.69 1330.76 5440.58 1330.76 Z" fill="#000000" fill-rule="nonzero" fill-opacity="1" /><path clip-path="url(#clip300)" d="M4673.39 1518.31 L4671.1 1506.28 Q4668.75 1493.94 4659.48 1493.94 Q4652.5 1493.94 4649.32 1499.67 Q4645.31 1506.85 4645.31 1516.33 Q4645.31 1527.79 4649.22 1533.26 Q4653.18 1538.83 4659.48 1538.83 Q4666.46 1538.83 4670.21 1527.74 L4673.39 1518.31 M4678.75 1502.37 L4683.91 1487.11 L4692.45 1487.11 L4681.77 1518.73 L4683.86 1530.13 Q4684.32 1532.69 4686.15 1534.82 Q4688.28 1537.32 4689.95 1537.32 L4694.53 1537.32 L4694.53 1545.45 L4688.8 1545.45 Q4683.91 1545.45 4679.53 1541.07 Q4677.4 1538.88 4676.51 1534.3 Q4674.12 1540.08 4669.22 1544.61 Q4666.93 1546.75 4659.48 1546.75 Q4647.24 1546.75 4641.3 1538.83 Q4635.21 1530.65 4635.21 1516.33 Q4635.21 1501.02 4641.82 1493.83 Q4649.17 1485.81 4659.48 1485.81 Q4675.68 1485.81 4678.75 1502.37 Z" fill="#000000" fill-rule="nonzero" fill-opacity="1" /><polyline clip-path="url(#clip304)" style="stroke:#000000; stroke-linecap:round; stroke-linejoin:round; stroke-width:2; stroke-opacity:0.1; fill:none" points="3887.22,1195.46 5442.52,1195.46 "/>
<polyline clip-path="url(#clip304)" style="stroke:#000000; stroke-linecap:round; stroke-linejoin:round; stroke-width:2; stroke-opacity:0.1; fill:none" points="3887.22,1074.14 5442.52,1074.14 "/>
<polyline clip-path="url(#clip304)" style="stroke:#000000; stroke-linecap:round; stroke-linejoin:round; stroke-width:2; stroke-opacity:0.1; fill:none" points="3887.22,952.809 5442.52,952.809 "/>
<polyline clip-path="url(#clip304)" style="stroke:#000000; stroke-linecap:round; stroke-linejoin:round; stroke-width:2; stroke-opacity:0.1; fill:none" points="3887.22,831.482 5442.52,831.482 "/>
<polyline clip-path="url(#clip304)" style="stroke:#000000; stroke-linecap:round; stroke-linejoin:round; stroke-width:2; stroke-opacity:0.1; fill:none" points="3887.22,710.154 5442.52,710.154 "/>
<polyline clip-path="url(#clip304)" style="stroke:#000000; stroke-linecap:round; stroke-linejoin:round; stroke-width:2; stroke-opacity:0.1; fill:none" points="3887.22,588.827 5442.52,588.827 "/>
<polyline clip-path="url(#clip300)" style="stroke:#000000; stroke-linecap:round; stroke-linejoin:round; stroke-width:4; stroke-opacity:0; fill:none" points="3887.22,1195.46 3906.12,1195.46 "/>
<polyline clip-path="url(#clip300)" style="stroke:#000000; stroke-linecap:round; stroke-linejoin:round; stroke-width:4; stroke-opacity:0; fill:none" points="3887.22,1074.14 3906.12,1074.14 "/>
<polyline clip-path="url(#clip300)" style="stroke:#000000; stroke-linecap:round; stroke-linejoin:round; stroke-width:4; stroke-opacity:0; fill:none" points="3887.22,952.809 3906.12,952.809 "/>
<polyline clip-path="url(#clip300)" style="stroke:#000000; stroke-linecap:round; stroke-linejoin:round; stroke-width:4; stroke-opacity:0; fill:none" points="3887.22,831.482 3906.12,831.482 "/>
<polyline clip-path="url(#clip300)" style="stroke:#000000; stroke-linecap:round; stroke-linejoin:round; stroke-width:4; stroke-opacity:0; fill:none" points="3887.22,710.154 3906.12,710.154 "/>
<polyline clip-path="url(#clip300)" style="stroke:#000000; stroke-linecap:round; stroke-linejoin:round; stroke-width:4; stroke-opacity:0; fill:none" points="3887.22,588.827 3906.12,588.827 "/>
<g clip-path="url(#clip300)">
<text style="fill:#000000; fill-opacity:1; font-family:Arial,Helvetica Neue,Helvetica,sans-serif; font-size:118px; font-weight:bold; text-anchor:middle;" transform="rotate(0, 4664.87, 103.2)" x="4664.87" y="103.2">g(m)=m</text>
</g>
<path clip-path="url(#clip304)" d="M3931.24 806.294 L3992.38 807.384 L4053.51 807.663 L4114.65 817.256 L4175.78 830.733 L4236.92 842.626 L4298.06 853.403 L4359.19 874.544 L4420.33 891.184 L4481.46 901.582 L4542.6 935.248 L4603.74 953.5 L4664.87 979.715 L4726.01 1070.24 L4787.14 1112.54 L4848.28 1145.36 L4909.41 1163.19 L4970.55 1176.45 L5031.69 1186.91 L5092.82 1192.98 L5153.96 1202.16 L5215.09 1209.53 L5276.23 1215.7 L5337.37 1221.69 L5398.5 1238.66 L5398.5 1223.08 L5337.37 1206.39 L5276.23 1199.87 L5215.09 1196.95 L5153.96 1174.84 L5092.82 1172.09 L5031.69 1167.03 L4970.55 1159.5 L4909.41 1146.89 L4848.28 1126.62 L4787.14 1083.99 L4726.01 1008.17 L4664.87 880.289 L4603.74 847.675 L4542.6 809.718 L4481.46 787.285 L4420.33 762.525 L4359.19 706.244 L4298.06 663.787 L4236.92 616.924 L4175.78 572.051 L4114.65 545.878 L4053.51 520.591 L3992.38 499.905 L3931.24 497.189  Z" fill="#cccccc" fill-rule="evenodd" fill-opacity="0.5"/>
<polyline clip-path="url(#clip304)" style="stroke:#cccccc; stroke-linecap:round; stroke-linejoin:round; stroke-width:0; stroke-opacity:0; fill:none" points="3931.24,651.742 3992.38,653.645 4053.51,664.127 4114.65,681.567 4175.78,701.392 4236.92,729.775 4298.06,758.595 4359.19,790.394 4420.33,826.854 4481.46,844.434 4542.6,872.483 4603.74,900.588 4664.87,930.002 4726.01,1039.2 4787.14,1098.26 4848.28,1135.99 4909.41,1155.04 4970.55,1167.98 5031.69,1176.97 5092.82,1182.54 5153.96,1188.5 5215.09,1203.24 5276.23,1207.79 5337.37,1214.04 5398.5,1230.87 "/>
<polyline clip-path="url(#clip304)" style="stroke:#808080; stroke-linecap:round; stroke-linejoin:round; stroke-width:6; stroke-opacity:1; fill:none" points="3931.24,788.389 3992.38,788.831 4053.51,791.907 4114.65,796.914 4175.78,811.205 4236.92,830.303 4298.06,845.737 4359.19,856.522 4420.33,879.974 4481.46,899.899 4542.6,923.233 4603.74,947.753 4664.87,965.957 4726.01,1063.83 4787.14,1107.4 4848.28,1143.99 4909.41,1161.74 4970.55,1174.87 5031.69,1182.52 5092.82,1191.64 5153.96,1199.7 5215.09,1206.53 5276.23,1212.97 5337.37,1220.19 5398.5,1236.33 "/>
<polyline clip-path="url(#clip304)" style="stroke:#000000; stroke-linecap:round; stroke-linejoin:round; stroke-width:12; stroke-opacity:1; fill:none" points="3931.24,754.942 3992.38,756.19 4053.51,771.48 4114.65,774.851 4175.78,785.388 4236.92,799.468 4298.06,818.87 4359.19,836.921 4420.33,854.89 4481.46,871.722 4542.6,896.173 4603.74,919.306 4664.87,956.077 4726.01,1052.73 4787.14,1103.59 4848.28,1139.09 4909.41,1156.9 4970.55,1170.59 5031.69,1177.78 5092.82,1185.15 5153.96,1195.66 5215.09,1201.14 5276.23,1207.06 5337.37,1217.11 5398.5,1232 "/>
<polyline clip-path="url(#clip304)" style="stroke:#808080; stroke-linecap:round; stroke-linejoin:round; stroke-width:6; stroke-opacity:1; fill:none" points="3931.24,687.376 3992.38,689.385 4053.51,693.88 4114.65,704.542 4175.78,712.504 4236.92,733.37 4298.06,749.37 4359.19,769.67 4420.33,793.876 4481.46,821.216 4542.6,863.382 4603.74,894.777 4664.87,920.614 4726.01,1037.61 4787.14,1088.86 4848.28,1129.06 4909.41,1150.23 4970.55,1163.4 5031.69,1171.48 5092.82,1174.99 5153.96,1188.43 5215.09,1198.6 5276.23,1203.07 5337.37,1210.58 5398.5,1229.55 "/>
</svg>
