<?xml version="1.0" encoding="utf-8"?>
<svg xmlns="http://www.w3.org/2000/svg" xmlns:xlink="http://www.w3.org/1999/xlink" width="1400" height="400" viewBox="0 0 5600 1600">
<defs>
  <clipPath id="clip400">
    <rect x="0" y="0" width="5600" height="1600"/>
  </clipPath>
</defs>
<path clip-path="url(#clip400)" d="M0 1600 L5600 1600 L5600 0 L0 0  Z" fill="#ffffff" fill-rule="evenodd" fill-opacity="1"/>
<defs>
  <clipPath id="clip401">
    <rect x="1120" y="0" width="3921" height="1600"/>
  </clipPath>
</defs>
<path clip-path="url(#clip400)" d="M758.886 1302.43 L2209.27 1302.43 L2209.27 130.417 L758.886 130.417  Z" fill="#fafafa" fill-rule="evenodd" fill-opacity="1"/>
<defs>
  <clipPath id="clip402">
    <rect x="758" y="130" width="1451" height="1173"/>
  </clipPath>
</defs>
<polyline clip-path="url(#clip402)" style="stroke:#000000; stroke-linecap:round; stroke-linejoin:round; stroke-width:2; stroke-opacity:0.1; fill:none" points="799.935,1302.43 799.935,130.417 "/>
<polyline clip-path="url(#clip402)" style="stroke:#000000; stroke-linecap:round; stroke-linejoin:round; stroke-width:2; stroke-opacity:0.1; fill:none" points="1142.01,1302.43 1142.01,130.417 "/>
<polyline clip-path="url(#clip402)" style="stroke:#000000; stroke-linecap:round; stroke-linejoin:round; stroke-width:2; stroke-opacity:0.1; fill:none" points="1484.08,1302.43 1484.08,130.417 "/>
<polyline clip-path="url(#clip402)" style="stroke:#000000; stroke-linecap:round; stroke-linejoin:round; stroke-width:2; stroke-opacity:0.1; fill:none" points="1826.15,1302.43 1826.15,130.417 "/>
<polyline clip-path="url(#clip402)" style="stroke:#000000; stroke-linecap:round; stroke-linejoin:round; stroke-width:2; stroke-opacity:0.1; fill:none" points="2168.22,1302.43 2168.22,130.417 "/>
<polyline clip-path="url(#clip400)" style="stroke:#000000; stroke-linecap:round; stroke-linejoin:round; stroke-width:4; stroke-opacity:0; fill:none" points="799.935,1302.43 799.935,1283.53 "/>
<polyline clip-path="url(#clip400)" style="stroke:#000000; stroke-linecap:round; stroke-linejoin:round; stroke-width:4; stroke-opacity:0; fill:none" points="1142.01,1302.43 1142.01,1283.53 "/>
<polyline clip-path="url(#clip400)" style="stroke:#000000; stroke-linecap:round; stroke-linejoin:round; stroke-width:4; stroke-opacity:0; fill:none" points="1484.08,1302.43 1484.08,1283.53 "/>
<polyline clip-path="url(#clip400)" style="stroke:#000000; stroke-linecap:round; stroke-linejoin:round; stroke-width:4; stroke-opacity:0; fill:none" points="1826.15,1302.43 1826.15,1283.53 "/>
<polyline clip-path="url(#clip400)" style="stroke:#000000; stroke-linecap:round; stroke-linejoin:round; stroke-width:4; stroke-opacity:0; fill:none" points="2168.22,1302.43 2168.22,1283.53 "/>
<path clip-path="url(#clip400)" d="M757.531 1369.2 Q750.76 1369.2 747.331 1375.89 Q743.946 1382.53 743.946 1395.9 Q743.946 1409.22 747.331 1415.9 Q750.76 1422.54 757.531 1422.54 Q764.345 1422.54 767.73 1415.9 Q771.159 1409.22 771.159 1395.9 Q771.159 1382.53 767.73 1375.89 Q764.345 1369.2 757.531 1369.2 M757.531 1362.26 Q768.425 1362.26 774.154 1370.9 Q779.927 1379.49 779.927 1395.9 Q779.927 1412.26 774.154 1420.9 Q768.425 1429.49 757.531 1429.49 Q746.637 1429.49 740.864 1420.9 Q735.135 1412.26 735.135 1395.9 Q735.135 1379.49 740.864 1370.9 Q746.637 1362.26 757.531 1362.26 Z" fill="#000000" fill-rule="nonzero" fill-opacity="1" /><path clip-path="url(#clip400)" d="M795.334 1417.21 L804.492 1417.21 L804.492 1428.23 L795.334 1428.23 L795.334 1417.21 Z" fill="#000000" fill-rule="nonzero" fill-opacity="1" /><path clip-path="url(#clip400)" d="M842.339 1369.2 Q835.569 1369.2 832.14 1375.89 Q828.754 1382.53 828.754 1395.9 Q828.754 1409.22 832.14 1415.9 Q835.569 1422.54 842.339 1422.54 Q849.154 1422.54 852.539 1415.9 Q855.968 1409.22 855.968 1395.9 Q855.968 1382.53 852.539 1375.89 Q849.154 1369.2 842.339 1369.2 M842.339 1362.26 Q853.233 1362.26 858.963 1370.9 Q864.735 1379.49 864.735 1395.9 Q864.735 1412.26 858.963 1420.9 Q853.233 1429.49 842.339 1429.49 Q831.445 1429.49 825.673 1420.9 Q819.944 1412.26 819.944 1395.9 Q819.944 1379.49 825.673 1370.9 Q831.445 1362.26 842.339 1362.26 Z" fill="#000000" fill-rule="nonzero" fill-opacity="1" /><path clip-path="url(#clip400)" d="M1100.54 1369.2 Q1093.77 1369.2 1090.34 1375.89 Q1086.95 1382.53 1086.95 1395.9 Q1086.95 1409.22 1090.34 1415.9 Q1093.77 1422.54 1100.54 1422.54 Q1107.35 1422.54 1110.74 1415.9 Q1114.16 1409.22 1114.16 1395.9 Q1114.16 1382.53 1110.74 1375.89 Q1107.35 1369.2 1100.54 1369.2 M1100.54 1362.26 Q1111.43 1362.26 1117.16 1370.9 Q1122.93 1379.49 1122.93 1395.9 Q1122.93 1412.26 1117.16 1420.9 Q1111.43 1429.49 1100.54 1429.49 Q1089.64 1429.49 1083.87 1420.9 Q1078.14 1412.26 1078.14 1395.9 Q1078.14 1379.49 1083.87 1370.9 Q1089.64 1362.26 1100.54 1362.26 Z" fill="#000000" fill-rule="nonzero" fill-opacity="1" /><path clip-path="url(#clip400)" d="M1138.34 1417.21 L1147.5 1417.21 L1147.5 1428.23 L1138.34 1428.23 L1138.34 1417.21 Z" fill="#000000" fill-rule="nonzero" fill-opacity="1" /><path clip-path="url(#clip400)" d="M1166.68 1363.43 L1201.1 1363.43 L1201.1 1370.81 L1174.71 1370.81 L1174.71 1386.69 Q1176.62 1386.04 1178.53 1385.74 Q1180.44 1385.39 1182.35 1385.39 Q1193.2 1385.39 1199.54 1391.34 Q1205.87 1397.28 1205.87 1407.44 Q1205.87 1417.9 1199.36 1423.72 Q1192.85 1429.49 1181 1429.49 Q1176.92 1429.49 1172.67 1428.79 Q1168.46 1428.1 1163.95 1426.71 L1163.95 1417.9 Q1167.85 1420.03 1172.02 1421.07 Q1176.19 1422.11 1180.83 1422.11 Q1188.34 1422.11 1192.72 1418.16 Q1197.11 1414.21 1197.11 1407.44 Q1197.11 1400.67 1192.72 1396.72 Q1188.34 1392.77 1180.83 1392.77 Q1177.32 1392.77 1173.8 1393.55 Q1170.33 1394.33 1166.68 1395.98 L1166.68 1363.43 Z" fill="#000000" fill-rule="nonzero" fill-opacity="1" /><path clip-path="url(#clip400)" d="M1422.49 1420.85 L1436.81 1420.85 L1436.81 1371.42 L1421.23 1374.54 L1421.23 1366.56 L1436.73 1363.43 L1445.5 1363.43 L1445.5 1420.85 L1459.82 1420.85 L1459.82 1428.23 L1422.49 1428.23 L1422.49 1420.85 Z" fill="#000000" fill-rule="nonzero" fill-opacity="1" /><path clip-path="url(#clip400)" d="M1477.53 1417.21 L1486.68 1417.21 L1486.68 1428.23 L1477.53 1428.23 L1477.53 1417.21 Z" fill="#000000" fill-rule="nonzero" fill-opacity="1" /><path clip-path="url(#clip400)" d="M1524.53 1369.2 Q1517.76 1369.2 1514.33 1375.89 Q1510.95 1382.53 1510.95 1395.9 Q1510.95 1409.22 1514.33 1415.9 Q1517.76 1422.54 1524.53 1422.54 Q1531.35 1422.54 1534.73 1415.9 Q1538.16 1409.22 1538.16 1395.9 Q1538.16 1382.53 1534.73 1375.89 Q1531.35 1369.2 1524.53 1369.2 M1524.53 1362.26 Q1535.43 1362.26 1541.15 1370.9 Q1546.93 1379.49 1546.93 1395.9 Q1546.93 1412.26 1541.15 1420.9 Q1535.43 1429.49 1524.53 1429.49 Q1513.64 1429.49 1507.86 1420.9 Q1502.14 1412.26 1502.14 1395.9 Q1502.14 1379.49 1507.86 1370.9 Q1513.64 1362.26 1524.53 1362.26 Z" fill="#000000" fill-rule="nonzero" fill-opacity="1" /><path clip-path="url(#clip400)" d="M1765.5 1420.85 L1779.82 1420.85 L1779.82 1371.42 L1764.24 1374.54 L1764.24 1366.56 L1779.73 1363.43 L1788.5 1363.43 L1788.5 1420.85 L1802.82 1420.85 L1802.82 1428.23 L1765.5 1428.23 L1765.5 1420.85 Z" fill="#000000" fill-rule="nonzero" fill-opacity="1" /><path clip-path="url(#clip400)" d="M1820.53 1417.21 L1829.69 1417.21 L1829.69 1428.23 L1820.53 1428.23 L1820.53 1417.21 Z" fill="#000000" fill-rule="nonzero" fill-opacity="1" /><path clip-path="url(#clip400)" d="M1848.87 1363.43 L1883.29 1363.43 L1883.29 1370.81 L1856.9 1370.81 L1856.9 1386.69 Q1858.81 1386.04 1860.72 1385.74 Q1862.63 1385.39 1864.54 1385.39 Q1875.39 1385.39 1881.73 1391.34 Q1888.07 1397.28 1888.07 1407.44 Q1888.07 1417.9 1881.56 1423.72 Q1875.05 1429.49 1863.2 1429.49 Q1859.12 1429.49 1854.86 1428.79 Q1850.65 1428.1 1846.14 1426.71 L1846.14 1417.9 Q1850.05 1420.03 1854.21 1421.07 Q1858.38 1422.11 1863.02 1422.11 Q1870.53 1422.11 1874.92 1418.16 Q1879.3 1414.21 1879.3 1407.44 Q1879.3 1400.67 1874.92 1396.72 Q1870.53 1392.77 1863.02 1392.77 Q1859.51 1392.77 1855.99 1393.55 Q1852.52 1394.33 1848.87 1395.98 L1848.87 1363.43 Z" fill="#000000" fill-rule="nonzero" fill-opacity="1" /><path clip-path="url(#clip400)" d="M2114.3 1420.85 L2144.9 1420.85 L2144.9 1428.23 L2103.75 1428.23 L2103.75 1420.85 Q2108.74 1415.69 2117.34 1407.01 Q2125.97 1398.28 2128.19 1395.77 Q2132.4 1391.03 2134.05 1387.78 Q2135.74 1384.48 2135.74 1381.31 Q2135.74 1376.15 2132.09 1372.89 Q2128.49 1369.64 2122.67 1369.64 Q2118.55 1369.64 2113.95 1371.07 Q2109.39 1372.5 2104.18 1375.41 L2104.18 1366.56 Q2109.48 1364.43 2114.08 1363.34 Q2118.68 1362.26 2122.5 1362.26 Q2132.57 1362.26 2138.56 1367.29 Q2144.55 1372.33 2144.55 1380.75 Q2144.55 1384.74 2143.03 1388.34 Q2141.55 1391.9 2137.6 1396.76 Q2136.52 1398.02 2130.7 1404.06 Q2124.89 1410.04 2114.3 1420.85 Z" fill="#000000" fill-rule="nonzero" fill-opacity="1" /><path clip-path="url(#clip400)" d="M2163.3 1417.21 L2172.46 1417.21 L2172.46 1428.23 L2163.3 1428.23 L2163.3 1417.21 Z" fill="#000000" fill-rule="nonzero" fill-opacity="1" /><path clip-path="url(#clip400)" d="M2210.3 1369.2 Q2203.53 1369.2 2200.1 1375.89 Q2196.72 1382.53 2196.72 1395.9 Q2196.72 1409.22 2200.1 1415.9 Q2203.53 1422.54 2210.3 1422.54 Q2217.12 1422.54 2220.5 1415.9 Q2223.93 1409.22 2223.93 1395.9 Q2223.93 1382.53 2220.5 1375.89 Q2217.12 1369.2 2210.3 1369.2 M2210.3 1362.26 Q2221.2 1362.26 2226.93 1370.9 Q2232.7 1379.49 2232.7 1395.9 Q2232.7 1412.26 2226.93 1420.9 Q2221.2 1429.49 2210.3 1429.49 Q2199.41 1429.49 2193.64 1420.9 Q2187.91 1412.26 2187.91 1395.9 Q2187.91 1379.49 2193.64 1370.9 Q2199.41 1362.26 2210.3 1362.26 Z" fill="#000000" fill-rule="nonzero" fill-opacity="1" /><path clip-path="url(#clip400)" d="M1492.6 1549.81 L1490.3 1537.78 Q1487.96 1525.43 1478.69 1525.43 Q1471.71 1525.43 1468.53 1531.16 Q1464.52 1538.35 1464.52 1547.83 Q1464.52 1559.29 1468.43 1564.75 Q1472.39 1570.33 1478.69 1570.33 Q1485.67 1570.33 1489.42 1559.23 L1492.6 1549.81 M1497.96 1533.87 L1503.12 1518.61 L1511.66 1518.61 L1500.98 1550.22 L1503.06 1561.63 Q1503.53 1564.18 1505.36 1566.32 Q1507.49 1568.82 1509.16 1568.82 L1513.74 1568.82 L1513.74 1576.94 L1508.01 1576.94 Q1503.12 1576.94 1498.74 1572.57 Q1496.61 1570.38 1495.72 1565.8 Q1493.32 1571.58 1488.43 1576.11 Q1486.14 1578.24 1478.69 1578.24 Q1466.45 1578.24 1460.51 1570.33 Q1454.42 1562.15 1454.42 1547.83 Q1454.42 1532.52 1461.03 1525.33 Q1468.38 1517.31 1478.69 1517.31 Q1494.89 1517.31 1497.96 1533.87 Z" fill="#000000" fill-rule="nonzero" fill-opacity="1" /><polyline clip-path="url(#clip402)" style="stroke:#000000; stroke-linecap:round; stroke-linejoin:round; stroke-width:2; stroke-opacity:0.1; fill:none" points="758.886,1071.59 2209.27,1071.59 "/>
<polyline clip-path="url(#clip402)" style="stroke:#000000; stroke-linecap:round; stroke-linejoin:round; stroke-width:2; stroke-opacity:0.1; fill:none" points="758.886,826.159 2209.27,826.159 "/>
<polyline clip-path="url(#clip402)" style="stroke:#000000; stroke-linecap:round; stroke-linejoin:round; stroke-width:2; stroke-opacity:0.1; fill:none" points="758.886,580.726 2209.27,580.726 "/>
<polyline clip-path="url(#clip402)" style="stroke:#000000; stroke-linecap:round; stroke-linejoin:round; stroke-width:2; stroke-opacity:0.1; fill:none" points="758.886,335.292 2209.27,335.292 "/>
<polyline clip-path="url(#clip400)" style="stroke:#000000; stroke-linecap:round; stroke-linejoin:round; stroke-width:4; stroke-opacity:0; fill:none" points="758.886,1071.59 777.784,1071.59 "/>
<polyline clip-path="url(#clip400)" style="stroke:#000000; stroke-linecap:round; stroke-linejoin:round; stroke-width:4; stroke-opacity:0; fill:none" points="758.886,826.159 777.784,826.159 "/>
<polyline clip-path="url(#clip400)" style="stroke:#000000; stroke-linecap:round; stroke-linejoin:round; stroke-width:4; stroke-opacity:0; fill:none" points="758.886,580.726 777.784,580.726 "/>
<polyline clip-path="url(#clip400)" style="stroke:#000000; stroke-linecap:round; stroke-linejoin:round; stroke-width:4; stroke-opacity:0; fill:none" points="758.886,335.292 777.784,335.292 "/>
<path clip-path="url(#clip400)" d="M334.833 1108.7 L365.432 1108.7 L365.432 1116.08 L324.286 1116.08 L324.286 1108.7 Q329.277 1103.54 337.871 1094.86 Q346.508 1086.13 348.722 1083.62 Q352.932 1078.89 354.581 1075.63 Q356.274 1072.33 356.274 1069.16 Q356.274 1064 352.628 1060.74 Q349.026 1057.49 343.21 1057.49 Q339.086 1057.49 334.486 1058.92 Q329.928 1060.35 324.72 1063.26 L324.72 1054.41 Q330.015 1052.28 334.616 1051.2 Q339.217 1050.11 343.036 1050.11 Q353.105 1050.11 359.095 1055.15 Q365.085 1060.18 365.085 1068.6 Q365.085 1072.59 363.565 1076.2 Q362.09 1079.75 358.14 1084.62 Q357.055 1085.87 351.239 1091.91 Q345.423 1097.9 334.833 1108.7 Z" fill="#000000" fill-rule="nonzero" fill-opacity="1" /><path clip-path="url(#clip400)" d="M383.834 1105.06 L392.992 1105.06 L392.992 1116.08 L383.834 1116.08 L383.834 1105.06 Z" fill="#000000" fill-rule="nonzero" fill-opacity="1" /><path clip-path="url(#clip400)" d="M430.839 1057.05 Q424.069 1057.05 420.64 1063.74 Q417.254 1070.38 417.254 1083.75 Q417.254 1097.07 420.64 1103.76 Q424.069 1110.4 430.839 1110.4 Q437.654 1110.4 441.039 1103.76 Q444.468 1097.07 444.468 1083.75 Q444.468 1070.38 441.039 1063.74 Q437.654 1057.05 430.839 1057.05 M430.839 1050.11 Q441.733 1050.11 447.463 1058.75 Q453.235 1067.34 453.235 1083.75 Q453.235 1100.11 447.463 1108.75 Q441.733 1117.34 430.839 1117.34 Q419.945 1117.34 414.173 1108.75 Q408.444 1100.11 408.444 1083.75 Q408.444 1067.34 414.173 1058.75 Q419.945 1050.11 430.839 1050.11 Z" fill="#000000" fill-rule="nonzero" fill-opacity="1" /><path clip-path="url(#clip400)" d="M521.464 1068.34 L501.629 1088.26 L521.464 1108.1 L516.299 1113.35 L496.377 1093.43 L476.455 1113.35 L471.334 1108.1 L491.126 1088.26 L471.334 1068.34 L476.455 1063.09 L496.377 1083.01 L516.299 1063.09 L521.464 1068.34 Z" fill="#000000" fill-rule="nonzero" fill-opacity="1" /><path clip-path="url(#clip400)" d="M544.641 1108.7 L558.964 1108.7 L558.964 1059.27 L543.382 1062.39 L543.382 1054.41 L558.877 1051.28 L567.644 1051.28 L567.644 1108.7 L581.967 1108.7 L581.967 1116.08 L544.641 1116.08 L544.641 1108.7 Z" fill="#000000" fill-rule="nonzero" fill-opacity="1" /><path clip-path="url(#clip400)" d="M618.425 1057.05 Q611.654 1057.05 608.226 1063.74 Q604.84 1070.38 604.84 1083.75 Q604.84 1097.07 608.226 1103.76 Q611.654 1110.4 618.425 1110.4 Q625.239 1110.4 628.625 1103.76 Q632.054 1097.07 632.054 1083.75 Q632.054 1070.38 628.625 1063.74 Q625.239 1057.05 618.425 1057.05 M618.425 1050.11 Q629.319 1050.11 635.048 1058.75 Q640.821 1067.34 640.821 1083.75 Q640.821 1100.11 635.048 1108.75 Q629.319 1117.34 618.425 1117.34 Q607.531 1117.34 601.759 1108.75 Q596.029 1100.11 596.029 1083.75 Q596.029 1067.34 601.759 1058.75 Q607.531 1050.11 618.425 1050.11 Z" fill="#000000" fill-rule="nonzero" fill-opacity="1" /><path clip-path="url(#clip400)" d="M643.043 1012.04 L671.007 1012.04 L671.007 1018.03 L649.566 1018.03 L649.566 1030.94 Q651.118 1030.41 652.67 1030.16 Q654.221 1029.88 655.773 1029.88 Q664.589 1029.88 669.738 1034.71 Q674.886 1039.54 674.886 1047.8 Q674.886 1056.29 669.597 1061.02 Q664.307 1065.71 654.68 1065.71 Q651.365 1065.71 647.909 1065.15 Q644.488 1064.58 640.821 1063.45 L640.821 1056.29 Q643.995 1058.02 647.38 1058.87 Q650.765 1059.72 654.539 1059.72 Q660.64 1059.72 664.201 1056.51 Q667.763 1053.3 667.763 1047.8 Q667.763 1042.29 664.201 1039.09 Q660.64 1035.88 654.539 1035.88 Q651.682 1035.88 648.826 1036.51 Q646.005 1037.15 643.043 1038.49 L643.043 1012.04 Z" fill="#000000" fill-rule="nonzero" fill-opacity="1" /><path clip-path="url(#clip400)" d="M351.369 813.488 L329.234 848.079 L351.369 848.079 L351.369 813.488 M349.069 805.849 L360.093 805.849 L360.093 848.079 L369.338 848.079 L369.338 855.371 L360.093 855.371 L360.093 870.649 L351.369 870.649 L351.369 855.371 L322.116 855.371 L322.116 846.907 L349.069 805.849 Z" fill="#000000" fill-rule="nonzero" fill-opacity="1" /><path clip-path="url(#clip400)" d="M383.834 859.624 L392.992 859.624 L392.992 870.649 L383.834 870.649 L383.834 859.624 Z" fill="#000000" fill-rule="nonzero" fill-opacity="1" /><path clip-path="url(#clip400)" d="M430.839 811.621 Q424.069 811.621 420.64 818.305 Q417.254 824.946 417.254 838.314 Q417.254 851.638 420.64 858.322 Q424.069 864.963 430.839 864.963 Q437.654 864.963 441.039 858.322 Q444.468 851.638 444.468 838.314 Q444.468 824.946 441.039 818.305 Q437.654 811.621 430.839 811.621 M430.839 804.677 Q441.733 804.677 447.463 813.314 Q453.235 821.908 453.235 838.314 Q453.235 854.677 447.463 863.314 Q441.733 871.907 430.839 871.907 Q419.945 871.907 414.173 863.314 Q408.444 854.677 408.444 838.314 Q408.444 821.908 414.173 813.314 Q419.945 804.677 430.839 804.677 Z" fill="#000000" fill-rule="nonzero" fill-opacity="1" /><path clip-path="url(#clip400)" d="M521.464 822.906 L501.629 842.828 L521.464 862.663 L516.299 867.914 L496.377 847.993 L476.455 867.914 L471.334 862.663 L491.126 842.828 L471.334 822.906 L476.455 817.654 L496.377 837.576 L516.299 817.654 L521.464 822.906 Z" fill="#000000" fill-rule="nonzero" fill-opacity="1" /><path clip-path="url(#clip400)" d="M544.641 863.27 L558.964 863.27 L558.964 813.835 L543.382 816.96 L543.382 808.974 L558.877 805.849 L567.644 805.849 L567.644 863.27 L581.967 863.27 L581.967 870.649 L544.641 870.649 L544.641 863.27 Z" fill="#000000" fill-rule="nonzero" fill-opacity="1" /><path clip-path="url(#clip400)" d="M618.425 811.621 Q611.654 811.621 608.226 818.305 Q604.84 824.946 604.84 838.314 Q604.84 851.638 608.226 858.322 Q611.654 864.963 618.425 864.963 Q625.239 864.963 628.625 858.322 Q632.054 851.638 632.054 838.314 Q632.054 824.946 628.625 818.305 Q625.239 811.621 618.425 811.621 M618.425 804.677 Q629.319 804.677 635.048 813.314 Q640.821 821.908 640.821 838.314 Q640.821 854.677 635.048 863.314 Q629.319 871.907 618.425 871.907 Q607.531 871.907 601.759 863.314 Q596.029 854.677 596.029 838.314 Q596.029 821.908 601.759 813.314 Q607.531 804.677 618.425 804.677 Z" fill="#000000" fill-rule="nonzero" fill-opacity="1" /><path clip-path="url(#clip400)" d="M643.043 766.604 L671.007 766.604 L671.007 772.599 L649.566 772.599 L649.566 785.506 Q651.118 784.977 652.67 784.73 Q654.221 784.448 655.773 784.448 Q664.589 784.448 669.738 789.279 Q674.886 794.111 674.886 802.362 Q674.886 810.861 669.597 815.587 Q664.307 820.277 654.68 820.277 Q651.365 820.277 647.909 819.713 Q644.488 819.148 640.821 818.02 L640.821 810.861 Q643.995 812.589 647.38 813.436 Q650.765 814.282 654.539 814.282 Q660.64 814.282 664.201 811.073 Q667.763 807.864 667.763 802.362 Q667.763 796.861 664.201 793.652 Q660.64 790.443 654.539 790.443 Q651.682 790.443 648.826 791.078 Q646.005 791.713 643.043 793.053 L643.043 766.604 Z" fill="#000000" fill-rule="nonzero" fill-opacity="1" /><path clip-path="url(#clip400)" d="M347.116 589.321 Q341.213 589.321 337.741 593.358 Q334.312 597.394 334.312 604.425 Q334.312 611.413 337.741 615.493 Q341.213 619.529 347.116 619.529 Q353.019 619.529 356.447 615.493 Q359.92 611.413 359.92 604.425 Q359.92 597.394 356.447 593.358 Q353.019 589.321 347.116 589.321 M364.52 561.847 L364.52 569.833 Q361.222 568.271 357.836 567.446 Q354.494 566.622 351.196 566.622 Q342.515 566.622 337.915 572.481 Q333.357 578.34 332.706 590.189 Q335.267 586.413 339.13 584.417 Q342.993 582.377 347.637 582.377 Q357.402 582.377 363.045 588.323 Q368.73 594.226 368.73 604.425 Q368.73 614.408 362.828 620.441 Q356.925 626.474 347.116 626.474 Q335.875 626.474 329.928 617.88 Q323.982 609.243 323.982 592.88 Q323.982 577.516 331.274 568.401 Q338.566 559.243 350.848 559.243 Q354.147 559.243 357.489 559.894 Q360.874 560.545 364.52 561.847 Z" fill="#000000" fill-rule="nonzero" fill-opacity="1" /><path clip-path="url(#clip400)" d="M383.834 614.191 L392.992 614.191 L392.992 625.215 L383.834 625.215 L383.834 614.191 Z" fill="#000000" fill-rule="nonzero" fill-opacity="1" /><path clip-path="url(#clip400)" d="M430.839 566.188 Q424.069 566.188 420.64 572.872 Q417.254 579.512 417.254 592.88 Q417.254 606.205 420.64 612.889 Q424.069 619.529 430.839 619.529 Q437.654 619.529 441.039 612.889 Q444.468 606.205 444.468 592.88 Q444.468 579.512 441.039 572.872 Q437.654 566.188 430.839 566.188 M430.839 559.243 Q441.733 559.243 447.463 567.88 Q453.235 576.474 453.235 592.88 Q453.235 609.243 447.463 617.88 Q441.733 626.474 430.839 626.474 Q419.945 626.474 414.173 617.88 Q408.444 609.243 408.444 592.88 Q408.444 576.474 414.173 567.88 Q419.945 559.243 430.839 559.243 Z" fill="#000000" fill-rule="nonzero" fill-opacity="1" /><path clip-path="url(#clip400)" d="M521.464 577.472 L501.629 597.394 L521.464 617.229 L516.299 622.481 L496.377 602.559 L476.455 622.481 L471.334 617.229 L491.126 597.394 L471.334 577.472 L476.455 572.221 L496.377 592.142 L516.299 572.221 L521.464 577.472 Z" fill="#000000" fill-rule="nonzero" fill-opacity="1" /><path clip-path="url(#clip400)" d="M544.641 617.837 L558.964 617.837 L558.964 568.401 L543.382 571.526 L543.382 563.54 L558.877 560.415 L567.644 560.415 L567.644 617.837 L581.967 617.837 L581.967 625.215 L544.641 625.215 L544.641 617.837 Z" fill="#000000" fill-rule="nonzero" fill-opacity="1" /><path clip-path="url(#clip400)" d="M618.425 566.188 Q611.654 566.188 608.226 572.872 Q604.84 579.512 604.84 592.88 Q604.84 606.205 608.226 612.889 Q611.654 619.529 618.425 619.529 Q625.239 619.529 628.625 612.889 Q632.054 606.205 632.054 592.88 Q632.054 579.512 628.625 572.872 Q625.239 566.188 618.425 566.188 M618.425 559.243 Q629.319 559.243 635.048 567.88 Q640.821 576.474 640.821 592.88 Q640.821 609.243 635.048 617.88 Q629.319 626.474 618.425 626.474 Q607.531 626.474 601.759 617.88 Q596.029 609.243 596.029 592.88 Q596.029 576.474 601.759 567.88 Q607.531 559.243 618.425 559.243 Z" fill="#000000" fill-rule="nonzero" fill-opacity="1" /><path clip-path="url(#clip400)" d="M643.043 521.171 L671.007 521.171 L671.007 527.166 L649.566 527.166 L649.566 540.072 Q651.118 539.543 652.67 539.297 Q654.221 539.014 655.773 539.014 Q664.589 539.014 669.738 543.846 Q674.886 548.677 674.886 556.929 Q674.886 565.428 669.597 570.153 Q664.307 574.843 654.68 574.843 Q651.365 574.843 647.909 574.279 Q644.488 573.715 640.821 572.586 L640.821 565.428 Q643.995 567.156 647.38 568.002 Q650.765 568.848 654.539 568.848 Q660.64 568.848 664.201 565.639 Q667.763 562.43 667.763 556.929 Q667.763 551.428 664.201 548.219 Q660.64 545.009 654.539 545.009 Q651.682 545.009 648.826 545.644 Q646.005 546.279 643.043 547.619 L643.043 521.171 Z" fill="#000000" fill-rule="nonzero" fill-opacity="1" /><path clip-path="url(#clip400)" d="M346.031 349.009 Q339.781 349.009 336.178 352.351 Q332.619 355.693 332.619 361.552 Q332.619 367.412 336.178 370.754 Q339.781 374.096 346.031 374.096 Q352.281 374.096 355.883 370.754 Q359.486 367.368 359.486 361.552 Q359.486 355.693 355.883 352.351 Q352.324 349.009 346.031 349.009 M337.263 345.276 Q331.621 343.888 328.453 340.025 Q325.328 336.162 325.328 330.606 Q325.328 322.837 330.84 318.323 Q336.395 313.81 346.031 313.81 Q355.71 313.81 361.222 318.323 Q366.734 322.837 366.734 330.606 Q366.734 336.162 363.565 340.025 Q360.44 343.888 354.842 345.276 Q361.178 346.752 364.694 351.049 Q368.253 355.346 368.253 361.552 Q368.253 370.971 362.48 376.005 Q356.751 381.04 346.031 381.04 Q335.31 381.04 329.538 376.005 Q323.809 370.971 323.809 361.552 Q323.809 355.346 327.368 351.049 Q330.927 346.752 337.263 345.276 M334.052 331.431 Q334.052 336.466 337.177 339.287 Q340.345 342.108 346.031 342.108 Q351.673 342.108 354.842 339.287 Q358.053 336.466 358.053 331.431 Q358.053 326.396 354.842 323.575 Q351.673 320.754 346.031 320.754 Q340.345 320.754 337.177 323.575 Q334.052 326.396 334.052 331.431 Z" fill="#000000" fill-rule="nonzero" fill-opacity="1" /><path clip-path="url(#clip400)" d="M383.834 368.757 L392.992 368.757 L392.992 379.781 L383.834 379.781 L383.834 368.757 Z" fill="#000000" fill-rule="nonzero" fill-opacity="1" /><path clip-path="url(#clip400)" d="M430.839 320.754 Q424.069 320.754 420.64 327.438 Q417.254 334.079 417.254 347.447 Q417.254 360.771 420.64 367.455 Q424.069 374.096 430.839 374.096 Q437.654 374.096 441.039 367.455 Q444.468 360.771 444.468 347.447 Q444.468 334.079 441.039 327.438 Q437.654 320.754 430.839 320.754 M430.839 313.81 Q441.733 313.81 447.463 322.447 Q453.235 331.04 453.235 347.447 Q453.235 363.809 447.463 372.446 Q441.733 381.04 430.839 381.04 Q419.945 381.04 414.173 372.446 Q408.444 363.809 408.444 347.447 Q408.444 331.04 414.173 322.447 Q419.945 313.81 430.839 313.81 Z" fill="#000000" fill-rule="nonzero" fill-opacity="1" /><path clip-path="url(#clip400)" d="M521.464 332.039 L501.629 351.96 L521.464 371.795 L516.299 377.047 L496.377 357.125 L476.455 377.047 L471.334 371.795 L491.126 351.96 L471.334 332.039 L476.455 326.787 L496.377 346.709 L516.299 326.787 L521.464 332.039 Z" fill="#000000" fill-rule="nonzero" fill-opacity="1" /><path clip-path="url(#clip400)" d="M544.641 372.403 L558.964 372.403 L558.964 322.968 L543.382 326.093 L543.382 318.106 L558.877 314.981 L567.644 314.981 L567.644 372.403 L581.967 372.403 L581.967 379.781 L544.641 379.781 L544.641 372.403 Z" fill="#000000" fill-rule="nonzero" fill-opacity="1" /><path clip-path="url(#clip400)" d="M618.425 320.754 Q611.654 320.754 608.226 327.438 Q604.84 334.079 604.84 347.447 Q604.84 360.771 608.226 367.455 Q611.654 374.096 618.425 374.096 Q625.239 374.096 628.625 367.455 Q632.054 360.771 632.054 347.447 Q632.054 334.079 628.625 327.438 Q625.239 320.754 618.425 320.754 M618.425 313.81 Q629.319 313.81 635.048 322.447 Q640.821 331.04 640.821 347.447 Q640.821 363.809 635.048 372.446 Q629.319 381.04 618.425 381.04 Q607.531 381.04 601.759 372.446 Q596.029 363.809 596.029 347.447 Q596.029 331.04 601.759 322.447 Q607.531 313.81 618.425 313.81 Z" fill="#000000" fill-rule="nonzero" fill-opacity="1" /><path clip-path="url(#clip400)" d="M643.043 275.737 L671.007 275.737 L671.007 281.732 L649.566 281.732 L649.566 294.639 Q651.118 294.11 652.67 293.863 Q654.221 293.581 655.773 293.581 Q664.589 293.581 669.738 298.412 Q674.886 303.243 674.886 311.495 Q674.886 319.994 669.597 324.719 Q664.307 329.41 654.68 329.41 Q651.365 329.41 647.909 328.845 Q644.488 328.281 640.821 327.153 L640.821 319.994 Q643.995 321.722 647.38 322.568 Q650.765 323.415 654.539 323.415 Q660.64 323.415 664.201 320.206 Q667.763 316.997 667.763 311.495 Q667.763 305.994 664.201 302.785 Q660.64 299.576 654.539 299.576 Q651.682 299.576 648.826 300.211 Q646.005 300.845 643.043 302.185 L643.043 275.737 Z" fill="#000000" fill-rule="nonzero" fill-opacity="1" /><path clip-path="url(#clip400)" d="M47.604 1228.37 L47.604 1217.75 L113.333 1201.39 L47.604 1185.09 L47.604 1173.27 L113.333 1156.92 L47.604 1140.61 L47.604 1129.94 L125.364 1149.47 L125.364 1162.7 L57.8644 1179.1 L125.364 1195.67 L125.364 1208.89 L47.604 1228.37 Z" fill="#000000" fill-rule="nonzero" fill-opacity="1" /><path clip-path="url(#clip400)" d="M93.8017 1072.75 L98.4891 1072.75 L98.4891 1116.81 Q108.385 1116.19 113.593 1110.87 Q118.749 1105.51 118.749 1095.98 Q118.749 1090.46 117.395 1085.3 Q116.041 1080.09 113.333 1074.99 L122.395 1074.99 Q124.583 1080.15 125.729 1085.56 Q126.874 1090.98 126.874 1096.55 Q126.874 1110.51 118.749 1118.69 Q110.624 1126.81 96.7704 1126.81 Q82.4476 1126.81 74.0622 1119.1 Q65.6247 1111.34 65.6247 1098.22 Q65.6247 1086.45 73.2289 1079.62 Q80.7809 1072.75 93.8017 1072.75 M90.9892 1082.33 Q83.1246 1082.44 78.4372 1086.76 Q73.7497 1091.03 73.7497 1098.11 Q73.7497 1106.13 78.2809 1110.98 Q82.8121 1115.77 91.0413 1116.5 L90.9892 1082.33 Z" fill="#000000" fill-rule="nonzero" fill-opacity="1" /><path clip-path="url(#clip400)" d="M67.031 1057.02 L67.031 1047.44 L125.364 1047.44 L125.364 1057.02 L67.031 1057.02 M44.3228 1057.02 L44.3228 1047.44 L56.4581 1047.44 L56.4581 1057.02 L44.3228 1057.02 Z" fill="#000000" fill-rule="nonzero" fill-opacity="1" /><path clip-path="url(#clip400)" d="M95.5204 989 Q85.1038 989 79.3747 993.323 Q73.6455 997.594 73.6455 1005.35 Q73.6455 1013.06 79.3747 1017.39 Q85.1038 1021.66 95.5204 1021.66 Q105.885 1021.66 111.614 1017.39 Q117.343 1013.06 117.343 1005.35 Q117.343 997.594 111.614 993.323 Q105.885 989 95.5204 989 M118.124 979.417 Q133.02 979.417 140.26 986.031 Q147.551 992.646 147.551 1006.29 Q147.551 1011.34 146.77 1015.82 Q146.041 1020.3 144.478 1024.52 L135.156 1024.52 Q137.447 1020.3 138.541 1016.19 Q139.635 1012.07 139.635 1007.8 Q139.635 998.375 134.687 993.688 Q129.791 989 119.843 989 L115.104 989 Q120.26 991.969 122.812 996.604 Q125.364 1001.24 125.364 1007.7 Q125.364 1018.43 117.187 1024.99 Q109.01 1031.55 95.5204 1031.55 Q81.9788 1031.55 73.8018 1024.99 Q65.6247 1018.43 65.6247 1007.7 Q65.6247 1001.24 68.1768 996.604 Q70.7289 991.969 75.8851 989 L67.031 989 L67.031 979.417 L118.124 979.417 Z" fill="#000000" fill-rule="nonzero" fill-opacity="1" /><path clip-path="url(#clip400)" d="M90.1559 911.188 L125.364 911.188 L125.364 920.771 L90.4683 920.771 Q82.1871 920.771 78.0726 924.001 Q73.958 927.23 73.958 933.688 Q73.958 941.448 78.9059 945.927 Q83.8538 950.407 92.3954 950.407 L125.364 950.407 L125.364 960.042 L44.3228 960.042 L44.3228 950.407 L76.0934 950.407 Q70.833 946.969 68.2289 942.334 Q65.6247 937.646 65.6247 931.553 Q65.6247 921.501 71.8747 916.344 Q78.0726 911.188 90.1559 911.188 Z" fill="#000000" fill-rule="nonzero" fill-opacity="1" /><path clip-path="url(#clip400)" d="M50.4686 882.594 L67.031 882.594 L67.031 862.855 L74.4789 862.855 L74.4789 882.594 L106.145 882.594 Q113.281 882.594 115.312 880.667 Q117.343 878.688 117.343 872.699 L117.343 862.855 L125.364 862.855 L125.364 872.699 Q125.364 883.792 121.249 888.011 Q117.083 892.23 106.145 892.23 L74.4789 892.23 L74.4789 899.261 L67.031 899.261 L67.031 892.23 L50.4686 892.23 L50.4686 882.594 Z" fill="#000000" fill-rule="nonzero" fill-opacity="1" /><path clip-path="url(#clip400)" d="M93.8017 800.355 L98.4891 800.355 L98.4891 844.418 Q108.385 843.793 113.593 838.48 Q118.749 833.116 118.749 823.584 Q118.749 818.064 117.395 812.907 Q116.041 807.699 113.333 802.595 L122.395 802.595 Q124.583 807.751 125.729 813.168 Q126.874 818.584 126.874 824.157 Q126.874 838.116 118.749 846.293 Q110.624 854.418 96.7704 854.418 Q82.4476 854.418 74.0622 846.709 Q65.6247 838.949 65.6247 825.824 Q65.6247 814.053 73.2289 807.23 Q80.7809 800.355 93.8017 800.355 M90.9892 809.939 Q83.1246 810.043 78.4372 814.366 Q73.7497 818.636 73.7497 825.72 Q73.7497 833.741 78.2809 838.584 Q82.8121 843.376 91.0413 844.105 L90.9892 809.939 Z" fill="#000000" fill-rule="nonzero" fill-opacity="1" /><path clip-path="url(#clip400)" d="M75.8851 746.241 L44.3228 746.241 L44.3228 736.658 L125.364 736.658 L125.364 746.241 L116.614 746.241 Q121.822 749.262 124.374 753.897 Q126.874 758.481 126.874 764.939 Q126.874 775.512 118.437 782.178 Q109.999 788.793 96.2496 788.793 Q82.4996 788.793 74.0622 782.178 Q65.6247 775.512 65.6247 764.939 Q65.6247 758.481 68.1768 753.897 Q70.6768 749.262 75.8851 746.241 M96.2496 778.897 Q106.822 778.897 112.864 774.574 Q118.854 770.199 118.854 762.595 Q118.854 754.991 112.864 750.616 Q106.822 746.241 96.2496 746.241 Q85.6767 746.241 79.6872 750.616 Q73.6455 754.991 73.6455 762.595 Q73.6455 770.199 79.6872 774.574 Q85.6767 778.897 96.2496 778.897 Z" fill="#000000" fill-rule="nonzero" fill-opacity="1" /><path clip-path="url(#clip400)" d="M56.2498 672.075 L85.4684 672.075 L85.4684 658.846 Q85.4684 651.502 81.6663 647.492 Q77.8643 643.481 70.833 643.481 Q63.8539 643.481 60.0518 647.492 Q56.2498 651.502 56.2498 658.846 L56.2498 672.075 M47.604 682.596 L47.604 658.846 Q47.604 645.773 53.5415 639.106 Q59.4268 632.387 70.833 632.387 Q82.3434 632.387 88.2288 639.106 Q94.1142 645.773 94.1142 658.846 L94.1142 672.075 L125.364 672.075 L125.364 682.596 L47.604 682.596 Z" fill="#000000" fill-rule="nonzero" fill-opacity="1" /><path clip-path="url(#clip400)" d="M75.9893 586.763 Q75.0518 588.377 74.6351 590.304 Q74.1664 592.179 74.1664 594.471 Q74.1664 602.596 79.4788 606.971 Q84.7392 611.294 94.635 611.294 L125.364 611.294 L125.364 620.929 L67.031 620.929 L67.031 611.294 L76.0934 611.294 Q70.781 608.273 68.2289 603.429 Q65.6247 598.586 65.6247 591.659 Q65.6247 590.669 65.781 589.471 Q65.8851 588.273 66.1456 586.815 L75.9893 586.763 Z" fill="#000000" fill-rule="nonzero" fill-opacity="1" /><path clip-path="url(#clip400)" d="M73.7497 556.45 Q73.7497 564.159 79.7913 568.638 Q85.7809 573.117 96.2496 573.117 Q106.718 573.117 112.76 568.69 Q118.749 564.211 118.749 556.45 Q118.749 548.794 112.708 544.315 Q106.666 539.836 96.2496 539.836 Q85.885 539.836 79.8434 544.315 Q73.7497 548.794 73.7497 556.45 M65.6247 556.45 Q65.6247 543.95 73.7497 536.815 Q81.8746 529.68 96.2496 529.68 Q110.572 529.68 118.749 536.815 Q126.874 543.95 126.874 556.45 Q126.874 569.002 118.749 576.138 Q110.572 583.221 96.2496 583.221 Q81.8746 583.221 73.7497 576.138 Q65.6247 569.002 65.6247 556.45 Z" fill="#000000" fill-rule="nonzero" fill-opacity="1" /><path clip-path="url(#clip400)" d="M67.031 513.794 L67.031 504.211 L126.406 504.211 Q137.551 504.211 142.551 508.482 Q147.551 512.701 147.551 522.128 L147.551 525.773 L139.426 525.773 L139.426 523.221 Q139.426 517.753 136.874 515.774 Q134.374 513.794 126.406 513.794 L67.031 513.794 M44.3228 513.794 L44.3228 504.211 L56.4581 504.211 L56.4581 513.794 L44.3228 513.794 Z" fill="#000000" fill-rule="nonzero" fill-opacity="1" /><path clip-path="url(#clip400)" d="M93.8017 434.264 L98.4891 434.264 L98.4891 478.326 Q108.385 477.701 113.593 472.388 Q118.749 467.024 118.749 457.493 Q118.749 451.972 117.395 446.816 Q116.041 441.607 113.333 436.503 L122.395 436.503 Q124.583 441.659 125.729 447.076 Q126.874 452.493 126.874 458.065 Q126.874 472.024 118.749 480.201 Q110.624 488.326 96.7704 488.326 Q82.4476 488.326 74.0622 480.617 Q65.6247 472.857 65.6247 459.732 Q65.6247 447.961 73.2289 441.139 Q80.7809 434.264 93.8017 434.264 M90.9892 443.847 Q83.1246 443.951 78.4372 448.274 Q73.7497 452.545 73.7497 459.628 Q73.7497 467.649 78.2809 472.493 Q82.8121 477.284 91.0413 478.013 L90.9892 443.847 Z" fill="#000000" fill-rule="nonzero" fill-opacity="1" /><path clip-path="url(#clip400)" d="M69.2705 376.556 L78.2288 376.556 Q75.9893 380.618 74.8955 384.733 Q73.7497 388.795 73.7497 392.962 Q73.7497 402.285 79.6872 407.441 Q85.5725 412.597 96.2496 412.597 Q106.927 412.597 112.864 407.441 Q118.749 402.285 118.749 392.962 Q118.749 388.795 117.656 384.733 Q116.51 380.618 114.27 376.556 L123.124 376.556 Q124.999 380.566 125.937 384.889 Q126.874 389.16 126.874 394.003 Q126.874 407.18 118.593 414.941 Q110.312 422.701 96.2496 422.701 Q81.9788 422.701 73.8018 414.889 Q65.6247 407.024 65.6247 393.378 Q65.6247 388.951 66.5622 384.733 Q67.4476 380.514 69.2705 376.556 Z" fill="#000000" fill-rule="nonzero" fill-opacity="1" /><path clip-path="url(#clip400)" d="M50.4686 350.41 L67.031 350.41 L67.031 330.67 L74.4789 330.67 L74.4789 350.41 L106.145 350.41 Q113.281 350.41 115.312 348.483 Q117.343 346.504 117.343 340.514 L117.343 330.67 L125.364 330.67 L125.364 340.514 Q125.364 351.608 121.249 355.826 Q117.083 360.045 106.145 360.045 L74.4789 360.045 L74.4789 367.076 L67.031 367.076 L67.031 360.045 L50.4686 360.045 L50.4686 350.41 Z" fill="#000000" fill-rule="nonzero" fill-opacity="1" /><path clip-path="url(#clip400)" d="M93.8017 268.171 L98.4891 268.171 L98.4891 312.233 Q108.385 311.608 113.593 306.295 Q118.749 300.931 118.749 291.4 Q118.749 285.879 117.395 280.723 Q116.041 275.514 113.333 270.41 L122.395 270.41 Q124.583 275.566 125.729 280.983 Q126.874 286.4 126.874 291.973 Q126.874 305.931 118.749 314.108 Q110.624 322.233 96.7704 322.233 Q82.4476 322.233 74.0622 314.525 Q65.6247 306.764 65.6247 293.639 Q65.6247 281.869 73.2289 275.046 Q80.7809 268.171 93.8017 268.171 M90.9892 277.754 Q83.1246 277.858 78.4372 282.181 Q73.7497 286.452 73.7497 293.535 Q73.7497 301.556 78.2809 306.4 Q82.8121 311.191 91.0413 311.92 L90.9892 277.754 Z" fill="#000000" fill-rule="nonzero" fill-opacity="1" /><path clip-path="url(#clip400)" d="M75.8851 214.056 L44.3228 214.056 L44.3228 204.473 L125.364 204.473 L125.364 214.056 L116.614 214.056 Q121.822 217.077 124.374 221.713 Q126.874 226.296 126.874 232.754 Q126.874 243.327 118.437 249.994 Q109.999 256.608 96.2496 256.608 Q82.4996 256.608 74.0622 249.994 Q65.6247 243.327 65.6247 232.754 Q65.6247 226.296 68.1768 221.713 Q70.6768 217.077 75.8851 214.056 M96.2496 246.712 Q106.822 246.712 112.864 242.39 Q118.854 238.015 118.854 230.41 Q118.854 222.806 112.864 218.431 Q106.822 214.056 96.2496 214.056 Q85.6767 214.056 79.6872 218.431 Q73.6455 222.806 73.6455 230.41 Q73.6455 238.015 79.6872 242.39 Q85.6767 246.712 96.2496 246.712 Z" fill="#000000" fill-rule="nonzero" fill-opacity="1" /><path clip-path="url(#clip400)" d="M164.244 1057.88 L164.244 1008.71 L173.098 1008.71 L173.098 1047.36 L196.119 1047.36 L196.119 1010.33 L204.973 1010.33 L204.973 1047.36 L233.15 1047.36 L233.15 1007.78 L242.004 1007.78 L242.004 1057.88 L164.244 1057.88 Z" fill="#000000" fill-rule="nonzero" fill-opacity="1" /><path clip-path="url(#clip400)" d="M192.525 952.516 L160.963 952.516 L160.963 942.933 L242.004 942.933 L242.004 952.516 L233.254 952.516 Q238.462 955.537 241.014 960.172 Q243.514 964.755 243.514 971.214 Q243.514 981.787 235.077 988.453 Q226.639 995.068 212.89 995.068 Q199.14 995.068 190.702 988.453 Q182.265 981.787 182.265 971.214 Q182.265 964.755 184.817 960.172 Q187.317 955.537 192.525 952.516 M212.89 985.172 Q223.462 985.172 229.504 980.849 Q235.494 976.474 235.494 968.87 Q235.494 961.266 229.504 956.891 Q223.462 952.516 212.89 952.516 Q202.317 952.516 196.327 956.891 Q190.286 961.266 190.286 968.87 Q190.286 976.474 196.327 980.849 Q202.317 985.172 212.89 985.172 Z" fill="#000000" fill-rule="nonzero" fill-opacity="1" /><path clip-path="url(#clip400)" d="M212.16 884.808 Q201.744 884.808 196.015 889.131 Q190.286 893.402 190.286 901.162 Q190.286 908.87 196.015 913.193 Q201.744 917.464 212.16 917.464 Q222.525 917.464 228.254 913.193 Q233.983 908.87 233.983 901.162 Q233.983 893.402 228.254 889.131 Q222.525 884.808 212.16 884.808 M234.764 875.225 Q249.66 875.225 256.9 881.839 Q264.191 888.454 264.191 902.1 Q264.191 907.152 263.41 911.631 Q262.681 916.11 261.118 920.329 L251.796 920.329 Q254.087 916.11 255.181 911.995 Q256.275 907.881 256.275 903.61 Q256.275 894.183 251.327 889.495 Q246.431 884.808 236.483 884.808 L231.744 884.808 Q236.9 887.777 239.452 892.412 Q242.004 897.048 242.004 903.506 Q242.004 914.235 233.827 920.797 Q225.65 927.36 212.16 927.36 Q198.619 927.36 190.442 920.797 Q182.265 914.235 182.265 903.506 Q182.265 897.048 184.817 892.412 Q187.369 887.777 192.525 884.808 L183.671 884.808 L183.671 875.225 L234.764 875.225 Z" fill="#000000" fill-rule="nonzero" fill-opacity="1" /><path clip-path="url(#clip400)" d="M210.442 805.59 L215.129 805.59 L215.129 849.652 Q225.025 849.027 230.233 843.714 Q235.389 838.35 235.389 828.819 Q235.389 823.298 234.035 818.142 Q232.681 812.933 229.973 807.829 L239.035 807.829 Q241.223 812.985 242.369 818.402 Q243.514 823.819 243.514 829.392 Q243.514 843.35 235.389 851.527 Q227.264 859.652 213.41 859.652 Q199.088 859.652 190.702 851.944 Q182.265 844.183 182.265 831.058 Q182.265 819.288 189.869 812.465 Q197.421 805.59 210.442 805.59 M207.629 815.173 Q199.765 815.277 195.077 819.6 Q190.39 823.871 190.39 830.954 Q190.39 838.975 194.921 843.819 Q199.452 848.61 207.681 849.339 L207.629 815.173 Z" fill="#000000" fill-rule="nonzero" fill-opacity="1" /><path clip-path="url(#clip400)" d="M242.004 735.486 L164.244 765.173 L164.244 754.184 L229.712 729.548 L164.244 704.861 L164.244 693.924 L242.004 723.559 L242.004 735.486 Z" fill="#000000" fill-rule="nonzero" fill-opacity="1" /><path clip-path="url(#clip400)" d="M190.39 668.663 Q190.39 676.372 196.431 680.851 Q202.421 685.33 212.89 685.33 Q223.358 685.33 229.4 680.903 Q235.389 676.424 235.389 668.663 Q235.389 661.007 229.348 656.528 Q223.306 652.049 212.89 652.049 Q202.525 652.049 196.483 656.528 Q190.39 661.007 190.39 668.663 M182.265 668.663 Q182.265 656.163 190.39 649.028 Q198.515 641.893 212.89 641.893 Q227.212 641.893 235.389 649.028 Q243.514 656.163 243.514 668.663 Q243.514 681.215 235.389 688.351 Q227.212 695.434 212.89 695.434 Q198.515 695.434 190.39 688.351 Q182.265 681.215 182.265 668.663 Z" fill="#000000" fill-rule="nonzero" fill-opacity="1" /><path clip-path="url(#clip400)" d="M160.963 626.007 L160.963 616.424 L242.004 616.424 L242.004 626.007 L160.963 626.007 Z" fill="#000000" fill-rule="nonzero" fill-opacity="1" /><path clip-path="url(#clip400)" d="M218.983 597.362 L183.671 597.362 L183.671 587.778 L218.619 587.778 Q226.9 587.778 231.067 584.549 Q235.181 581.32 235.181 574.862 Q235.181 567.101 230.233 562.622 Q225.285 558.091 216.744 558.091 L183.671 558.091 L183.671 548.508 L242.004 548.508 L242.004 558.091 L233.046 558.091 Q238.358 561.581 240.962 566.216 Q243.514 570.799 243.514 576.893 Q243.514 586.945 237.264 592.153 Q231.014 597.362 218.983 597.362 M182.265 573.247 L182.265 573.247 Z" fill="#000000" fill-rule="nonzero" fill-opacity="1" /><path clip-path="url(#clip400)" d="M194.869 483.352 Q188.411 479.758 185.338 474.758 Q182.265 469.758 182.265 462.987 Q182.265 453.873 188.671 448.925 Q195.025 443.977 206.796 443.977 L242.004 443.977 L242.004 453.612 L207.108 453.612 Q198.723 453.612 194.66 456.581 Q190.598 459.55 190.598 465.644 Q190.598 473.091 195.546 477.414 Q200.494 481.737 209.035 481.737 L242.004 481.737 L242.004 491.373 L207.108 491.373 Q198.671 491.373 194.66 494.341 Q190.598 497.31 190.598 503.508 Q190.598 510.852 195.598 515.175 Q200.546 519.497 209.035 519.497 L242.004 519.497 L242.004 529.133 L183.671 529.133 L183.671 519.497 L192.733 519.497 Q187.369 516.216 184.817 511.633 Q182.265 507.05 182.265 500.748 Q182.265 494.393 185.494 489.966 Q188.723 485.487 194.869 483.352 Z" fill="#000000" fill-rule="nonzero" fill-opacity="1" /><path clip-path="url(#clip400)" d="M210.442 374.967 L215.129 374.967 L215.129 419.029 Q225.025 418.404 230.233 413.092 Q235.389 407.727 235.389 398.196 Q235.389 392.675 234.035 387.519 Q232.681 382.311 229.973 377.207 L239.035 377.207 Q241.223 382.363 242.369 387.779 Q243.514 393.196 243.514 398.769 Q243.514 412.727 235.389 420.904 Q227.264 429.029 213.41 429.029 Q199.088 429.029 190.702 421.321 Q182.265 413.561 182.265 400.436 Q182.265 388.665 189.869 381.842 Q197.421 374.967 210.442 374.967 M207.629 384.55 Q199.765 384.654 195.077 388.977 Q190.39 393.248 190.39 400.331 Q190.39 408.352 194.921 413.196 Q199.452 417.988 207.681 418.717 L207.629 384.55 Z" fill="#000000" fill-rule="nonzero" fill-opacity="1" /><g clip-path="url(#clip400)">
<text style="fill:#000000; fill-opacity:1; font-family:Arial,Helvetica Neue,Helvetica,sans-serif; font-size:118px; font-weight:bold; text-anchor:middle;" transform="rotate(0, 1484.08, 103.2)" x="1484.08" y="103.2">g(m)=m</text>
</g>
<polyline clip-path="url(#clip402)" style="stroke:#d3d3d3; stroke-linecap:round; stroke-linejoin:round; stroke-width:2; stroke-opacity:1; fill:none" points="799.935,985.559 856.947,985.559 913.959,985.559 970.971,985.559 1027.98,985.559 1085,985.559 1142.01,985.559 1199.02,985.559 1256.03,985.559 1313.04,985.559 1370.06,985.559 1427.07,985.559 1484.08,985.559 1541.09,985.559 1598.1,985.559 1655.12,985.559 1712.13,985.559 1769.14,985.559 1826.15,985.559 1883.16,985.559 1940.18,985.559 1997.19,985.559 2054.2,985.559 2111.21,985.559 2168.22,985.559 "/>
<polyline clip-path="url(#clip402)" style="stroke:#808080; stroke-linecap:round; stroke-linejoin:round; stroke-width:4; stroke-opacity:1; fill:none" points="799.935,984.409 856.947,984.409 913.959,984.409 970.971,984.409 1027.98,984.409 1085,984.409 1142.01,984.409 1199.02,984.409 1256.03,984.409 1313.04,984.409 1370.06,984.409 1427.07,984.409 1484.08,984.409 1541.09,984.409 1598.1,984.409 1655.12,984.409 1712.13,984.409 1769.14,984.409 1826.15,984.409 1883.16,984.409 1940.18,984.409 1997.19,984.409 2054.2,984.409 2111.21,984.409 2168.22,984.409 "/>
<polyline clip-path="url(#clip402)" style="stroke:#000000; stroke-linecap:round; stroke-linejoin:round; stroke-width:8; stroke-opacity:1; fill:none" points="799.935,982.858 856.947,982.858 913.959,982.858 970.971,982.858 1027.98,982.858 1085,982.858 1142.01,982.858 1199.02,982.858 1256.03,982.858 1313.04,982.858 1370.06,982.858 1427.07,982.858 1484.08,982.858 1541.09,982.858 1598.1,982.858 1655.12,982.858 1712.13,982.858 1769.14,982.858 1826.15,982.858 1883.16,982.858 1940.18,982.858 1997.19,982.858 2054.2,982.858 2111.21,982.858 2168.22,982.858 "/>
<polyline clip-path="url(#clip402)" style="stroke:#808080; stroke-linecap:round; stroke-linejoin:round; stroke-width:4; stroke-opacity:1; fill:none" points="799.935,981.956 856.947,981.956 913.959,981.956 970.971,981.956 1027.98,981.956 1085,981.956 1142.01,981.956 1199.02,981.956 1256.03,981.956 1313.04,981.956 1370.06,981.956 1427.07,981.956 1484.08,981.956 1541.09,981.956 1598.1,981.956 1655.12,981.956 1712.13,981.956 1769.14,981.956 1826.15,981.956 1883.16,981.956 1940.18,981.956 1997.19,981.956 2054.2,981.956 2111.21,981.956 2168.22,981.956 "/>
<polyline clip-path="url(#clip402)" style="stroke:#d3d3d3; stroke-linecap:round; stroke-linejoin:round; stroke-width:2; stroke-opacity:1; fill:none" points="799.935,981.203 856.947,981.203 913.959,981.203 970.971,981.203 1027.98,981.203 1085,981.203 1142.01,981.203 1199.02,981.203 1256.03,981.203 1313.04,981.203 1370.06,981.203 1427.07,981.203 1484.08,981.203 1541.09,981.203 1598.1,981.203 1655.12,981.203 1712.13,981.203 1769.14,981.203 1826.15,981.203 1883.16,981.203 1940.18,981.203 1997.19,981.203 2054.2,981.203 2111.21,981.203 2168.22,981.203 "/>
<path clip-path="url(#clip400)" d="M2375.51 1302.43 L3825.9 1302.43 L3825.9 130.417 L2375.51 130.417  Z" fill="#fafafa" fill-rule="evenodd" fill-opacity="1"/>
<defs>
  <clipPath id="clip403">
    <rect x="2375" y="130" width="1451" height="1173"/>
  </clipPath>
</defs>
<polyline clip-path="url(#clip403)" style="stroke:#000000; stroke-linecap:round; stroke-linejoin:round; stroke-width:2; stroke-opacity:0.1; fill:none" points="2416.56,1302.43 2416.56,130.417 "/>
<polyline clip-path="url(#clip403)" style="stroke:#000000; stroke-linecap:round; stroke-linejoin:round; stroke-width:2; stroke-opacity:0.1; fill:none" points="2758.63,1302.43 2758.63,130.417 "/>
<polyline clip-path="url(#clip403)" style="stroke:#000000; stroke-linecap:round; stroke-linejoin:round; stroke-width:2; stroke-opacity:0.1; fill:none" points="3100.7,1302.43 3100.7,130.417 "/>
<polyline clip-path="url(#clip403)" style="stroke:#000000; stroke-linecap:round; stroke-linejoin:round; stroke-width:2; stroke-opacity:0.1; fill:none" points="3442.78,1302.43 3442.78,130.417 "/>
<polyline clip-path="url(#clip403)" style="stroke:#000000; stroke-linecap:round; stroke-linejoin:round; stroke-width:2; stroke-opacity:0.1; fill:none" points="3784.85,1302.43 3784.85,130.417 "/>
<polyline clip-path="url(#clip400)" style="stroke:#000000; stroke-linecap:round; stroke-linejoin:round; stroke-width:4; stroke-opacity:0; fill:none" points="2416.56,1302.43 2416.56,1283.53 "/>
<polyline clip-path="url(#clip400)" style="stroke:#000000; stroke-linecap:round; stroke-linejoin:round; stroke-width:4; stroke-opacity:0; fill:none" points="2758.63,1302.43 2758.63,1283.53 "/>
<polyline clip-path="url(#clip400)" style="stroke:#000000; stroke-linecap:round; stroke-linejoin:round; stroke-width:4; stroke-opacity:0; fill:none" points="3100.7,1302.43 3100.7,1283.53 "/>
<polyline clip-path="url(#clip400)" style="stroke:#000000; stroke-linecap:round; stroke-linejoin:round; stroke-width:4; stroke-opacity:0; fill:none" points="3442.78,1302.43 3442.78,1283.53 "/>
<polyline clip-path="url(#clip400)" style="stroke:#000000; stroke-linecap:round; stroke-linejoin:round; stroke-width:4; stroke-opacity:0; fill:none" points="3784.85,1302.43 3784.85,1283.53 "/>
<path clip-path="url(#clip400)" d="M2374.15 1369.2 Q2367.38 1369.2 2363.95 1375.89 Q2360.57 1382.53 2360.57 1395.9 Q2360.57 1409.22 2363.95 1415.9 Q2367.38 1422.54 2374.15 1422.54 Q2380.97 1422.54 2384.35 1415.9 Q2387.78 1409.22 2387.78 1395.9 Q2387.78 1382.53 2384.35 1375.89 Q2380.97 1369.2 2374.15 1369.2 M2374.15 1362.26 Q2385.05 1362.26 2390.78 1370.9 Q2396.55 1379.49 2396.55 1395.9 Q2396.55 1412.26 2390.78 1420.9 Q2385.05 1429.49 2374.15 1429.49 Q2363.26 1429.49 2357.49 1420.9 Q2351.76 1412.26 2351.76 1395.9 Q2351.76 1379.49 2357.49 1370.9 Q2363.26 1362.26 2374.15 1362.26 Z" fill="#000000" fill-rule="nonzero" fill-opacity="1" /><path clip-path="url(#clip400)" d="M2411.96 1417.21 L2421.12 1417.21 L2421.12 1428.23 L2411.96 1428.23 L2411.96 1417.21 Z" fill="#000000" fill-rule="nonzero" fill-opacity="1" /><path clip-path="url(#clip400)" d="M2458.96 1369.2 Q2452.19 1369.2 2448.76 1375.89 Q2445.38 1382.53 2445.38 1395.9 Q2445.38 1409.22 2448.76 1415.9 Q2452.19 1422.54 2458.96 1422.54 Q2465.78 1422.54 2469.16 1415.9 Q2472.59 1409.22 2472.59 1395.9 Q2472.59 1382.53 2469.16 1375.89 Q2465.78 1369.2 2458.96 1369.2 M2458.96 1362.26 Q2469.86 1362.26 2475.59 1370.9 Q2481.36 1379.49 2481.36 1395.9 Q2481.36 1412.26 2475.59 1420.9 Q2469.86 1429.49 2458.96 1429.49 Q2448.07 1429.49 2442.3 1420.9 Q2436.57 1412.26 2436.57 1395.9 Q2436.57 1379.49 2442.3 1370.9 Q2448.07 1362.26 2458.96 1362.26 Z" fill="#000000" fill-rule="nonzero" fill-opacity="1" /><path clip-path="url(#clip400)" d="M2717.16 1369.2 Q2710.39 1369.2 2706.96 1375.89 Q2703.57 1382.53 2703.57 1395.9 Q2703.57 1409.22 2706.96 1415.9 Q2710.39 1422.54 2717.16 1422.54 Q2723.97 1422.54 2727.36 1415.9 Q2730.79 1409.22 2730.79 1395.9 Q2730.79 1382.53 2727.36 1375.89 Q2723.97 1369.2 2717.16 1369.2 M2717.16 1362.26 Q2728.05 1362.26 2733.78 1370.9 Q2739.56 1379.49 2739.56 1395.9 Q2739.56 1412.26 2733.78 1420.9 Q2728.05 1429.49 2717.16 1429.49 Q2706.27 1429.49 2700.49 1420.9 Q2694.76 1412.26 2694.76 1395.9 Q2694.76 1379.49 2700.49 1370.9 Q2706.27 1362.26 2717.16 1362.26 Z" fill="#000000" fill-rule="nonzero" fill-opacity="1" /><path clip-path="url(#clip400)" d="M2754.96 1417.21 L2764.12 1417.21 L2764.12 1428.23 L2754.96 1428.23 L2754.96 1417.21 Z" fill="#000000" fill-rule="nonzero" fill-opacity="1" /><path clip-path="url(#clip400)" d="M2783.31 1363.43 L2817.72 1363.43 L2817.72 1370.81 L2791.33 1370.81 L2791.33 1386.69 Q2793.24 1386.04 2795.15 1385.74 Q2797.06 1385.39 2798.97 1385.39 Q2809.82 1385.39 2816.16 1391.34 Q2822.5 1397.28 2822.5 1407.44 Q2822.5 1417.9 2815.99 1423.72 Q2809.48 1429.49 2797.63 1429.49 Q2793.55 1429.49 2789.29 1428.79 Q2785.08 1428.1 2780.57 1426.71 L2780.57 1417.9 Q2784.48 1420.03 2788.64 1421.07 Q2792.81 1422.11 2797.45 1422.11 Q2804.96 1422.11 2809.35 1418.16 Q2813.73 1414.21 2813.73 1407.44 Q2813.73 1400.67 2809.35 1396.72 Q2804.96 1392.77 2797.45 1392.77 Q2793.94 1392.77 2790.42 1393.55 Q2786.95 1394.33 2783.31 1395.98 L2783.31 1363.43 Z" fill="#000000" fill-rule="nonzero" fill-opacity="1" /><path clip-path="url(#clip400)" d="M3039.11 1420.85 L3053.44 1420.85 L3053.44 1371.42 L3037.86 1374.54 L3037.86 1366.56 L3053.35 1363.43 L3062.12 1363.43 L3062.12 1420.85 L3076.44 1420.85 L3076.44 1428.23 L3039.11 1428.23 L3039.11 1420.85 Z" fill="#000000" fill-rule="nonzero" fill-opacity="1" /><path clip-path="url(#clip400)" d="M3094.15 1417.21 L3103.31 1417.21 L3103.31 1428.23 L3094.15 1428.23 L3094.15 1417.21 Z" fill="#000000" fill-rule="nonzero" fill-opacity="1" /><path clip-path="url(#clip400)" d="M3141.15 1369.2 Q3134.38 1369.2 3130.95 1375.89 Q3127.57 1382.53 3127.57 1395.9 Q3127.57 1409.22 3130.95 1415.9 Q3134.38 1422.54 3141.15 1422.54 Q3147.97 1422.54 3151.35 1415.9 Q3154.78 1409.22 3154.78 1395.9 Q3154.78 1382.53 3151.35 1375.89 Q3147.97 1369.2 3141.15 1369.2 M3141.15 1362.26 Q3152.05 1362.26 3157.78 1370.9 Q3163.55 1379.49 3163.55 1395.9 Q3163.55 1412.26 3157.78 1420.9 Q3152.05 1429.49 3141.15 1429.49 Q3130.26 1429.49 3124.49 1420.9 Q3118.76 1412.26 3118.76 1395.9 Q3118.76 1379.49 3124.49 1370.9 Q3130.26 1362.26 3141.15 1362.26 Z" fill="#000000" fill-rule="nonzero" fill-opacity="1" /><path clip-path="url(#clip400)" d="M3382.12 1420.85 L3396.44 1420.85 L3396.44 1371.42 L3380.86 1374.54 L3380.86 1366.56 L3396.36 1363.43 L3405.12 1363.43 L3405.12 1420.85 L3419.45 1420.85 L3419.45 1428.23 L3382.12 1428.23 L3382.12 1420.85 Z" fill="#000000" fill-rule="nonzero" fill-opacity="1" /><path clip-path="url(#clip400)" d="M3437.15 1417.21 L3446.31 1417.21 L3446.31 1428.23 L3437.15 1428.23 L3437.15 1417.21 Z" fill="#000000" fill-rule="nonzero" fill-opacity="1" /><path clip-path="url(#clip400)" d="M3465.5 1363.43 L3499.91 1363.43 L3499.91 1370.81 L3473.53 1370.81 L3473.53 1386.69 Q3475.44 1386.04 3477.35 1385.74 Q3479.26 1385.39 3481.17 1385.39 Q3492.02 1385.39 3498.35 1391.34 Q3504.69 1397.28 3504.69 1407.44 Q3504.69 1417.9 3498.18 1423.72 Q3491.67 1429.49 3479.82 1429.49 Q3475.74 1429.49 3471.49 1428.79 Q3467.28 1428.1 3462.76 1426.71 L3462.76 1417.9 Q3466.67 1420.03 3470.84 1421.07 Q3475 1422.11 3479.65 1422.11 Q3487.15 1422.11 3491.54 1418.16 Q3495.92 1414.21 3495.92 1407.44 Q3495.92 1400.67 3491.54 1396.72 Q3487.15 1392.77 3479.65 1392.77 Q3476.13 1392.77 3472.61 1393.55 Q3469.14 1394.33 3465.5 1395.98 L3465.5 1363.43 Z" fill="#000000" fill-rule="nonzero" fill-opacity="1" /><path clip-path="url(#clip400)" d="M3730.92 1420.85 L3761.52 1420.85 L3761.52 1428.23 L3720.37 1428.23 L3720.37 1420.85 Q3725.36 1415.69 3733.96 1407.01 Q3742.6 1398.28 3744.81 1395.77 Q3749.02 1391.03 3750.67 1387.78 Q3752.36 1384.48 3752.36 1381.31 Q3752.36 1376.15 3748.72 1372.89 Q3745.11 1369.64 3739.3 1369.64 Q3735.17 1369.64 3730.57 1371.07 Q3726.02 1372.5 3720.81 1375.41 L3720.81 1366.56 Q3726.1 1364.43 3730.7 1363.34 Q3735.3 1362.26 3739.12 1362.26 Q3749.19 1362.26 3755.18 1367.29 Q3761.17 1372.33 3761.17 1380.75 Q3761.17 1384.74 3759.65 1388.34 Q3758.18 1391.9 3754.23 1396.76 Q3753.14 1398.02 3747.33 1404.06 Q3741.51 1410.04 3730.92 1420.85 Z" fill="#000000" fill-rule="nonzero" fill-opacity="1" /><path clip-path="url(#clip400)" d="M3779.92 1417.21 L3789.08 1417.21 L3789.08 1428.23 L3779.92 1428.23 L3779.92 1417.21 Z" fill="#000000" fill-rule="nonzero" fill-opacity="1" /><path clip-path="url(#clip400)" d="M3826.93 1369.2 Q3820.16 1369.2 3816.73 1375.89 Q3813.34 1382.53 3813.34 1395.9 Q3813.34 1409.22 3816.73 1415.9 Q3820.16 1422.54 3826.93 1422.54 Q3833.74 1422.54 3837.13 1415.9 Q3840.56 1409.22 3840.56 1395.9 Q3840.56 1382.53 3837.13 1375.89 Q3833.74 1369.2 3826.93 1369.2 M3826.93 1362.26 Q3837.82 1362.26 3843.55 1370.9 Q3849.32 1379.49 3849.32 1395.9 Q3849.32 1412.26 3843.55 1420.9 Q3837.82 1429.49 3826.93 1429.49 Q3816.03 1429.49 3810.26 1420.9 Q3804.53 1412.26 3804.53 1395.9 Q3804.53 1379.49 3810.26 1370.9 Q3816.03 1362.26 3826.93 1362.26 Z" fill="#000000" fill-rule="nonzero" fill-opacity="1" /><path clip-path="url(#clip400)" d="M3109.22 1549.81 L3106.93 1537.78 Q3104.58 1525.43 3095.31 1525.43 Q3088.33 1525.43 3085.16 1531.16 Q3081.15 1538.35 3081.15 1547.83 Q3081.15 1559.29 3085.05 1564.75 Q3089.01 1570.33 3095.31 1570.33 Q3102.29 1570.33 3106.04 1559.23 L3109.22 1549.81 M3114.58 1533.87 L3119.74 1518.61 L3128.28 1518.61 L3117.6 1550.22 L3119.69 1561.63 Q3120.16 1564.18 3121.98 1566.32 Q3124.11 1568.82 3125.78 1568.82 L3130.36 1568.82 L3130.36 1576.94 L3124.64 1576.94 Q3119.74 1576.94 3115.36 1572.57 Q3113.23 1570.38 3112.34 1565.8 Q3109.95 1571.58 3105.05 1576.11 Q3102.76 1578.24 3095.31 1578.24 Q3083.07 1578.24 3077.14 1570.33 Q3071.04 1562.15 3071.04 1547.83 Q3071.04 1532.52 3077.66 1525.33 Q3085 1517.31 3095.31 1517.31 Q3111.51 1517.31 3114.58 1533.87 Z" fill="#000000" fill-rule="nonzero" fill-opacity="1" /><polyline clip-path="url(#clip403)" style="stroke:#000000; stroke-linecap:round; stroke-linejoin:round; stroke-width:2; stroke-opacity:0.1; fill:none" points="2375.51,1071.59 3825.9,1071.59 "/>
<polyline clip-path="url(#clip403)" style="stroke:#000000; stroke-linecap:round; stroke-linejoin:round; stroke-width:2; stroke-opacity:0.1; fill:none" points="2375.51,826.159 3825.9,826.159 "/>
<polyline clip-path="url(#clip403)" style="stroke:#000000; stroke-linecap:round; stroke-linejoin:round; stroke-width:2; stroke-opacity:0.1; fill:none" points="2375.51,580.726 3825.9,580.726 "/>
<polyline clip-path="url(#clip403)" style="stroke:#000000; stroke-linecap:round; stroke-linejoin:round; stroke-width:2; stroke-opacity:0.1; fill:none" points="2375.51,335.292 3825.9,335.292 "/>
<polyline clip-path="url(#clip400)" style="stroke:#000000; stroke-linecap:round; stroke-linejoin:round; stroke-width:4; stroke-opacity:0; fill:none" points="2375.51,1071.59 2394.41,1071.59 "/>
<polyline clip-path="url(#clip400)" style="stroke:#000000; stroke-linecap:round; stroke-linejoin:round; stroke-width:4; stroke-opacity:0; fill:none" points="2375.51,826.159 2394.41,826.159 "/>
<polyline clip-path="url(#clip400)" style="stroke:#000000; stroke-linecap:round; stroke-linejoin:round; stroke-width:4; stroke-opacity:0; fill:none" points="2375.51,580.726 2394.41,580.726 "/>
<polyline clip-path="url(#clip400)" style="stroke:#000000; stroke-linecap:round; stroke-linejoin:round; stroke-width:4; stroke-opacity:0; fill:none" points="2375.51,335.292 2394.41,335.292 "/>
<g clip-path="url(#clip400)">
<text style="fill:#000000; fill-opacity:1; font-family:Arial,Helvetica Neue,Helvetica,sans-serif; font-size:118px; font-weight:bold; text-anchor:middle;" transform="rotate(0, 3100.7, 103.2)" x="3100.7" y="103.2">g(m)=sqrt(m)</text>
</g>
<polyline clip-path="url(#clip403)" style="stroke:#d3d3d3; stroke-linecap:round; stroke-linejoin:round; stroke-width:2; stroke-opacity:1; fill:none" points="2416.56,848.261 2473.57,847.773 2530.58,846.228 2587.59,843.647 2644.61,840.15 2701.62,835.654 2758.63,829.909 2815.64,823.158 2872.65,815.153 2929.67,805.826 2986.68,794.963 3043.69,782.552 3100.7,768.413 3157.72,705.02 3214.73,592.998 3271.74,482.884 3328.75,399.438 3385.76,341.451 3442.78,300.006 3499.79,271.462 3556.8,250.91 3613.81,236.349 3670.82,225.291 3727.84,217.087 3784.85,200.258 "/>
<polyline clip-path="url(#clip403)" style="stroke:#808080; stroke-linecap:round; stroke-linejoin:round; stroke-width:4; stroke-opacity:1; fill:none" points="2416.56,846.634 2473.57,846.097 2530.58,844.542 2587.59,842.013 2644.61,838.382 2701.62,833.764 2758.63,828.189 2815.64,821.404 2872.65,812.918 2929.67,803.361 2986.68,792.283 3043.69,779.642 3100.7,765.409 3157.72,701.656 3214.73,585.575 3271.74,475.052 3328.75,391.65 3385.76,331.723 3442.78,291.222 3499.79,263.899 3556.8,244.044 3613.81,229.114 3670.82,218.52 3727.84,210.217 3784.85,193.408 "/>
<polyline clip-path="url(#clip403)" style="stroke:#000000; stroke-linecap:round; stroke-linejoin:round; stroke-width:8; stroke-opacity:1; fill:none" points="2416.56,844.44 2473.57,843.916 2530.58,842.338 2587.59,839.701 2644.61,836.087 2701.62,831.478 2758.63,825.742 2815.64,818.889 2872.65,810.813 2929.67,801.372 2986.68,790.356 3043.69,777.72 3100.7,763.303 3157.72,695.767 3214.73,577.974 3271.74,466.043 3328.75,380.506 3385.76,320.984 3442.78,280.244 3499.79,252.007 3556.8,231.769 3613.81,217.594 3670.82,206.891 3727.84,198.819 3784.85,182.122 "/>
<polyline clip-path="url(#clip403)" style="stroke:#808080; stroke-linecap:round; stroke-linejoin:round; stroke-width:4; stroke-opacity:1; fill:none" points="2416.56,843.165 2473.57,842.677 2530.58,841.096 2587.59,838.679 2644.61,835.171 2701.62,830.648 2758.63,824.834 2815.64,817.858 2872.65,809.71 2929.67,800.224 2986.68,789.289 3043.69,776.494 3100.7,761.762 3157.72,687.981 3214.73,566.265 3271.74,454.663 3328.75,369.423 3385.76,310.508 3442.78,268.865 3499.79,240.172 3556.8,220.184 3613.81,205.63 3670.82,194.704 3727.84,186.597 3784.85,169.983 "/>
<polyline clip-path="url(#clip403)" style="stroke:#d3d3d3; stroke-linecap:round; stroke-linejoin:round; stroke-width:2; stroke-opacity:1; fill:none" points="2416.56,842.101 2473.57,841.571 2530.58,839.973 2587.59,837.371 2644.61,833.792 2701.62,829.083 2758.63,823.377 2815.64,816.373 2872.65,808.268 2929.67,798.802 2986.68,787.747 3043.69,774.915 3100.7,760.183 3157.72,685.161 3214.73,560.223 3271.74,446.919 3328.75,363.044 3385.76,303.545 3442.78,262.715 3499.79,234.082 3556.8,214.036 3613.81,199.157 3670.82,188.292 3727.84,180.045 3784.85,163.587 "/>
<path clip-path="url(#clip400)" d="M3992.13 1302.43 L5442.52 1302.43 L5442.52 130.417 L3992.13 130.417  Z" fill="#fafafa" fill-rule="evenodd" fill-opacity="1"/>
<defs>
  <clipPath id="clip404">
    <rect x="3992" y="130" width="1451" height="1173"/>
  </clipPath>
</defs>
<polyline clip-path="url(#clip404)" style="stroke:#000000; stroke-linecap:round; stroke-linejoin:round; stroke-width:2; stroke-opacity:0.1; fill:none" points="4033.18,1302.43 4033.18,130.417 "/>
<polyline clip-path="url(#clip404)" style="stroke:#000000; stroke-linecap:round; stroke-linejoin:round; stroke-width:2; stroke-opacity:0.1; fill:none" points="4375.25,1302.43 4375.25,130.417 "/>
<polyline clip-path="url(#clip404)" style="stroke:#000000; stroke-linecap:round; stroke-linejoin:round; stroke-width:2; stroke-opacity:0.1; fill:none" points="4717.33,1302.43 4717.33,130.417 "/>
<polyline clip-path="url(#clip404)" style="stroke:#000000; stroke-linecap:round; stroke-linejoin:round; stroke-width:2; stroke-opacity:0.1; fill:none" points="5059.4,1302.43 5059.4,130.417 "/>
<polyline clip-path="url(#clip404)" style="stroke:#000000; stroke-linecap:round; stroke-linejoin:round; stroke-width:2; stroke-opacity:0.1; fill:none" points="5401.47,1302.43 5401.47,130.417 "/>
<polyline clip-path="url(#clip400)" style="stroke:#000000; stroke-linecap:round; stroke-linejoin:round; stroke-width:4; stroke-opacity:0; fill:none" points="4033.18,1302.43 4033.18,1283.53 "/>
<polyline clip-path="url(#clip400)" style="stroke:#000000; stroke-linecap:round; stroke-linejoin:round; stroke-width:4; stroke-opacity:0; fill:none" points="4375.25,1302.43 4375.25,1283.53 "/>
<polyline clip-path="url(#clip400)" style="stroke:#000000; stroke-linecap:round; stroke-linejoin:round; stroke-width:4; stroke-opacity:0; fill:none" points="4717.33,1302.43 4717.33,1283.53 "/>
<polyline clip-path="url(#clip400)" style="stroke:#000000; stroke-linecap:round; stroke-linejoin:round; stroke-width:4; stroke-opacity:0; fill:none" points="5059.4,1302.43 5059.4,1283.53 "/>
<polyline clip-path="url(#clip400)" style="stroke:#000000; stroke-linecap:round; stroke-linejoin:round; stroke-width:4; stroke-opacity:0; fill:none" points="5401.47,1302.43 5401.47,1283.53 "/>
<path clip-path="url(#clip400)" d="M3990.78 1369.2 Q3984.01 1369.2 3980.58 1375.89 Q3977.19 1382.53 3977.19 1395.9 Q3977.19 1409.22 3980.58 1415.9 Q3984.01 1422.54 3990.78 1422.54 Q3997.59 1422.54 4000.98 1415.9 Q4004.41 1409.22 4004.41 1395.9 Q4004.41 1382.53 4000.98 1375.89 Q3997.59 1369.2 3990.78 1369.2 M3990.78 1362.26 Q4001.67 1362.26 4007.4 1370.9 Q4013.17 1379.49 4013.17 1395.9 Q4013.17 1412.26 4007.4 1420.9 Q4001.67 1429.49 3990.78 1429.49 Q3979.88 1429.49 3974.11 1420.9 Q3968.38 1412.26 3968.38 1395.9 Q3968.38 1379.49 3974.11 1370.9 Q3979.88 1362.26 3990.78 1362.26 Z" fill="#000000" fill-rule="nonzero" fill-opacity="1" /><path clip-path="url(#clip400)" d="M4028.58 1417.21 L4037.74 1417.21 L4037.74 1428.23 L4028.58 1428.23 L4028.58 1417.21 Z" fill="#000000" fill-rule="nonzero" fill-opacity="1" /><path clip-path="url(#clip400)" d="M4075.59 1369.2 Q4068.81 1369.2 4065.39 1375.89 Q4062 1382.53 4062 1395.9 Q4062 1409.22 4065.39 1415.9 Q4068.81 1422.54 4075.59 1422.54 Q4082.4 1422.54 4085.79 1415.9 Q4089.21 1409.22 4089.21 1395.9 Q4089.21 1382.53 4085.79 1375.89 Q4082.4 1369.2 4075.59 1369.2 M4075.59 1362.26 Q4086.48 1362.26 4092.21 1370.9 Q4097.98 1379.49 4097.98 1395.9 Q4097.98 1412.26 4092.21 1420.9 Q4086.48 1429.49 4075.59 1429.49 Q4064.69 1429.49 4058.92 1420.9 Q4053.19 1412.26 4053.19 1395.9 Q4053.19 1379.49 4058.92 1370.9 Q4064.69 1362.26 4075.59 1362.26 Z" fill="#000000" fill-rule="nonzero" fill-opacity="1" /><path clip-path="url(#clip400)" d="M4333.78 1369.2 Q4327.01 1369.2 4323.58 1375.89 Q4320.2 1382.53 4320.2 1395.9 Q4320.2 1409.22 4323.58 1415.9 Q4327.01 1422.54 4333.78 1422.54 Q4340.6 1422.54 4343.98 1415.9 Q4347.41 1409.22 4347.41 1395.9 Q4347.41 1382.53 4343.98 1375.89 Q4340.6 1369.2 4333.78 1369.2 M4333.78 1362.26 Q4344.68 1362.26 4350.41 1370.9 Q4356.18 1379.49 4356.18 1395.9 Q4356.18 1412.26 4350.41 1420.9 Q4344.68 1429.49 4333.78 1429.49 Q4322.89 1429.49 4317.12 1420.9 Q4311.39 1412.26 4311.39 1395.9 Q4311.39 1379.49 4317.12 1370.9 Q4322.89 1362.26 4333.78 1362.26 Z" fill="#000000" fill-rule="nonzero" fill-opacity="1" /><path clip-path="url(#clip400)" d="M4371.59 1417.21 L4380.74 1417.21 L4380.74 1428.23 L4371.59 1428.23 L4371.59 1417.21 Z" fill="#000000" fill-rule="nonzero" fill-opacity="1" /><path clip-path="url(#clip400)" d="M4399.93 1363.43 L4434.35 1363.43 L4434.35 1370.81 L4407.96 1370.81 L4407.96 1386.69 Q4409.87 1386.04 4411.78 1385.74 Q4413.69 1385.39 4415.6 1385.39 Q4426.45 1385.39 4432.78 1391.34 Q4439.12 1397.28 4439.12 1407.44 Q4439.12 1417.9 4432.61 1423.72 Q4426.1 1429.49 4414.25 1429.49 Q4410.17 1429.49 4405.92 1428.79 Q4401.71 1428.1 4397.19 1426.71 L4397.19 1417.9 Q4401.1 1420.03 4405.27 1421.07 Q4409.43 1422.11 4414.08 1422.11 Q4421.59 1422.11 4425.97 1418.16 Q4430.35 1414.21 4430.35 1407.44 Q4430.35 1400.67 4425.97 1396.72 Q4421.59 1392.77 4414.08 1392.77 Q4410.56 1392.77 4407.05 1393.55 Q4403.57 1394.33 4399.93 1395.98 L4399.93 1363.43 Z" fill="#000000" fill-rule="nonzero" fill-opacity="1" /><path clip-path="url(#clip400)" d="M4655.74 1420.85 L4670.06 1420.85 L4670.06 1371.42 L4654.48 1374.54 L4654.48 1366.56 L4669.97 1363.43 L4678.74 1363.43 L4678.74 1420.85 L4693.06 1420.85 L4693.06 1428.23 L4655.74 1428.23 L4655.74 1420.85 Z" fill="#000000" fill-rule="nonzero" fill-opacity="1" /><path clip-path="url(#clip400)" d="M4710.77 1417.21 L4719.93 1417.21 L4719.93 1428.23 L4710.77 1428.23 L4710.77 1417.21 Z" fill="#000000" fill-rule="nonzero" fill-opacity="1" /><path clip-path="url(#clip400)" d="M4757.78 1369.2 Q4751.01 1369.2 4747.58 1375.89 Q4744.19 1382.53 4744.19 1395.9 Q4744.19 1409.22 4747.58 1415.9 Q4751.01 1422.54 4757.78 1422.54 Q4764.59 1422.54 4767.98 1415.9 Q4771.41 1409.22 4771.41 1395.9 Q4771.41 1382.53 4767.98 1375.89 Q4764.59 1369.2 4757.78 1369.2 M4757.78 1362.26 Q4768.67 1362.26 4774.4 1370.9 Q4780.17 1379.49 4780.17 1395.9 Q4780.17 1412.26 4774.4 1420.9 Q4768.67 1429.49 4757.78 1429.49 Q4746.88 1429.49 4741.11 1420.9 Q4735.38 1412.26 4735.38 1395.9 Q4735.38 1379.49 4741.11 1370.9 Q4746.88 1362.26 4757.78 1362.26 Z" fill="#000000" fill-rule="nonzero" fill-opacity="1" /><path clip-path="url(#clip400)" d="M4998.74 1420.85 L5013.07 1420.85 L5013.07 1371.42 L4997.48 1374.54 L4997.48 1366.56 L5012.98 1363.43 L5021.75 1363.43 L5021.75 1420.85 L5036.07 1420.85 L5036.07 1428.23 L4998.74 1428.23 L4998.74 1420.85 Z" fill="#000000" fill-rule="nonzero" fill-opacity="1" /><path clip-path="url(#clip400)" d="M5053.78 1417.21 L5062.94 1417.21 L5062.94 1428.23 L5053.78 1428.23 L5053.78 1417.21 Z" fill="#000000" fill-rule="nonzero" fill-opacity="1" /><path clip-path="url(#clip400)" d="M5082.12 1363.43 L5116.54 1363.43 L5116.54 1370.81 L5090.15 1370.81 L5090.15 1386.69 Q5092.06 1386.04 5093.97 1385.74 Q5095.88 1385.39 5097.79 1385.39 Q5108.64 1385.39 5114.98 1391.34 Q5121.31 1397.28 5121.31 1407.44 Q5121.31 1417.9 5114.8 1423.72 Q5108.29 1429.49 5096.44 1429.49 Q5092.36 1429.49 5088.11 1428.79 Q5083.9 1428.1 5079.39 1426.71 L5079.39 1417.9 Q5083.29 1420.03 5087.46 1421.07 Q5091.62 1422.11 5096.27 1422.11 Q5103.78 1422.11 5108.16 1418.16 Q5112.55 1414.21 5112.55 1407.44 Q5112.55 1400.67 5108.16 1396.72 Q5103.78 1392.77 5096.27 1392.77 Q5092.75 1392.77 5089.24 1393.55 Q5085.77 1394.33 5082.12 1395.98 L5082.12 1363.43 Z" fill="#000000" fill-rule="nonzero" fill-opacity="1" /><path clip-path="url(#clip400)" d="M5347.54 1420.85 L5378.14 1420.85 L5378.14 1428.23 L5337 1428.23 L5337 1420.85 Q5341.99 1415.69 5350.58 1407.01 Q5359.22 1398.28 5361.43 1395.77 Q5365.64 1391.03 5367.29 1387.78 Q5368.98 1384.48 5368.98 1381.31 Q5368.98 1376.15 5365.34 1372.89 Q5361.74 1369.64 5355.92 1369.64 Q5351.8 1369.64 5347.2 1371.07 Q5342.64 1372.5 5337.43 1375.41 L5337.43 1366.56 Q5342.73 1364.43 5347.33 1363.34 Q5351.93 1362.26 5355.75 1362.26 Q5365.82 1362.26 5371.81 1367.29 Q5377.79 1372.33 5377.79 1380.75 Q5377.79 1384.74 5376.28 1388.34 Q5374.8 1391.9 5370.85 1396.76 Q5369.77 1398.02 5363.95 1404.06 Q5358.13 1410.04 5347.54 1420.85 Z" fill="#000000" fill-rule="nonzero" fill-opacity="1" /><path clip-path="url(#clip400)" d="M5396.54 1417.21 L5405.7 1417.21 L5405.7 1428.23 L5396.54 1428.23 L5396.54 1417.21 Z" fill="#000000" fill-rule="nonzero" fill-opacity="1" /><path clip-path="url(#clip400)" d="M5443.55 1369.2 Q5436.78 1369.2 5433.35 1375.89 Q5429.96 1382.53 5429.96 1395.9 Q5429.96 1409.22 5433.35 1415.9 Q5436.78 1422.54 5443.55 1422.54 Q5450.36 1422.54 5453.75 1415.9 Q5457.18 1409.22 5457.18 1395.9 Q5457.18 1382.53 5453.75 1375.89 Q5450.36 1369.2 5443.55 1369.2 M5443.55 1362.26 Q5454.44 1362.26 5460.17 1370.9 Q5465.95 1379.49 5465.95 1395.9 Q5465.95 1412.26 5460.17 1420.9 Q5454.44 1429.49 5443.55 1429.49 Q5432.66 1429.49 5426.88 1420.9 Q5421.15 1412.26 5421.15 1395.9 Q5421.15 1379.49 5426.88 1370.9 Q5432.66 1362.26 5443.55 1362.26 Z" fill="#000000" fill-rule="nonzero" fill-opacity="1" /><path clip-path="url(#clip400)" d="M4725.84 1549.81 L4723.55 1537.78 Q4721.21 1525.43 4711.94 1525.43 Q4704.96 1525.43 4701.78 1531.16 Q4697.77 1538.35 4697.77 1547.83 Q4697.77 1559.29 4701.68 1564.75 Q4705.63 1570.33 4711.94 1570.33 Q4718.91 1570.33 4722.66 1559.23 L4725.84 1549.81 M4731.21 1533.87 L4736.36 1518.61 L4744.9 1518.61 L4734.23 1550.22 L4736.31 1561.63 Q4736.78 1564.18 4738.6 1566.32 Q4740.74 1568.82 4742.4 1568.82 L4746.99 1568.82 L4746.99 1576.94 L4741.26 1576.94 Q4736.36 1576.94 4731.99 1572.57 Q4729.85 1570.38 4728.97 1565.8 Q4726.57 1571.58 4721.68 1576.11 Q4719.38 1578.24 4711.94 1578.24 Q4699.7 1578.24 4693.76 1570.33 Q4687.66 1562.15 4687.66 1547.83 Q4687.66 1532.52 4694.28 1525.33 Q4701.62 1517.31 4711.94 1517.31 Q4728.13 1517.31 4731.21 1533.87 Z" fill="#000000" fill-rule="nonzero" fill-opacity="1" /><polyline clip-path="url(#clip404)" style="stroke:#000000; stroke-linecap:round; stroke-linejoin:round; stroke-width:2; stroke-opacity:0.1; fill:none" points="3992.13,1071.59 5442.52,1071.59 "/>
<polyline clip-path="url(#clip404)" style="stroke:#000000; stroke-linecap:round; stroke-linejoin:round; stroke-width:2; stroke-opacity:0.1; fill:none" points="3992.13,826.159 5442.52,826.159 "/>
<polyline clip-path="url(#clip404)" style="stroke:#000000; stroke-linecap:round; stroke-linejoin:round; stroke-width:2; stroke-opacity:0.1; fill:none" points="3992.13,580.726 5442.52,580.726 "/>
<polyline clip-path="url(#clip404)" style="stroke:#000000; stroke-linecap:round; stroke-linejoin:round; stroke-width:2; stroke-opacity:0.1; fill:none" points="3992.13,335.292 5442.52,335.292 "/>
<polyline clip-path="url(#clip400)" style="stroke:#000000; stroke-linecap:round; stroke-linejoin:round; stroke-width:4; stroke-opacity:0; fill:none" points="3992.13,1071.59 4011.03,1071.59 "/>
<polyline clip-path="url(#clip400)" style="stroke:#000000; stroke-linecap:round; stroke-linejoin:round; stroke-width:4; stroke-opacity:0; fill:none" points="3992.13,826.159 4011.03,826.159 "/>
<polyline clip-path="url(#clip400)" style="stroke:#000000; stroke-linecap:round; stroke-linejoin:round; stroke-width:4; stroke-opacity:0; fill:none" points="3992.13,580.726 4011.03,580.726 "/>
<polyline clip-path="url(#clip400)" style="stroke:#000000; stroke-linecap:round; stroke-linejoin:round; stroke-width:4; stroke-opacity:0; fill:none" points="3992.13,335.292 4011.03,335.292 "/>
<g clip-path="url(#clip400)">
<text style="fill:#000000; fill-opacity:1; font-family:Arial,Helvetica Neue,Helvetica,sans-serif; font-size:118px; font-weight:bold; text-anchor:middle;" transform="rotate(0, 4717.33, 103.2)" x="4717.33" y="103.2">g(m)=m</text>
</g>
<polyline clip-path="url(#clip404)" style="stroke:#d3d3d3; stroke-linecap:round; stroke-linejoin:round; stroke-width:2; stroke-opacity:1; fill:none" points="4033.18,1151.29 4090.19,1151.55 4147.21,1152.36 4204.22,1153.72 4261.23,1155.52 4318.24,1157.78 4375.25,1160.53 4432.27,1163.67 4489.28,1167.26 4546.29,1171.24 4603.3,1175.63 4660.31,1180.28 4717.33,1185.32 4774.34,1199.79 4831.35,1213.9 4888.36,1225.72 4945.37,1235.13 5002.39,1242.59 5059.4,1248.38 5116.41,1252.89 5173.42,1256.5 5230.43,1259.43 5287.45,1261.78 5344.46,1263.69 5401.47,1269.26 "/>
<polyline clip-path="url(#clip404)" style="stroke:#808080; stroke-linecap:round; stroke-linejoin:round; stroke-width:4; stroke-opacity:1; fill:none" points="4033.18,1150.72 4090.19,1151 4147.21,1151.81 4204.22,1153.11 4261.23,1154.98 4318.24,1157.27 4375.25,1160.08 4432.27,1163.21 4489.28,1166.84 4546.29,1170.78 4603.3,1175.13 4660.31,1179.88 4717.33,1184.96 4774.34,1199.44 4831.35,1213.6 4888.36,1225.58 4945.37,1235.08 5002.39,1242.43 5059.4,1248.25 5116.41,1252.83 5173.42,1256.43 5230.43,1259.35 5287.45,1261.7 5344.46,1263.63 5401.47,1269.23 "/>
<polyline clip-path="url(#clip404)" style="stroke:#000000; stroke-linecap:round; stroke-linejoin:round; stroke-width:8; stroke-opacity:1; fill:none" points="4033.18,1149.94 4090.19,1150.22 4147.21,1151.04 4204.22,1152.37 4261.23,1154.24 4318.24,1156.55 4375.25,1159.27 4432.27,1162.46 4489.28,1166.13 4546.29,1170.19 4603.3,1174.62 4660.31,1179.38 4717.33,1184.44 4774.34,1199.28 4831.35,1213.48 4888.36,1225.41 4945.37,1234.93 5002.39,1242.39 5059.4,1248.17 5116.41,1252.75 5173.42,1256.38 5230.43,1259.28 5287.45,1261.66 5344.46,1263.59 5401.47,1269.21 "/>
<polyline clip-path="url(#clip404)" style="stroke:#808080; stroke-linecap:round; stroke-linejoin:round; stroke-width:4; stroke-opacity:1; fill:none" points="4033.18,1149.49 4090.19,1149.79 4147.21,1150.57 4204.22,1151.83 4261.23,1153.68 4318.24,1156.02 4375.25,1158.79 4432.27,1162.03 4489.28,1165.7 4546.29,1169.7 4603.3,1174.18 4660.31,1178.98 4717.33,1184.06 4774.34,1198.97 4831.35,1213.25 4888.36,1225.32 4945.37,1234.81 5002.39,1242.31 5059.4,1248.1 5116.41,1252.66 5173.42,1256.3 5230.43,1259.19 5287.45,1261.61 5344.46,1263.55 5401.47,1269.17 "/>
<polyline clip-path="url(#clip404)" style="stroke:#d3d3d3; stroke-linecap:round; stroke-linejoin:round; stroke-width:2; stroke-opacity:1; fill:none" points="4033.18,1149.11 4090.19,1149.38 4147.21,1150.21 4204.22,1151.56 4261.23,1153.34 4318.24,1155.63 4375.25,1158.38 4432.27,1161.55 4489.28,1165.13 4546.29,1169.16 4603.3,1173.58 4660.31,1178.41 4717.33,1183.63 4774.34,1198.72 4831.35,1213.12 4888.36,1225.21 4945.37,1234.78 5002.39,1242.19 5059.4,1248 5116.41,1252.57 5173.42,1256.25 5230.43,1259.14 5287.45,1261.55 5344.46,1263.51 5401.47,1269.17 "/>
</svg>
